<?xml version="1.0" encoding="utf-8"?>
<!-- Generator: Adobe Illustrator 25.4.1, SVG Export Plug-In . SVG Version: 6.00 Build 0)  -->
<svg version="1.1" id="Layer_1" xmlns="http://www.w3.org/2000/svg" xmlns:xlink="http://www.w3.org/1999/xlink" x="0px" y="0px"
	 viewBox="0 0 180 180" style="enable-background:new 0 0 180 180;" xml:space="preserve">
<style type="text/css">
	.st0{fill:#AD2325;}
	.st1{fill:#1773AC;}
</style>
<g>
	<path class="st0" d="M19.9,179.2c-1.6-0.4-3.1-0.7-4.7-1.2c-7.7-2.6-11.9-8.2-13.3-16.1c-0.9-5.2-0.3-10.4,0.8-15.5
		c0.5-2.2,2.4-3.6,4.4-3.3c2.3,0.3,3.7,2,3.6,4.5c-0.2,2.2-0.6,4.4-0.9,6.6c-0.4,3.5-0.1,7,1.4,10.3c1.5,3.3,4.1,5.1,7.5,6
		c4.3,1.2,8.5,0.7,12.8-0.2c8.5-1.7,16.4-5.1,24.1-9.1c13.3-6.9,25.5-15.6,37.1-25c1-0.8,2.1-1.6,3.5-1.6c1.7,0,3,0.7,3.7,2.3
		c0.8,1.6,0.5,3-0.6,4.3c-0.4,0.5-1,1-1.5,1.4C87.4,151,76.6,158.8,65,165.4c-9.6,5.4-19.4,10.1-30.2,12.6c-1.9,0.4-3.9,0.8-5.9,1.2
		C25.9,179.2,22.9,179.2,19.9,179.2z"/>
	<g>
		<path class="st0" d="M178.5,28.2c-1,4.3-1.9,8.6-3.2,12.8c-2.6,8.2-6.4,15.9-10.6,23.3c-8.4,14.7-18.5,28.1-29.7,40.7
			c-0.4,0.5-0.8,1-1.2,1.5c-0.1,0.1-0.2,0.3-0.3,0.6c2.3,4.9,2.8,10,0.7,15.1c-1.5,3.8-4.1,6.7-7.6,8.8c-7.9,4.7-16.9,2.7-22.4-3.2
			c-6.1-6.6-6.7-15.9-1.7-22.8c2.9-4,6.8-6.6,11.8-7.5c4.9-0.8,9.4,0.4,13.7,3.2c3.1-3.7,6.2-7.3,9.2-11
			c7.6-9.3,14.5-19.1,20.4-29.6c5.2-9.2,9.8-18.7,11.9-29.2c0.8-4.1,1.2-8.1,0.3-12.3c-1.2-5.2-4.8-8.6-10.2-9.3
			c-3.7-0.5-7.3-0.1-10.9,0.5c-0.8,0.1-1.7,0.2-2.6,0.2c-1.9,0-3.5-1.2-3.9-3c-0.5-1.8,0.4-3.8,2.3-4.5c1.5-0.6,3.2-0.9,4.8-1.1
			c5.2-0.8,10.3-0.9,15.3,0.7c7.1,2.3,11.3,7.2,13.1,14.3c0.2,0.8,0.4,1.7,0.6,2.5C178.5,22,178.5,25.1,178.5,28.2z M117.4,125.4
			c5.5,0,10-4.4,10-9.9c0-5.4-4.6-9.9-9.9-9.9c-5.5,0-9.9,4.5-9.9,10C107.6,121,111.9,125.4,117.4,125.4z"/>
		<path class="st1" d="M83.4,177.5c-2.3-0.3-4.7-0.6-7-0.9c-1.7-0.3-3.4-0.6-5.1-1c-2.5-0.7-3.8-2.7-3.2-5.1c0.5-2.1,2.5-3.3,5-2.8
			c6,1.1,12,2,18.1,1.8c3.2-0.1,6.4-0.4,9.6-0.7c0.5,0,1-0.2,1.7-0.4c0.7-1.9,1.5-3.8,2.1-5.8c1.6-5.7,3-11.4,4.5-17.1
			c0.7-2.7,2.1-4,4.4-3.9c2.2,0.1,3.8,1.6,3.7,3.7c-0.2,2.3-0.6,4.7-1.2,6.9c-1.1,4.3-2.4,8.5-3.5,12.8c-0.1,0.4-0.2,0.8-0.4,1.5
			c11.8-3.3,22-9,31-16.9c10.2-9,17.7-19.9,22.5-32.9c-3.6,0.6-6.8,1.3-10.1,1.8c-2.4,0.4-4.7,0.8-7.1,1.2c-0.9,0.1-1.9,0.1-2.7-0.1
			c-1.6-0.4-2.7-2-2.8-3.7c0-1.7,0.9-3.3,2.7-3.8c2.4-0.6,4.8-1,7.3-1.4c5.1-0.9,10.2-1.8,15.4-2.8c0.4-1.8,0.9-3.5,1.1-5.2
			c0.5-4.5,0.9-9,1.1-13.5c0.2-5.2-0.6-10.3-1.5-15.4c-0.6-3.1,1.5-5.5,4.5-5.1c1.7,0.2,3.1,1.4,3.4,3.4c0.6,3,0.9,6.1,1.4,9.2
			c0.1,0.6,0.2,1.1,0.3,1.7c0,4.4,0,8.7,0,13.1c-0.1,0.4-0.2,0.8-0.2,1.2c-0.4,5.2-1.3,10.4-2.7,15.4c-4.4,15.9-12.6,29.6-24.5,41
			c-12.8,12.1-27.8,19.7-45,22.9c-2.9,0.5-5.9,0.9-8.8,1.3C92.5,177.5,88,177.5,83.4,177.5z"/>
		<path class="st1" d="M121.8,67.4c0.1,2.9,0.3,5.7,0.4,8.5c0.1,3.1,0.2,6.2,0.2,9.3c0,2.3-1.8,4-4,4c-2.2,0-4-1.7-4.1-4.1
			c-0.2-3.5-0.2-7-0.4-10.5c-0.1-2.1-0.3-4.2-0.4-6.7c-15.5,0.9-30.9,1-46.3,0c-1.3,4.9-1.2,39,0.2,47c1.6,0.1,3.2,0.3,4.8,0.4
			c4.7,0.2,9.4,0.2,14.1,0.4c2.9,0.1,4.7,1.7,4.7,4.2c0,2.1-1.5,3.9-3.6,3.9c-4.3,0-8.6-0.1-12.9-0.2c-2.1,0-4.2,0-6.5,0
			c0.5,3.6,0.9,7.2,1.4,10.8c0.3,2.3,0.8,4.6,1.1,7c0.4,2.3-1,4.3-3.2,4.8c-2,0.5-4.2-0.8-4.7-3c-0.6-2.7-1-5.5-1.4-8.3
			c-0.6-3.9-1-7.8-1.6-12c-14.9-1.3-29.8-3.2-44.9-6.3c0.7,1.8,1.2,3.2,1.9,4.7c5.1,11.5,12.4,21.3,22,29.4c0.4,0.4,0.9,0.7,1.3,1.2
			c1.6,1.8,1.6,4,0.1,5.6c-1.4,1.6-3.8,1.7-5.6,0.3c-1.4-1.1-2.8-2.3-4.1-3.5c-13.5-12.7-22.4-28-26.4-46c-1.8-8-2.4-16.1-1.9-24.3
			c1.1-17,6.6-32.5,16.6-46.4c9-12.4,20.5-21.9,34.4-28.5c8.3-3.9,17.1-6.4,26.2-7.5C84.5,0.8,89.8,0.7,95.1,1
			c8.9,0.4,17.5,2.2,25.9,5.3c14,5.2,25.8,13.4,35.7,24.6c1.2,1.4,2.4,2.8,3.4,4.3c1.5,2.4,0.3,5.3-2.4,6c-1.7,0.5-3.1-0.2-4.2-1.4
			c-1.2-1.3-2.3-2.7-3.5-4c-8-9-17.5-15.8-28.6-20.4c-2.9-1.2-5.9-2.2-9-3.1c4.9,15.3,7.2,30.9,8.8,46.9c1.2-0.1,2.3-0.1,3.4-0.3
			c6.3-0.8,12.6-1.7,18.9-2.5c0.9-0.1,1.8-0.3,2.7-0.4c2.1-0.2,4,1.3,4.4,3.4c0.4,1.8-0.7,3.9-2.7,4.4c-2.1,0.6-4.3,0.9-6.4,1.2
			c-6.3,0.8-12.5,1.6-18.8,2.4C122.5,67.3,122.2,67.3,121.8,67.4z M15.5,60.3c-5.9,15.6-7,31.3-3.3,47.3c15.5,3.2,30.9,5.6,46.8,6.8
			c-1-15.9-1.2-31.4-0.2-47.1C44.1,65.9,29.8,63.7,15.5,60.3z M112.8,59.7c0-0.5,0.1-0.8,0-1.2c-1-7.3-1.9-14.7-3.1-22
			c-1.4-8.6-3.6-16.9-6.7-25.1c-0.4-1-0.8-1.7-2-1.8C94.9,9,88.8,8.8,82.6,9.4C81,9.5,79.5,9.8,78,10c-6.2,16-8.8,32.7-10.4,49.6
			C82.7,60.8,97.7,60.8,112.8,59.7z M59.1,59.1c1.2-8,2.2-15.8,3.5-23.6c1.2-7.9,3.3-15.6,5.9-23.5c-22.3,6.9-38.6,20.3-49.7,40.7
			C32.4,55.8,45.7,57.9,59.1,59.1z"/>
	</g>
</g>
</svg>
