<?xml version="1.0" encoding="utf-8"?>
<!-- Generator: Adobe Illustrator 25.4.1, SVG Export Plug-In . SVG Version: 6.00 Build 0)  -->
<svg version="1.1" id="Layer_1" xmlns="http://www.w3.org/2000/svg" xmlns:xlink="http://www.w3.org/1999/xlink" x="0px" y="0px"
	 viewBox="0 0 180 180" style="enable-background:new 0 0 180 180;" xml:space="preserve">
<style type="text/css">
	.st0{fill:#AD2325;}
	.st1{fill:none;}
	.st2{fill:#1773AC;}
</style>
<g>
	<path class="st0" d="M127.5,120.7c1.8,0,3.7,0,5.5,0c1.9,0,2.9,0.9,2.9,2.9c0,3.7,0,7.4,0,11.1c0,1.9-1,2.8-2.9,2.9
		c-3.7,0-7.4,0-11.1,0c-1.9,0-2.9-0.9-2.9-2.9c0-3.7,0-7.4,0-11.1c0-1.9,0.9-2.8,2.9-2.9C123.8,120.7,125.6,120.7,127.5,120.7z
		 M130.8,132.5c0.1-2.2,0.1-4.4,0-6.6c-2.3,0-4.5,0-6.6,0c0,2.3,0,4.5,0,6.6C126.4,132.5,128.5,132.5,130.8,132.5z"/>
	<path class="st0" d="M126.2,156.1c0.1,0.3,0.2,0.7,0.3,1c0.4,1.8-0.6,3.2-2.5,3.3c-0.8,0-1.6,0-2.3,0c-1.7-0.1-2.6-0.9-2.6-2.7
		c0-3.3,0-6.7,0-10c0-0.5,0-1.1,0-1.6c0.1-1.5,1-2.5,2.5-2.5c3.9-0.1,7.8-0.1,11.6,0c1.6,0,2.5,1,2.6,2.6c0.1,0.7,0,1.4,0,2.1
		c-0.1,1.4-0.8,2.4-2,2.7c-1.1,0.3-2.2-0.3-2.9-1.6c-0.1-0.2-0.2-0.4-0.3-0.8c-2.1,0-4.3,0-6.6,0c0,2.2,0,4.3,0,6.6
		c0.5,0.2,1.1,0.3,1.7,0.5C126,155.9,126.1,156,126.2,156.1z"/>
	<path class="st0" d="M124.1,102.9c0,2.3,0,4.3,0,6.5c0.4,0.2,0.8,0.3,1.2,0.5c1,0.6,1.5,1.6,1.3,2.7c-0.2,1-1,1.8-2.1,1.9
		c-1.1,0.1-2.2,0.1-3.2,0c-1.3-0.1-2.2-1.1-2.2-2.4c-0.1-4-0.1-8,0-12c0-1.4,1-2.3,2.4-2.4c3.9-0.1,7.9-0.1,11.8,0
		c1.6,0,2.5,1,2.6,2.6c0,0.5,0,1,0,1.4c0,1.2-0.6,2-1.7,2.4c-1.2,0.4-2.1,0-2.8-0.9c-0.1-0.2-0.3-0.4-0.4-0.6
		C128.7,102.9,126.5,102.9,124.1,102.9z"/>
	<path class="st0" d="M131.8,108.2c2.2-2.2,4.3-4.3,6.5-6.5c0.4-0.4,0.8-0.8,1.2-1.1c1-0.7,2.3-0.6,3.1,0.2c0.9,0.9,1,2.2,0.3,3.2
		c-0.2,0.3-0.5,0.5-0.7,0.8c-2.7,2.7-5.4,5.4-8.1,8.1c-1.8,1.8-2.9,1.8-4.7,0c-1.2-1.2-2.4-2.3-3.5-3.6c-0.8-0.9-0.8-2-0.2-3
		c0.6-0.9,1.8-1.4,2.8-1c0.5,0.2,0.9,0.5,1.3,0.9c0.4,0.3,0.7,0.7,1,1C131.1,107.6,131.5,107.8,131.8,108.2z"/>
	<path class="st0" d="M126.2,156.1c-0.1-0.1-0.2-0.2-0.3-0.3c-0.8-1.8-0.7-3,0.4-3.8c1.2-0.9,2.4-0.6,3.9,0.9c0.5,0.5,1,1,1.6,1.6
		c2.2-2.2,4.2-4.3,6.3-6.4c0.4-0.4,0.8-0.9,1.3-1.2c1-0.7,2.3-0.6,3.1,0.2c0.9,0.9,1,2.2,0.3,3.2c-0.2,0.3-0.5,0.5-0.7,0.8
		c-2.7,2.7-5.4,5.4-8.1,8.1c-1.8,1.8-2.9,1.7-4.7,0C128.4,158.1,127.3,157.1,126.2,156.1z"/>
	<path class="st0" d="M156.9,108.9c-2.2,0-4.4,0-6.6,0c-0.4,0-0.8,0-1.2,0c-1.4-0.2-2.3-1.1-2.4-2.4c0-1.3,0.9-2.3,2.3-2.5
		c0.3,0,0.6,0,0.9,0c4.8,0,9.5,0,14.3,0c2.1,0,3.3,0.9,3.3,2.5c0,1.6-1.2,2.5-3.2,2.5C161.7,108.9,159.3,108.9,156.9,108.9z"/>
	<path class="st0" d="M156.9,126.8c2.3,0,4.6,0,7,0c0.4,0,0.8,0,1.2,0c1.4,0.2,2.3,1.2,2.3,2.5c0,1.3-1,2.3-2.4,2.5
		c-0.4,0-0.7,0-1.1,0c-4.6,0-9.3,0-13.9,0c-0.4,0-0.8,0-1.2,0c-1.3-0.2-2.1-1.3-2.1-2.5c0-1.2,0.9-2.2,2.2-2.4c0.4-0.1,0.8,0,1.2,0
		C152.3,126.8,154.6,126.8,156.9,126.8z"/>
	<path class="st0" d="M157,154.7c-2.3,0-4.6,0-7,0c-0.5,0-1,0-1.4-0.1c-1.2-0.3-1.9-1.3-1.9-2.5c0-1.2,0.8-2.2,2-2.4
		c0.3-0.1,0.7-0.1,1.1-0.1c4.8,0,9.6,0,14.5,0c0.2,0,0.5,0,0.7,0c1.5,0.1,2.5,1.2,2.5,2.5c0,1.3-1,2.3-2.4,2.4c-0.4,0-0.8,0-1.2,0
		C161.5,154.7,159.2,154.7,157,154.7z"/>
	<path class="st1" d="M104.3,32c-8.2,4.2-61,34.9-62,36c9.6,5.5,19.2,11.1,28.9,16.6c9.1-4.8,61-34.9,62-36
		C123.5,43,113.9,37.5,104.3,32z"/>
	<path class="st1" d="M6.6,124.9c20.7,11.9,41.3,23.8,62.2,35.8c0-24.1,0-47.9,0-71.7C48.1,77,27.4,65.1,6.6,53.2
		C6.6,77.2,6.6,101,6.6,124.9z"/>
	<path class="st1" d="M99.2,29c-9.5-5.5-18.7-10.8-27.9-16.1C50.6,24.8,29.9,36.7,9,48.8c9.5,5.5,18.7,10.8,27.9,16.1
		C57.7,52.9,78.4,41,99.2,29z"/>
	<path class="st2" d="M73.9,160.7c0-24.1,0-47.8,0-71.8c20.5-11.9,41.1-23.8,61.9-35.8c0,6.4,0,12.5,0,18.8c-0.2,0-0.4,0-0.5,0.1
		h5.7c0-7.6-0.1-14.8,0-22.1c0-1.9-0.7-3.1-2.3-4C117,33.5,95.3,21,73.7,8.5c-1.8-1-3.2-1-5,0C47.2,21,25.7,33.4,4.1,45.8
		c-1.9,1.1-2.7,2.3-2.7,4.5c0.1,24.9,0,49.7,0,74.6c0,0.5,0,1,0,1.4c0,0.9,0.4,1.6,1.2,2.1c0.4,0.3,0.9,0.6,1.4,0.8
		c21.5,12.4,43.1,24.8,64.6,37.3c1.9,1.1,3.4,1,5.3,0c10.6-6.2,21.3-12.3,31.9-18.4c0.6-0.4,1.2-0.7,2.1-1.1v-5.8
		C96.7,147.6,85.4,154.1,73.9,160.7z M71.3,12.9c9.3,5.3,18.4,10.6,27.9,16.1C78.4,41,57.7,52.9,37,64.9C27.7,59.6,18.5,54.3,9,48.8
		C29.9,36.7,50.6,24.8,71.3,12.9z M68.8,160.7c-20.9-12-41.5-23.9-62.2-35.8c0-23.9,0-47.7,0-71.7c20.8,12,41.5,23.9,62.2,35.8
		C68.8,112.8,68.8,136.6,68.8,160.7z M71.2,84.6C61.6,79.1,52,73.5,42.3,68c1-1.1,53.8-31.8,62-36c9.6,5.5,19.2,11.1,28.9,16.6
		C132.2,49.7,80.3,79.9,71.2,84.6z"/>
	<path d="M107.9,157.8v-8.1C107.9,152.4,107.9,155.1,107.9,157.8z"/>
	<path d="M144.4,72.1h1.9C145.7,72.1,145.1,72.1,144.4,72.1z"/>
	<path d="M107.9,120.7v-6.6C107.9,116.3,107.9,118.5,107.9,120.7z"/>
	<path d="M144.4,72.1h-3.5c0,0,0,0,0,0C142.1,72.1,143.3,72.1,144.4,72.1z"/>
	<path d="M107.9,141.1c0-0.8,0-1.4,0-2.1c0-6.1,0-12.2,0-18.3L107.9,141.1C107.9,141.1,107.9,141.1,107.9,141.1z"/>
	<path d="M107.9,146.9C107.9,146.9,107.9,146.9,107.9,146.9l0,2.8c0-0.3,0-0.5,0-0.8C107.9,148.3,107.9,147.7,107.9,146.9z"/>
	<path class="st0" d="M115.3,171.7c1.3,0.4,2.8,0.5,4.2,0.5c15.8,0,31.5,0,47.3,0c0.5,0,1,0,1.4,0c4.3-0.2,8.1-2.9,9.5-6.9
		c0.5-1.4,0.7-3,0.7-4.5c0-17.8,0-35.5,0-53.3c0-6,0-12,0-18.1c0-5.5-3.7-9.8-9.2-10.7c-1-0.2-2-0.1-3-0.1c-2.5,0-5,0-7.4,0
		c-0.2-0.5-0.3-0.8-0.5-1.2c-1.3-2.8-3.4-4.5-6.5-5.1c-0.8-0.2-1.7-0.2-2.5-0.2c-1.1,0-2.1,0-3.2,0h-1.9c-1.1,0-2.3,0-3.5,0
		c0,0,0,0,0,0h-5.7c-3.8,0.6-6.4,2.6-7.7,6.4c-3,0-6.1-0.1-9.1,0c-4.6,0.1-8.6,3.1-9.9,7.4c-0.4,1.3-0.5,2.8-0.5,4.2
		c0,8,0,16,0,23.9v6.6c0,6.1,0,12.2,0,18.3c0,0.7,0,1.3,0,2.1c0,0,0,0,0,0v5.8c0,0,0,0,0,0c0,0.8,0,1.4,0,1.9c0,0.3,0,0.5,0,0.8v8.1
		c0,1.3,0,2.6,0,3.9C108,166.4,110.9,170.4,115.3,171.7z M136,77.1c2.4-0.1,4.9,0,7.3,0c2.4,0,4.8-0.1,7.2,0c2.9,0.1,4.6,3,3.3,5.5
		c-0.7,1.3-1.7,2-3.2,2c-4.9,0-9.8,0.1-14.7,0c-2.1,0-3.6-1.6-3.6-3.7C132.3,78.8,133.8,77.2,136,77.1z M113,90.2
		c0-0.9,0-1.8,0.3-2.6c0.7-2.4,2.7-4,5.1-4c3-0.1,6.1,0,9.2,0c0.5,0.9,0.8,1.7,1.3,2.3c1.7,2.3,3.9,3.7,6.8,3.7c5,0.1,10,0.1,15,0
		c3.4-0.1,5.9-1.7,7.5-4.7c0.2-0.4,0.4-0.8,0.7-1.3c3.2,0,6.3-0.1,9.5,0c2.8,0.1,4.9,2.5,5.2,5.3c0,0.5,0,1,0,1.4
		c0,23.4,0,46.8,0,70.3c0,0.7,0,1.4-0.1,2.1c-0.5,2.6-2.7,4.4-5.3,4.5c-0.4,0-0.8,0-1.3,0c-15.8,0-31.5,0-47.3,0
		c-0.8,0-1.6,0-2.3-0.2c-2.5-0.6-4.2-2.7-4.3-5.3c0-0.4,0-0.7,0-1.1C113,137.2,113,113.7,113,90.2z"/>
</g>
</svg>
