<?xml version="1.0" encoding="utf-8"?>
<!-- Generator: Adobe Illustrator 25.4.1, SVG Export Plug-In . SVG Version: 6.00 Build 0)  -->
<svg version="1.1" id="Layer_1" xmlns="http://www.w3.org/2000/svg" xmlns:xlink="http://www.w3.org/1999/xlink" x="0px" y="0px"
	 viewBox="0 0 180 180" style="enable-background:new 0 0 180 180;" xml:space="preserve">
<style type="text/css">
	.st0{fill:#1773AC;}
	.st1{fill:#AD2325;}
	.st2{fill:none;}
</style>
<path class="st0" d="M176.2,145.6c-3.5-0.1-6.7-1-9.6-2.9c-3.7-2.4-7.7-3.6-12.1-2.5c-1.7,0.4-3.3,1.2-4.8,2
	c-7.6,4.6-15.2,4.6-22.8,0c-5.4-3.3-10.7-3.2-16.1,0c-7.5,4.6-15.1,4.6-22.7,0c-5.4-3.3-10.8-3.3-16.3,0c-7.4,4.5-14.9,4.6-22.3,0.1
	c-5.6-3.4-11.1-3.4-16.8,0.1c-7.2,4.4-14.6,4.4-21.8,0.1c-2.6-1.6-5.4-2.7-8.5-2.7c-1.8,0-2.9-1.3-2.9-2.9c0-1.7,1.2-2.9,3.1-2.9
	c3.7,0,7.1,0.8,10.2,2.8c3.8,2.5,7.8,3.7,12.3,2.6c1.6-0.4,3.2-1.1,4.7-1.9c7.7-4.7,15.4-4.7,23.1,0c5.2,3.2,10.6,3.2,15.8,0
	c7.7-4.7,15.3-4.7,23,0c5.2,3.2,10.6,3.3,15.8,0c7.7-4.8,15.4-4.7,23.1,0c5.2,3.2,10.5,3.2,15.6,0c7.8-4.8,15.5-4.7,23.3,0
	c2,1.2,4.6,1.8,7,2.2c2.4,0.4,3.7,1.3,3.6,3.2C179.9,144.6,178.5,145.6,176.2,145.6z"/>
<path class="st0" d="M22.2,157.2c-4.2,0-7.6-0.8-10.6-2.7c-2.9-1.8-5.8-3.2-9.3-3.2c-1.7,0-2.9-1.3-2.9-2.9c0-1.7,1.3-2.8,3.1-2.9
	c4.1-0.1,7.9,1.2,11.3,3.5c3.5,2.3,7.3,2.9,11.3,1.9c1.6-0.4,3.1-1.1,4.5-1.9c7.7-4.7,15.4-4.7,23.1,0c5.2,3.2,10.5,3.2,15.6,0
	c7.7-4.7,15.4-4.8,23.1-0.1c5.2,3.2,10.6,3.3,15.8,0c5.3-3.4,11-4.4,17.1-2.7c2,0.6,4,1.6,5.8,2.6c5.4,3.2,10.8,3.4,16.1,0.1
	c7.7-4.7,15.3-4.7,23,0.1c2.4,1.5,4.9,2.3,7.7,2.3c1.9,0,3.1,1.2,3.1,2.9c0,1.7-1.3,2.9-3.3,2.9c-4.3,0.1-8-1.5-11.6-3.8
	c-3.4-2.1-7.1-2.6-10.8-1.7c-1.7,0.4-3.3,1.2-4.8,2.1c-7.5,4.4-14.9,4.6-22.3,0c-5.6-3.5-11.1-3.4-16.8,0.1
	c-7.2,4.4-14.6,4.5-21.8,0c-5.8-3.5-11.3-3.5-17.1,0c-7.2,4.4-14.5,4.4-21.7,0c-5.9-3.6-11.6-3.6-17.4,0.1
	C29.1,156.3,25.5,157.3,22.2,157.2z"/>
<path class="st0" d="M28.3,96.2c-3.6,0-7.3,0-10.9,0c-2.1,0-3.4-1.1-3.4-2.9c0-1.8,1.3-2.9,3.4-2.9c7.4,0,14.8,0,22.2,0
	c2.1,0,3.4,1.1,3.4,2.9c0,1.8-1.3,2.9-3.4,2.9C35.9,96.2,32.1,96.2,28.3,96.2z"/>
<path class="st0" d="M50.5,90.4c0.5,0,1.1-0.1,1.6,0c1.6,0.3,2.5,1.2,2.6,2.8c0.1,1.5-1.1,2.8-2.6,2.9c-1,0.1-2.1,0.1-3.1,0
	c-1.7-0.1-2.9-1.3-3-2.8c0-1.7,1.2-2.9,3-3C49.5,90.3,50,90.3,50.5,90.4C50.5,90.3,50.5,90.4,50.5,90.4z"/>
<path class="st1" d="M113.9,37.9c0-1.8,0-3.6,0-5.5c0-1.9,1.2-3.1,2.9-3.1c1.7,0,2.9,1.2,2.9,3c0.1,3.8,0.1,7.6,0,11.4
	c0,1.7-1.3,2.9-2.8,2.9c-1.7,0-2.9-1.2-2.9-3C113.8,41.7,113.9,39.8,113.9,37.9z"/>
<path class="st1" d="M124.2,37.8c0-1.8,0-3.6,0-5.5c0-1.9,1.2-3.1,2.9-3.1c1.7,0,2.9,1.2,2.9,3c0.1,3.8,0.1,7.6,0,11.4
	c0,1.7-1.3,2.9-2.8,2.9c-1.7,0-2.9-1.2-2.9-3C124.2,41.7,124.2,39.8,124.2,37.8z"/>
<path class="st1" d="M89.2,66.9c0-1.8,0-3.6,0-5.5c0-1.9,1.2-3.1,2.9-3.1c1.7,0,2.9,1.2,2.9,3C95,65.2,95,69,95,72.8
	c0,1.7-1.3,2.9-2.8,2.9c-1.7,0-2.9-1.2-2.9-3C89.1,70.8,89.2,68.9,89.2,66.9z"/>
<path class="st1" d="M99.5,66.9c0-1.8,0-3.6,0-5.5c0-1.9,1.2-3.1,2.9-3.1c1.7,0,2.9,1.2,2.9,3c0.1,3.8,0.1,7.6,0,11.4
	c0,1.7-1.3,2.9-2.8,2.9c-1.7,0-2.9-1.2-2.9-3C99.5,70.8,99.5,68.8,99.5,66.9z"/>
<path class="st1" d="M131,66.9c0-1.8,0-3.6,0-5.5c0-1.9,1.2-3.1,2.9-3.1c1.7,0,2.9,1.2,2.9,3c0.1,3.8,0.1,7.6,0,11.4
	c0,1.7-1.3,2.9-2.8,2.9c-1.7,0-2.9-1.2-2.9-3C130.9,70.8,131,68.9,131,66.9z"/>
<path class="st1" d="M141.3,66.9c0-1.8,0-3.6,0-5.5c0-1.9,1.2-3.1,2.9-3.1c1.7,0,2.9,1.2,2.9,3c0.1,3.8,0.1,7.6,0,11.4
	c0,1.7-1.3,2.9-2.8,2.9c-1.7,0-2.9-1.2-2.9-3C141.3,70.8,141.3,68.8,141.3,66.9z"/>
<path class="st2" d="M57.5,75.8c-6.6,0-13.1,0-19.6,0c-2.5,0-3.6-1-3.6-3.5c0-3.5,0-6.9,0-10.4c0-2.5,1-3.5,3.5-3.6
	c2.7,0,5.5,0,8.2,0c3.8,0,7.6,0,11.5,0c0-1,0-1.8,0-2.8c-11.7,0-23.2,0-34.8,0c0,7.7,0,15.3,0,23c11.6,0,23.2,0,34.7,0
	C57.5,77.6,57.5,76.8,57.5,75.8z"/>
<path class="st2" d="M43,43.9c-3.9,0-7.7,0-11.4,0c0,2,0,3.8,0,5.6c3.9,0,7.6,0,11.4,0C43,47.7,43,45.9,43,43.9z"/>
<path class="st2" d="M81.1,78.6c11.6,0,23.1,0,34.7,0c0,0,0,0,0-0.1L81.1,78.6C81.1,78.6,81.1,78.6,81.1,78.6z"/>
<path class="st2" d="M172.3,84.6c-55.5,0-110.8,0-166.2,0c3.4,13.6,6.8,27.1,10.2,40.6c0.7,0,1.3,0,1.9,0c44.1,0,88.1,0,132.2,0
	c1.2,0,1.9-0.3,2.5-1.5c6.2-12.5,12.5-25,18.8-37.5C171.8,85.8,172,85.2,172.3,84.6z"/>
<path class="st2" d="M40.3,69.8c5.8,0,11.6,0,17.3,0c0-1.9,0-3.7,0-5.6c-5.8,0-11.4,0-17.3,0C40.3,66.2,40.3,68,40.3,69.8z"/>
<path class="st0" d="M176.5,125.2c-3.3,0-6.6,0-9.8,0c-2.6,0-5.3,0-8.1,0c0.4-0.8,0.7-1.4,1-2c6.3-12.6,12.6-25.1,18.9-37.7
	c0.4-0.9,0.9-1.7,1.3-2.6c0.9-2.2-0.3-4.1-2.7-4.2c-0.7,0-1.5,0-2.2,0c-4,0-8.1,0-12.3,0c0,0,0-0.1,0-0.1h-6c-11.5,0-23,0-34.7,0
	h-6.1c0,0,0,0,0,0.1c-11.6,0-23.1,0-34.7,0c0,0,0,0,0-0.1H71v0c-2.5,0-5,0-7.6,0c0-8.4,0-16.7,0-25c0-3-0.9-3.9-3.9-3.9
	c-3.5,0-7,0-10.7,0c0-2,0-3.9,0-5.8c0-5.6-0.2-5.9-5.8-5.9c-1.9,0-3.8,0-5.9,0c0-4.9,0-9.5,0-14.2c0-2-1.2-3.3-2.9-3.2
	c-1.7,0-2.8,1.3-2.9,3.3c0,1.1,0,2.2,0,3.5c-0.8-0.3-1.2-0.5-1.7-0.7c-1.6-0.6-3.1,0-3.8,1.5c-0.6,1.4-0.2,2.8,1.3,3.7
	c0.6,0.3,1.2,0.6,1.8,0.9c2.7,1.4,3.1,2.1,2.2,5.3c-0.3,0-0.7,0-1.1,0c-3.7,0-4.4,0.7-4.4,4.5c0,2.3,0,4.7,0,7.2c-1.8,0-3.3,0-4.9,0
	c-2.9,0-3.8,1-3.8,3.8c0,7.8,0,15.5,0,23.3c0,0.6,0,1.3,0,2c-4.8,0-9.3,0-13.9,0c-2.8,0-4,1.5-3.3,4.2c1.9,7.7,3.8,15.4,5.8,23.1
	c1.6,6.3,3.2,12.7,4.8,19.3c-2.8,0-5.4-0.1-7.9,0c-1.7,0-2.9,1.3-2.9,2.9c0,1.6,1.2,2.8,2.9,2.9c0.6,0,1.2,0,1.8,0
	c47,0,94.1,0,141.1,0c10.4,0,20.9,0,31.3,0c2.1,0,3.4-1.1,3.4-2.9C180,126.4,178.7,125.3,176.5,125.2z M31.6,43.9
	c3.7,0,7.5,0,11.4,0c0,1.9,0,3.7,0,5.6c-3.8,0-7.5,0-11.4,0C31.6,47.7,31.6,45.9,31.6,43.9z M22.8,55.6c11.5,0,23.1,0,34.8,0
	c0,0.9,0,1.8,0,2.8c-3.9,0-7.7,0-11.5,0c-2.7,0-5.5,0-8.2,0c-2.5,0-3.5,1.1-3.5,3.6c0,3.5,0,6.9,0,10.4c0,2.5,1.1,3.5,3.6,3.5
	c6.5,0,13,0,19.6,0c0,1,0,1.8,0,2.8c-11.5,0-23.1,0-34.7,0C22.8,70.9,22.8,63.3,22.8,55.6z M57.6,64.3c0,1.9,0,3.7,0,5.6
	c-5.7,0-11.4,0-17.3,0c0-1.8,0-3.6,0-5.6C46.1,64.3,51.8,64.3,57.6,64.3z M150.3,125.3c-44.1,0-88.1,0-132.2,0c-0.6,0-1.2,0-1.9,0
	c-3.4-13.6-6.8-27.1-10.2-40.6c55.5,0,110.7,0,166.2,0c-0.3,0.6-0.5,1.2-0.8,1.7c-6.3,12.5-12.5,25-18.8,37.5
	C152.2,124.9,151.5,125.3,150.3,125.3z"/>
<path class="st1" d="M81.1,78.6c0-7.7,0-15.3,0-23c11.6,0,23.1,0,34.7,0c0,7.6,0,15.2,0,23h6.1c0-7.7,0-15.3,0-23
	c11.6,0,23.1,0,34.7,0c0,7.6,0,15.3,0,23h6c0-0.8,0-1.4,0-2c0-7.8,0-15.6,0-23.4c0-2.4-1.1-3.4-3.4-3.5c-3.7,0-7.4,0-11.1,0
	c-0.9,0-1.9,0-2.9,0c0-8.6,0-17,0-25.3c0-2.7-1-3.8-3.7-3.8c-13,0-26.1,0-39.1,0c-2.8,0-3.8,1-3.8,3.9c0,7.7,0,15.4,0,23.1
	c0,0.7,0,1.3,0,2.1c-0.8,0-1.3,0-1.9,0c-5.8,0-11.7,0-17.5,0c-3,0-3.9,0.9-3.9,3.9c0,7.7,0,15.4,0,23.1c0,0.6,0,1.3,0,1.9
	c-1.4,0-2.7,0-4.1,0v0H81.1z M104.3,26.5c11.6,0,23.1,0,34.7,0c0,7.6,0,15.3,0,23c-11.5,0-23,0-34.7,0
	C104.3,41.8,104.3,34.2,104.3,26.5z"/>
</svg>
