<?xml version="1.0" encoding="utf-8"?>
<!-- Generator: Adobe Illustrator 25.4.1, SVG Export Plug-In . SVG Version: 6.00 Build 0)  -->
<svg version="1.1" id="Layer_1" xmlns="http://www.w3.org/2000/svg" xmlns:xlink="http://www.w3.org/1999/xlink" x="0px" y="0px"
	 viewBox="0 0 180 180" style="enable-background:new 0 0 180 180;" xml:space="preserve">
<style type="text/css">
	.st0{fill:#AD2325;}
	.st1{fill:#1773AC;}
	.st2{fill:none;}
</style>
<g>
	<path class="st0" d="M59.2,44.6c-0.2,5.7-3,8.5-7.5,8c-3.4-0.4-6.1-4-5.5-7.5c0.8-4.4,4.5-6.2,9.9-4.8c4.9-3,9.8-6,14.7-9
		c0.2-2.2,0.6-4.3,2.3-5.8c1-0.8,2-1.4,3.3-1.6c2.9-0.3,5.9,0.4,7.7,5.2c4,1,8.2,1.9,12.5,3c2.4-3.1,5.3-4.1,8.9-2.5
		c0.5-0.3,0.9-0.6,1.2-0.9c4.2-3.7,8.4-7.5,12.6-11.2c1-0.8,1.5-1.7,1.4-3c-0.4-3.3,2-6.3,5.5-6.9c3.3-0.6,6.8,1.9,7.4,5.4
		c0.6,3.4-1.9,7-5.3,7.4c-1.3,0.2-2.6,0-4.4,0c-4.8,4.3-10,8.9-15,13.3c-0.2,1.2-0.2,2.3-0.4,3.2c-0.6,2.6-2.3,4.3-4.9,4.8
		c-2.8,0.5-5.3-0.3-6.8-2.8c-0.8-1.3-1.7-1.8-3.1-2.1c-3.6-0.8-7.3-1.7-11-2.6c-2.6,2.6-5.6,3.4-9.1,1.5
		C68.9,38.6,64,41.6,59.2,44.6z M78.7,30.1c0-0.6-0.7-1.2-1.3-1.1c-0.6,0.1-1.1,0.7-1,1.3c0.1,0.6,0.5,1,1.2,1
		C78.2,31.3,78.8,30.8,78.7,30.1z M102.4,34.2c-0.7,0-1.2,0.5-1.2,1.2c0,0.6,0.6,1.2,1.2,1.1c0.6-0.1,1-0.5,1.1-1.1
		C103.6,34.7,103.1,34.2,102.4,34.2z M53.9,46c-0.1-0.6-0.7-1.2-1.3-1.1c-0.7,0.1-1.1,0.7-1,1.3c0.1,0.7,0.5,1,1.2,1
		C53.4,47.3,54,46.6,53.9,46z M128.4,14c0-0.7-0.5-1.2-1.2-1.2c-0.7,0-1,0.4-1.1,1c-0.1,0.6,0.5,1.2,1.1,1.3
		C127.8,15.2,128.4,14.7,128.4,14z"/>
	<path class="st0" d="M117.4,63.3c0-8,0-16,0-24c0-0.7,0-1.4,0.1-2.1c0.2-2,1.7-3.4,3.7-3.6c0.2,0,0.5,0,0.7,0c3.6,0,7.3,0,10.9,0
		c2.8,0,4.4,1.7,4.4,4.5c0,4.3,0,8.6,0,12.9c0,12.1,0,24.3,0,36.4c0,0.6,0,1.1,0,1.7c-0.1,2.4-1.7,4.1-4,4.1
		c-3.9,0.1-7.9,0.1-11.8,0c-2.3-0.1-3.8-1.7-3.9-4c0-0.8,0-1.6,0-2.4C117.4,78.9,117.4,71.1,117.4,63.3z M122.7,38.8
		c-0.1,0.8-0.1,1.4-0.1,2c0,2.3,0,4.5,0,6.8c0,12.6,0,25.3,0,37.9c0,0.8,0.1,1.6,0.2,2.3c2.3,0.4,7.6,0.3,9-0.1
		c0.1-0.6,0.2-1.2,0.2-1.8c0-15,0-30,0-45c0-0.7-0.1-1.3-0.2-2.1C128.7,38.8,125.8,38.8,122.7,38.8z"/>
	<path class="st0" d="M87.4,68.2c0,6.3,0,12.6,0,18.9c0,0.6,0,1.1,0,1.7c0.1,2.6-2,4.4-4.3,4.4c-3.7-0.1-7.4,0-11.1,0
		c-2.4,0-4.1-1.7-4.4-4.2c0-0.4,0-0.7,0-1.1c0-13.2,0-26.4,0-39.6c0-0.8,0.1-1.6,0.3-2.4c0.5-1.8,1.8-2.9,3.7-2.9c4-0.1,8-0.1,12,0
		c2.1,0,3.6,1.6,3.8,3.7c0.1,0.7,0.1,1.4,0.1,2.1C87.4,55.2,87.4,61.7,87.4,68.2z M73.3,48.1c-0.1,0.4-0.3,0.6-0.3,0.8
		c0,12.3,0,24.6,0,37c0,0.6,0.1,1.1,0.1,1.7c0,0.1,0.1,0.1,0.1,0.2c0,0,0.1,0.1,0.1,0.1c2.4,0.4,7.4,0.3,8.7-0.2
		c0.4-2.3,0.2-37.9-0.2-39.5C79.1,48.1,76.2,48.1,73.3,48.1z"/>
	<path class="st0" d="M92.6,77.4c0-3.4,0-6.8,0-10.1c0-0.6,0-1.1,0.1-1.7c0.2-2.2,1.7-3.8,3.9-3.8c3.9-0.1,7.9-0.1,11.8,0
		c2,0,3.4,1.2,3.9,3.2c0.2,0.8,0.2,1.6,0.2,2.4c0,6.8,0,13.5,0,20.3c0,0.4,0,0.8,0,1.1c-0.2,2.9-1.9,4.6-4.7,4.5
		c-3.6,0-7.1-0.1-10.7,0c-2.6,0-4.5-1.9-4.5-4.5C92.6,85,92.6,81.2,92.6,77.4C92.6,77.4,92.6,77.4,92.6,77.4z M107,88
		c0-2,0-3.7,0-5.4c0-1.7,0-3.4,0-5.1c0-1.8,0-3.5,0-5.3c-0.1-1.7,0.2-3.5-0.2-5.1c-2.3-0.4-7.5-0.3-8.8,0.1
		c-0.3,2-0.3,19.1,0.2,20.8C100.9,88.1,103.8,88,107,88z"/>
	<path class="st0" d="M48.2,87.9c3,0,5.9,0,8.9,0c0.1-0.5,0.2-1,0.2-1.5c0-7.3,0-14.5,0-21.8c0-0.4-0.1-0.8-0.2-1.4
		c-2.9-0.3-5.9-0.2-8.9-0.1c-0.1,0.8-0.2,1.4-0.2,2.1c0,2.3,0,4.6,0,6.9c0,0.6,0,1.1-0.1,1.7c-0.2,1.2-0.9,1.9-2.1,2.1
		c-1.4,0.2-2.4-0.4-2.9-1.6c-0.1-0.4-0.2-0.9-0.2-1.3c0-3.6,0-7.1,0-10.7c0-0.6,0.1-1.3,0.4-1.8C43.8,59,45,58,46.7,58
		c3.9,0,7.9-0.1,11.8,0c2.3,0,3.8,1.6,4,3.9c0,0.6,0,1.1,0,1.7c0,8,0,16,0,24c0,0.4,0,0.8,0,1.1c0.2,2.4-1.6,4.6-4.6,4.5
		c-1.9-0.1-3.9,0-5.8,0c-1.7,0-3.4,0-5.1,0c-2.7-0.1-4.3-1.7-4.3-4.4c0-1.4-0.1-2.8,0-4.1c0.1-1.6,1.2-2.6,2.6-2.6
		c1.4,0,2.3,0.9,2.5,2.5c0.1,0.5,0,1,0.1,1.5C48.1,86.6,48.2,87.2,48.2,87.9z"/>
	<path class="st1" d="M89.9,132.5c-1,0-2,0.1-3,0c-0.7-0.1-1.5-0.4-2-0.8c-0.8-0.6-1-1.6-0.7-2.5c0.4-1.2,1.3-1.9,2.5-1.9
		c2.2-0.1,4.4-0.1,6.6,0c1.6,0.1,2.6,1.2,2.7,2.6c0,1.4-1,2.5-2.6,2.7C92.2,132.5,91.1,132.5,89.9,132.5
		C89.9,132.5,89.9,132.5,89.9,132.5z"/>
	<path class="st2" d="M105.1,164.8c0.5,0,0.9-0.2,1.7-0.3c-2-2.7-3.4-5.3-4.2-8.3c-0.8-3.1-0.6-6.2-0.4-9.4
		c-0.6-0.1-1.2-0.2-1.7-0.2c-7,0-14,0-21,0c-0.6,0-1.2,0.1-1.6,0.2c0,2.3,0.2,4.4-0.1,6.4c-0.3,2-0.8,4.1-1.5,6
		c-0.7,1.9-1.9,3.6-2.8,5.4C75.1,165,97.7,165.2,105.1,164.8z"/>
	<path class="st2" d="M57.8,173.8c0.3,0.1,0.5,0.2,0.7,0.2c20.8,0,41.5,0,62.3,0c0.4,0,0.7-0.1,1.1-0.1c0.1,0,0.1-0.1,0.2-0.1
		c0,0,0.1-0.1,0.1-0.1c-0.6-2.9-1.4-3.6-4.3-3.6c-18.6,0-37.1,0-55.7,0C59.3,170.1,58.4,170.8,57.8,173.8z"/>
	<path class="st2" d="M24.3,37.4c0.7,0,1.3-0.1,2.1-0.1c0-1.5,0-2.7,0-4.2c-0.7-0.1-1.2-0.2-1.7-0.2c-4.9,0-9.7,0-14.6,0
		c-0.1,0-0.1,0-0.2,0c-2.8,0.1-4.2,1.5-4.4,4.3c0,0.4,0,0.9,0,1.3c0,23.9,0,47.7,0,71.6c0,0.5,0,1,0,1.5c0,0.4,0.2,0.8,0.3,1.3
		c1.4-0.1,2.8,0.3,4.2-0.4c0-0.9,0-1.7,0-2.6c0-22.9,0-45.9,0-68.8c0-2.7,1.3-3.8,3.7-3.7C17.3,37.5,20.8,37.4,24.3,37.4z"/>
	<path class="st2" d="M158.9,37.4c2.7,0,5.4,0,8.1,0c1.9,0,2.8,1,2.9,2.9c0,0.6,0,1.2,0,1.9c0,22.6,0,45.2,0,67.9
		c0,0.9,0.1,1.7,0.1,2.7c1.5,0,2.8,0,4.3,0c0.1-1,0.1-1.8,0.1-2.7c0-17.2,0-34.4,0-51.6c0-6.9,0-13.9,0-20.8c0-3.5-1.4-4.9-4.9-4.9
		c-4.6,0-9.2,0-13.9,0c-0.7,0-1.3,0.1-2.1,0.2c0,1.5,0,2.8,0,4.4C155.5,37.4,157.2,37.4,158.9,37.4z"/>
	<path d="M26.5,99v-1.1c0,0.1,0,0.1,0,0.2C26.5,98.4,26.5,98.7,26.5,99z"/>
	<path d="M26.5,96.4C26.5,96.4,26.5,96.4,26.5,96.4l0-39c0,0.3,0,0.6,0,0.9C26.5,71,26.5,83.7,26.5,96.4z"/>
	<path class="st1" d="M179.6,78.5c0-13.6,0-27.3,0-40.9c0-1.1,0-2.1-0.2-3.2c-0.8-4-4.7-6.9-8.7-6.9c-4.9,0.1-9.9,0-14.8,0
		c-0.7,0-1.3,0-2.2,0c0-0.2,0-0.4,0-0.6v6c0.7-0.1,1.4-0.2,2.1-0.2c4.6,0,9.2,0,13.9,0c3.5,0,4.9,1.4,4.9,4.9c0,6.9,0,13.9,0,20.8
		c0,17.2,0,34.4,0,51.6c0,0.9-0.1,1.7-0.1,2.7c-1.5,0-2.8,0-4.3,0c0-1-0.1-1.8-0.1-2.7c0-22.6,0-45.2,0-67.9c0-0.6,0-1.3,0-1.9
		c-0.1-1.9-1-2.9-2.9-2.9c-2.7,0-5.4,0-8.1,0c-1.7,0-3.4,0-5.3,0v5.3c3.8-0.1,7.2-0.1,10.9,0c0.1,0.8,0.2,1.5,0.2,2.2
		c0,22,0,43.9,0,65.9c0,0.6-0.1,1.2-0.1,1.7c-0.2,0.2-0.2,0.3-0.3,0.3c0,0-0.1,0.1-0.2,0.1c-0.4,0-0.9,0.1-1.3,0.1
		c-48.8,0-97.7,0-146.5,0c-0.2,0-0.4-0.1-0.6-0.2c-0.1-0.4-0.3-0.8-0.3-1.2c0-22.8,0-45.6,0-68.4c1.6-0.6,8.7-0.7,11-0.2
		c0.1,0.7,0.2,1.4,0.2,2.1c0,1.9,0,3.7,0,5.6v-50c0,8.2,0,16.4,0,24.5c0,0.8-0.1,1.6-0.2,2.5c-0.9,0-1.6,0-2.2,0
		c-4.9,0-9.9,0-14.8,0c-4.1,0-7.5,2.6-8.5,6.6c-0.3,1.2-0.3,2.5-0.3,3.7c0,32.8,0,65.6,0,98.3c0,0.6,0,1.3,0,1.9
		c0.1,4.4,3.6,8.1,8,8.4c0.9,0.1,1.9,0.1,2.8,0.1c19.4,0,38.8,0,58.2,0c0.9,0,1.9-0.2,2.9,0.5c0.1,1.3,0.4,2.7,0.4,4.1
		c-0.2,5.2-2.4,9.3-6.3,12.7c-0.7,0.6-1.5,0.9-2.4,0.9c-1.2,0-2.4,0-3.6,0.1c-3.4,0.3-5.7,2-7,5.1c-0.5,1.2-0.9,2.5-1.3,3.7
		c-0.2,0.5-0.3,1-0.3,1.5c-0.2,2.1,0.9,3.6,3,4.1c0.7,0.2,1.5,0.1,2.2,0.1c17.4,0,34.8,0,52.2,0c4.9,0,9.9,0,14.8,0
		c3.5,0,5.1-2.3,4-5.7c-0.4-1.3-0.9-2.6-1.4-3.9c-1.3-3-3.7-4.7-6.9-4.9c-1.2-0.1-2.4-0.1-3.6-0.1c-0.9,0-1.7-0.3-2.4-0.9
		c-3.9-3.3-6.1-7.5-6.4-12.7c-0.1-1.5,0-3.1,0.7-4.6c0.9,0,1.6-0.1,2.3-0.1c3.7,0,7.4,0,11.1,0c0.6,0,1.1,0,1.7-0.1
		c1.6-0.2,2.5-1.1,2.4-2.6c0-1.4-1-2.4-2.5-2.6c-0.7-0.1-1.4,0-2.1,0c-36.5,0-73.1,0-109.6,0c-0.7,0-1.4,0-2.1,0
		c-2-0.1-3.2-1.2-3.6-3.2c-0.1-0.6-0.1-1.2-0.1-1.9c0-5.3,0-10.5,0-15.8c0-0.7,0.1-1.3,0.1-2c1.6-0.4,166.5-0.4,168.6-0.1
		c0.1,0.5,0.2,1,0.2,1.6c0,5.6,0,11.1,0,16.7c0,3.2-1.5,4.5-4.6,4.6c-0.5,0-1,0-1.5,0c-10.9,0-21.9,0-32.8,0c-0.6,0-1.3,0-1.9,0.1
		c-1.2,0.3-2,1.3-2,2.6c0,1.4,0.8,2.2,2.1,2.4c0.6,0.1,1.2,0.1,1.9,0.1c11.3,0,22.6,0,34,0c0.6,0,1.3,0,1.9-0.1
		c2.8-0.1,5-1.5,6.6-3.8c1.2-1.8,1.6-3.7,1.6-5.9C179.6,117.4,179.6,98,179.6,78.5z M117.9,170.1c2.9,0,3.7,0.7,4.3,3.6
		c0,0-0.1,0.1-0.1,0.1c0,0-0.1,0.1-0.2,0.1c-0.4,0-0.7,0.1-1.1,0.1c-20.8,0-41.5,0-62.3,0c-0.2,0-0.4-0.1-0.7-0.2
		c0.6-3,1.4-3.7,4.3-3.7C80.7,170.1,99.3,170.1,117.9,170.1z M76.3,159.1c0.7-1.9,1.2-3.9,1.5-6c0.2-2,0.1-4.1,0.1-6.4
		c0.5-0.1,1.1-0.2,1.6-0.2c7,0,14,0,21,0c0.5,0,1.1,0.1,1.7,0.2c-0.2,3.3-0.4,6.4,0.4,9.4c0.8,3,2.2,5.7,4.2,8.3
		c-0.8,0.1-1.3,0.3-1.7,0.3c-7.3,0.3-29.9,0.1-31.6-0.3C74.5,162.7,75.6,161,76.3,159.1z M10.1,41.1c0.1,22.9,0,45.9,0,68.8
		c0,0.9,0,1.7,0,2.6c-1.5,0.7-2.8,0.3-4.2,0.4c-0.1-0.5-0.3-0.9-0.3-1.3c-0.1-0.5,0-1,0-1.5c0-23.9,0-47.7,0-71.6c0-0.4,0-0.9,0-1.3
		c0.1-2.8,1.6-4.2,4.4-4.3c0.1,0,0.1,0,0.2,0c4.9,0,9.7,0,14.6,0c0.5,0,1,0.1,1.7,0.2c0,1.5,0,2.8,0,4.2c-0.8,0-1.5,0.1-2.1,0.1
		c-3.5,0-7,0.1-10.5,0C11.4,37.3,10.1,38.4,10.1,41.1z"/>
	<path d="M26.5,50.5v6.8C26.5,55.1,26.5,52.8,26.5,50.5z"/>
	<path d="M26.5,96.4v1.5C26.6,97.4,26.5,96.9,26.5,96.4z"/>
	<path class="st0" d="M104.6,0.6c6.2,0,12.4,0,18.6,0c0.3,0,0.5,0,0.8,0h-21.7c0,0,0,0,0,0C103.1,0.6,103.9,0.6,104.6,0.6z"/>
	<path class="st0" d="M76.4,0.6c1.1,0,2.2,0,3.7,0c0,0,0,0,0,0h-8.7c0,0,0.1,0,0.1,0C73.2,0.6,74.8,0.6,76.4,0.6z"/>
	<path class="st0" d="M26.5,57.4v39c0,0.5,0,1,0,1.5V99c0.2,3.4,2.9,6.2,7.1,6.4c0.6,0,1.1,0,1.7,0c36.5,0,72.9,0,109.4,0
		c1.1,0,2.3-0.1,3.4-0.3c3.1-0.6,5.2-3,5.4-6.1c0-0.8,0-1.6,0-2.4c0-17,0-34,0-51c0-0.9,0.1-1.7,0.1-2.9c0,0,0,0,0,0v-5.3
		c0-1.6,0-2.9,0-4.4v-6c-0.1-0.8-0.1-1.5-0.1-2.2c0-5.9,0-11.8,0-17.6c0-3.6-3.2-6.7-6.8-6.6c-3.4,0-6.9,0-10.3,0
		c-0.4,0-0.8,0-1.1,0.1c-1.2,0.3-2,1.4-2,2.6c0,1.3,0.9,2.2,2.2,2.4c0.6,0.1,1.1,0.1,1.7,0.1c2.6,0,5.1,0,7.7,0
		c3.1,0,3.4,0.3,3.4,3.4c0,29.1,0,58.3,0,87.4c0,3.2-0.2,3.4-3.4,3.4c-36.5,0-73.1,0-109.6,0c-0.5,0-1,0-1.5,0c-1.4-0.1-1.9-0.6-2-2
		c0-0.4,0-0.8,0-1.1c0-29.6,0-59.2,0-88.8c0-0.7,0-1.4,0-2.2c1.1-0.1,2-0.1,3-0.1c29.3,0,58.5,0,87.8,0c0.8,0,1.6,0,2.4-0.1
		c1.4-0.2,2.2-1.1,2.2-2.6c0-1.4-0.8-2.4-2.2-2.5c-0.3,0-0.6,0-0.8,0h0c-0.3,0-0.5,0-0.8,0c-6.2,0-12.4,0-18.6,0c-0.7,0-1.5,0-2.3,0
		c0,0,0,0,0,0H80.1c0,0,0,0,0,0c-1.5,0-2.6,0-3.7,0c-1.6,0-3.2,0-4.9,0c0,0-0.1,0-0.1,0H26.5v50C26.5,52.8,26.5,55.1,26.5,57.4z"/>
</g>
</svg>
