<svg xmlns="http://www.w3.org/2000/svg" width="75" height="75" fill="none" viewBox="0 0 75 75">
  <path fill="#FC0" d="M70.195 50.04h-2.109c-.117 0-.234.116-.352.116-.117 0-.351 0-.468-.117H47.109a3.651 3.651 0 0 0-3.632 3.633v17.695A3.651 3.651 0 0 0 47.109 75h23.086a3.651 3.651 0 0 0 3.633-3.633V53.672a3.651 3.651 0 0 0-3.633-3.633Zm-8.203 9.726-3.398-2.93-3.399 2.93c-.351.351-.82.351-1.289.234-.468-.234-.703-.586-.703-1.055V52.5c0-.703.586-1.172 1.172-1.172s1.172.586 1.172 1.172v3.75l2.226-1.875a1.408 1.408 0 0 1 1.641 0l2.227 1.875V52.5c0-.703.586-1.172 1.172-1.172.703 0 1.171.586 1.171 1.172v6.445c0 .47-.234.938-.703 1.055-.117.117-.351.117-.468.117-.235 0-.586-.117-.82-.351Zm8.086 12.773h-5.86c-.702 0-1.171-.586-1.171-1.172s.586-1.172 1.172-1.172h5.86c.702 0 1.171.586 1.171 1.172s-.469 1.172-1.172 1.172Zm0-3.75h-5.86c-.702 0-1.171-.586-1.171-1.172 0-.703.586-1.172 1.172-1.172h5.86c.702 0 1.171.586 1.171 1.172 0 .703-.469 1.172-1.172 1.172Z"/>
  <path fill="#FE0000" d="M3.281.586H2.93a1.67 1.67 0 0 0-1.406.703c-.118.234-.47.82-.235 1.64l1.407 4.454c.117.586.585.937 1.054 1.172l7.5 2.812 3.633 1.406H15l3.75 1.407 5.625-4.22c.586-.468 1.29-.35 1.758.235.352.586.352 1.29-.234 1.64l-5.04 3.868 12.422 14.063 15.47-15.47L3.28.587Zm7.149 13.008-2.813-1.055-.703.82c-.234.235-.468.704-.468 1.055 0 .469.117.82.468 1.055l.938.937c.586.586 1.64.586 2.226 0l2.227-2.226-1.875-.586Zm-1.875 26.25c-.352 0-.703.117-.938.351L5.86 41.953c-.352.352-.47.703-.352 1.172.117.469.352.82.82.938l11.016 3.984c1.875-3.047 3.984-5.86 5.508-7.734l-14.297-.47ZM73.242.469C72.774 0 72.07 0 71.485 0c-3.047 0-7.852 2.578-9.61 4.219l-35.742 35.86-.117.116c-1.758 1.758-4.922 6.094-7.266 10.078 0 0 0 .118-.117.118-1.289 2.226-2.344 4.218-2.813 5.742l7.97-7.969c.468-.469 1.288-.469 1.757 0 .469.469.469 1.29 0 1.758l-7.852 7.851c4.688-1.523 13.829-7.968 15.938-10.078l35.86-35.86c1.054-1.054 2.578-3.515 3.515-6.093.938-2.46 1.055-4.453.234-5.273Zm-2.93 8.086c-.234.351-.585.586-1.054.586-.234 0-.469 0-.586-.118-.586-.351-.82-1.054-.469-1.64.235-.469.235-1.172-.234-1.524-.469-.468-1.055-.468-1.523-.234-.586.352-1.29.117-1.641-.469-.352-.586-.117-1.289.469-1.64 1.406-.82 3.28-.586 4.453.586 1.172 1.171 1.406 2.93.586 4.453ZM33.165 51.328c-1.992 1.524-4.687 3.516-7.5 5.156l4.102 10.899c.117.469.469.703.937.82.47.117.82 0 1.172-.351l1.758-1.758c.234-.235.352-.586.352-.938l-.82-13.828Zm26.25-26.016-15.468 15.47 7.734 6.913h14.297l-6.563-22.383Z"/>
</svg>
