<svg xmlns="http://www.w3.org/2000/svg" width="75" height="75" fill="none" viewBox="0 0 75 75">
  <g clip-path="url(#a)">
    <path fill="#FE0000" d="M11.618 64.379a5.314 5.314 0 0 0-5.305 5.31c0 2.929 2.38 5.31 5.305 5.31a5.314 5.314 0 0 0 5.305-5.31c0-2.928-2.38-5.31-5.305-5.31Zm51.032 0a5.314 5.314 0 0 0-5.306 5.31c0 2.928 2.38 5.31 5.305 5.31a5.314 5.314 0 0 0 5.305-5.31c0-2.928-2.38-5.31-5.305-5.31Z"/>
    <path fill="#FE0000" d="M62.65 59.623c4.747 0 8.738 3.307 9.79 7.741h2.377c.1 0 .183-.083.183-.185V56.91a1 1 0 0 0-1-1H29.143a1 1 0 0 0-1 1v9.454a1 1 0 0 0 1 1h23.716c1.051-4.434 5.042-7.741 9.79-7.741ZM75 51.154v-34.83a.184.184 0 0 0-.183-.185h-5.055c-.758 5.171-3.685 9.744-8.14 12.616l-7.765 14.277c-.88 1.618-3.297 1.619-4.178 0l-7.765-14.277c-4.455-2.872-7.382-7.445-8.14-12.616h-5.449c-.1 0-.182.083-.182.185v34.83H75ZM14.754 34.496a.946.946 0 0 0-.521.15C12.571 35.721 2.58 42.405 0 49.362c-2.42 6.524 0 17.817 0 17.817 0 .102.082.185.183.185h1.644c1.052-4.434 5.042-7.741 9.79-7.741 4.749 0 8.74 3.307 9.79 7.741h1.98V35.496a1 1 0 0 0-1-1h-7.633Zm4.369 14.112a2.378 2.378 0 0 1-2.378 2.378H6.666V46.23h7.7v-7.575h4.757v9.953Z"/>
    <path fill="#FC0" d="M51.768 0C44.36 0 38.333 6.034 38.333 13.451c0 4.72 2.523 9.155 6.585 11.571.367.219.669.532.873.908l5.977 10.989 5.977-10.99a2.38 2.38 0 0 1 .874-.907 13.528 13.528 0 0 0 6.585-11.57C65.204 6.033 59.176 0 51.768 0Zm0 22.238c-4.74 0-8.598-3.86-8.598-8.604s3.857-8.603 8.598-8.603c4.74 0 8.598 3.86 8.598 8.603 0 4.744-3.857 8.604-8.598 8.604Z"/>
    <path fill="#FC0" d="M51.768 9.787a3.849 3.849 0 0 0 0 7.695 3.849 3.849 0 0 0 0-7.695Z"/>
  </g>
  <defs>
    <clipPath id="a">
      <path fill="#fff" d="M0 0h75v75H0z"/>
    </clipPath>
  </defs>
</svg>
