<?xml version="1.0" encoding="UTF-8"?>
<!DOCTYPE svg PUBLIC "-//W3C//DTD SVG 1.1//EN" "http://www.w3.org/Graphics/SVG/1.1/DTD/svg11.dtd">
<!-- Creator: CorelDRAW 2021 (64-Bit) -->
<svg xmlns="http://www.w3.org/2000/svg" xml:space="preserve" width="8.5in" height="11in" version="1.1" style="shape-rendering:geometricPrecision; text-rendering:geometricPrecision; image-rendering:optimizeQuality; fill-rule:evenodd; clip-rule:evenodd"
viewBox="0 0 8500 11000"
 xmlns:xlink="http://www.w3.org/1999/xlink"
 xmlns:xodm="http://www.corel.com/coreldraw/odm/2003">
 <defs>
  <style type="text/css">
   <![CDATA[
    .fil40 {fill:none}
    .fil39 {fill:blue;fill-rule:nonzero}
    .fil18 {fill:#2B1710;fill-rule:nonzero}
    .fil26 {fill:#433129;fill-rule:nonzero}
    .fil28 {fill:#5D6ACF;fill-rule:nonzero}
    .fil34 {fill:#693E2F;fill-rule:nonzero}
    .fil25 {fill:#7D2727;fill-rule:nonzero}
    .fil21 {fill:#99715F;fill-rule:nonzero}
    .fil13 {fill:#A3B8F2;fill-rule:nonzero}
    .fil20 {fill:#A9897A;fill-rule:nonzero}
    .fil10 {fill:#B9B9B9;fill-rule:nonzero}
    .fil33 {fill:#BED1EB;fill-rule:nonzero}
    .fil5 {fill:#BFBFD9;fill-rule:nonzero}
    .fil37 {fill:#D1D1D1;fill-rule:nonzero}
    .fil9 {fill:lightgrey;fill-rule:nonzero}
    .fil27 {fill:#D4D4D4;fill-rule:nonzero}
    .fil7 {fill:#D8D8D8;fill-rule:nonzero}
    .fil1 {fill:#DEDEDE;fill-rule:nonzero}
    .fil22 {fill:#E0B3A8;fill-rule:nonzero}
    .fil35 {fill:#E0C9C0;fill-rule:nonzero}
    .fil8 {fill:#E9E9E9;fill-rule:nonzero}
    .fil14 {fill:#F0CFCF;fill-rule:nonzero}
    .fil30 {fill:#F79D5E;fill-rule:nonzero}
    .fil16 {fill:#F99B9B;fill-rule:nonzero}
    .fil17 {fill:#FB9696;fill-rule:nonzero}
    .fil6 {fill:#FF6600;fill-rule:nonzero}
    .fil24 {fill:#FF7E57;fill-rule:nonzero}
    .fil19 {fill:#FF8762;fill-rule:nonzero}
    .fil15 {fill:#FF9F9F;fill-rule:nonzero}
    .fil29 {fill:#FFB17B;fill-rule:nonzero}
    .fil38 {fill:#FFCC00;fill-rule:nonzero}
    .fil32 {fill:#FFCEB3;fill-rule:nonzero}
    .fil31 {fill:#FFD9BF;fill-rule:nonzero}
    .fil12 {fill:white;fill-rule:nonzero}
    .fil4 {fill:url(#id1);fill-rule:nonzero}
    .fil3 {fill:url(#id2);fill-rule:nonzero}
    .fil11 {fill:url(#id3);fill-rule:nonzero}
    .fil0 {fill:url(#id4);fill-rule:nonzero}
    .fil36 {fill:url(#id5);fill-rule:nonzero}
    .fil23 {fill:url(#id6);fill-rule:nonzero}
    .fil2 {fill:url(#id7);fill-rule:nonzero}
   ]]>
  </style>
   <clipPath id="id0">
    <path d="M333.33 3166.67l7833.33 0 0 4666.67 -7833.33 0 0 -4666.67z"/>
   </clipPath>
  <linearGradient id="id1" gradientUnits="userSpaceOnUse" x1="164479.17" y1="682592.1" x2="167187.5" y2="431238.07">
   <stop offset="0" style="stop-opacity:1; stop-color:#F9F9F9"/>
   <stop offset="1" style="stop-opacity:1; stop-color:#FBF0F0"/>
  </linearGradient>
  <linearGradient id="id2" gradientUnits="userSpaceOnUse" xlink:href="#id1" x1="355452.84" y1="3299828.44" x2="380895.58" y2="2074126.35">
  </linearGradient>
  <linearGradient id="id3" gradientUnits="userSpaceOnUse" x1="2899137.31" y1="2445453.15" x2="2871850.14" y2="990078.13">
   <stop offset="0" style="stop-opacity:1; stop-color:#C4D4FF"/>
   <stop offset="1" style="stop-opacity:1; stop-color:white"/>
  </linearGradient>
  <linearGradient id="id4" gradientUnits="userSpaceOnUse" xlink:href="#id1" x1="283927.83" y1="2673049.28" x2="304544.41" y2="1680708.5">
  </linearGradient>
  <linearGradient id="id5" gradientUnits="userSpaceOnUse" x1="29540.34" y1="31859.37" x2="29384.91" y2="31713.54">
   <stop offset="0" style="stop-opacity:1; stop-color:#FF6B3D"/>
   <stop offset="1" style="stop-opacity:1; stop-color:#FF8762"/>
  </linearGradient>
  <linearGradient id="id6" gradientUnits="userSpaceOnUse" x1="39770.83" y1="15786.46" x2="39729.17" y2="15723.96">
   <stop offset="0" style="stop-opacity:1; stop-color:#FF8762"/>
   <stop offset="1" style="stop-opacity:1; stop-color:#FF5C47"/>
  </linearGradient>
  <linearGradient id="id7" gradientUnits="userSpaceOnUse" xlink:href="#id1" x1="300182.35" y1="1283162.19" x2="305294.35" y2="808135.8">
  </linearGradient>
 </defs>
 <g id="Layer_x0020_1">
  <metadata id="CorelCorpID_0Corel-Layer"/>
  <g>
  </g>
  <g style="clip-path:url(#id0)">
   <g>
    <path class="fil0" d="M847.46 5698.05c44.06,-48.22 116.95,-63.75 177.21,-30.74 62.52,34.63 112.08,94.5 159.71,132.69 -2.11,16.3 -3.99,33.15 -5.2,49.56 -11.67,133.98 -1.61,276.37 54.75,345.31 1.73,1.94 3.35,3.89 4.87,5.82 69.98,86.08 75.16,212.95 53.45,355.01 0.66,3.89 1.08,7.77 1.3,11.66 -27.87,146.93 -21.39,337.54 86.17,457.28 8.85,9.71 17.5,18.77 25.92,27.19 70.63,78.31 33.05,144.33 -1.29,274.43 -32.07,117.8 -60.91,246.93 -61.23,387.71l-1.29 -0.65c-111.13,-70.23 61.87,-119.42 -90.39,-230.75 -34.02,-24.59 -63.18,-50.16 -87.47,-76.37 -85.52,-92.23 -115,-194.18 -102.05,-306.47 16.2,-144.01 86.5,-168.61 -45.35,-288.03 -131.85,-119.42 -218.34,-284.13 -177.21,-395.15 41.15,-111 82.29,-218.13 20.42,-341.74 -50.21,-100.33 -94.92,-206.16 -38.87,-335.28 6.59,-15.14 15.61,-29.17 26.58,-41.47l-0.02 -0zm336.92 101.95c3.02,2.58 6.16,5.07 9.4,7.44 82.29,61.49 103.02,28.8 209.93,139.81 12.13,12.74 22.87,26.9 31.76,42.07 72.56,121.68 67.37,319.42 166.19,344.98 111.11,28.8 185.3,164.41 201.82,324.92 16.52,160.52 -20.73,362.46 131.85,444.67 152.58,82.2 28.83,288.02 -78.4,621.68 0,0 -400.74,57.28 -513.8,-11.65 0.32,-140.78 29.17,-269.91 61.23,-387.71 34.34,-130.09 71.92,-196.11 1.29,-274.43 -8.84,-8.82 -17.53,-18.01 -25.92,-27.2 -107.55,-119.74 -114.03,-310.35 -86.17,-457.28 -0.2,-3.88 -0.67,-7.81 -1.31,-11.65 21.71,-142.06 16.53,-268.93 -53.45,-355.01 -1.51,-1.94 -3.13,-3.89 -4.87,-5.82 -56.37,-68.94 -66.41,-211.33 -54.74,-345.31 1.22,-16.43 3.09,-33.17 5.18,-49.48l0 -0.03z"/>
    <path class="fil1" d="M1714.7 7035.6l-65.11 190.61c55.4,270.87 54.75,443.69 54.75,445.95 0,4.21 -3.56,7.77 -8.1,7.77 -4.21,0 -7.77,-3.56 -7.77,-8.09 0,-1.94 0.65,-173.13 -54.1,-441.43 -0.65,-1.61 -1.29,-3.23 -0.97,-5.18 -9.43,-46.33 -20.27,-93.43 -31.57,-139.59 -16.52,-64.72 -36.28,-136.25 -61.23,-212.95 -0.93,0.33 -1.71,0.44 -2.49,0.44 -0.09,0 -0.19,-0 -0.28,-0l-1.62 0 -210.25 -49.51c-3.53,-0.83 -6.03,-3.98 -6.03,-7.61 0,-0.6 0.07,-1.19 0.2,-1.78 0.69,-3.68 3.91,-6.34 7.65,-6.34 0.59,0 1.17,0.07 1.75,0.2l205.71 48.54c-66.08,-203.24 -164.56,-443.37 -310.02,-698.39l-0.33 0 -156.48 -49.51c-3.28,-0.94 -5.54,-3.94 -5.54,-7.36 0,-0.8 0.13,-1.59 0.37,-2.35 1.06,-3.31 4.14,-5.56 7.62,-5.56 0.82,0 1.64,0.13 2.43,0.38l140.27 44.33c-73.93,-128.32 -156.36,-252.7 -244.52,-371.35 -1.07,-1.52 -1.63,-3.18 -1.63,-4.88 0,-2.49 1.19,-4.83 3.2,-6.29 1.35,-1.03 3.01,-1.59 4.71,-1.59 2.49,0 4.83,1.19 6.3,3.2 144.06,193.62 270.7,401.23 376.15,618.26l61.87 -180.91c0.94,-3 3.89,-5.19 7.23,-5.19 0.95,0 1.9,0.18 2.78,0.53 3.89,1.29 6.16,5.82 4.85,10.03l-66.08 193.21c-0.19,0.8 -0.52,1.56 -0.97,2.26 126.67,264.41 203.44,502.92 249.45,687.05 9.93,39.27 18.78,77.03 26.56,113.27l56.37 -165.37c0.97,-3.19 3.93,-5.37 7.26,-5.37 0.95,0 1.89,0.18 2.77,0.52 3.9,1.3 6.16,5.83 4.87,10.04l-0.02 -0z"/>
    <path class="fil2" d="M336.56 6849.83c9.08,-38.19 42.77,-67.63 84.24,-67.63 45.68,-0.32 92,19.09 129.58,24.27 61.55,8.42 62.84,-14.89 151.61,12.63 10.04,2.92 19.44,7.45 28.83,12.95 73.85,43.04 128.6,148.22 188.22,133.01 66.73,-17.16 145.46,32.69 200.85,112.29 55.73,79.94 94.92,196.77 199.23,195.79 104.32,-0.97 149.68,232.37 190.81,438.84 0,0 -246.53,58.9 -325.57,54.69 -14.26,-0.97 -23.33,-4.21 -29.48,-8.74 -27.87,-21.68 6.8,-74.76 -85.21,-86.41 -112.73,-13.92 -178.18,-65.7 -211.54,-146.28 -33.37,-80.58 -3.56,-113.92 -107.87,-138.51 -104.32,-24.27 -197.95,-85.76 -208.63,-156.31 -10.69,-70.54 -20.42,-138.83 -88.76,-185.76 -55.73,-38.52 -110.48,-81.24 -118.57,-165.37 -0.97,-10.04 0,-20.07 2.27,-29.46l-0.01 0z"/>
    <path class="fil1" d="M1361.25 7645.96c-2.26,1.29 -5.18,0.32 -6.47,-1.95 -0.66,-1.29 -68.37,-124.59 -216.73,-283.17 -30.11,-32.44 -61.96,-64.28 -94.26,-94.56 -0.22,0.48 -0.57,0.82 -0.99,1.02 -0.4,0.21 -0.84,0.32 -1.29,0.33l-125.06 35.28c-2.26,0.65 -4.85,-0.66 -5.83,-3.24 -0.08,-0.37 -0.13,-0.75 -0.13,-1.13 0,-2.23 1.54,-4.18 3.71,-4.69l122.13 -34.63c-112.21,-104.21 -235.94,-197.7 -367.1,-276.89l-96.87 19.42c-2.58,0.65 -4.85,-0.97 -5.5,-3.55 -0.65,-2.59 1.3,-5.19 3.89,-5.83l86.82 -17.47c-76.38,-45.81 -156.01,-87.65 -237.09,-124.27 -2.59,-0.98 -3.56,-3.89 -2.59,-6.16 1.3,-2.58 3.89,-3.56 6.48,-2.26 132.11,59.5 259.7,132.28 378.44,215.63l-20.42 -113.27c-0.07,-0.12 -0.08,-0.33 -0.08,-0.54 0,-2.35 1.64,-4.38 3.94,-4.87 2.59,-0.32 5.19,1.29 5.51,3.89l21.7 121.03c0.22,0.44 0.22,0.98 0,1.63 143.84,102.26 253.67,205.18 331.74,288.67 149.34,159.55 217.37,283.82 218.02,285.11 1.3,2.27 0.32,5.18 -1.94,6.48l-0.02 0z"/>
    <path class="fil3" d="M7566.37 5262.13c69,159.22 13.93,289.65 -47.95,413.27 -76.13,152.1 -25.27,283.81 25.27,420.71 50.85,136.9 -55.73,339.8 -218.03,486.73 -162.63,146.93 -76.13,177.35 -56.04,354.7 15.87,138.19 -20.41,263.75 -125.7,377.34 -30.13,32.37 -65.76,63.75 -107.55,94.18 -187.9,136.9 25.27,197.73 -111.77,283.81 -0.45,0.45 -1.01,0.79 -1.62,0.98 -0.32,-173.15 -35.63,-332.37 -75.16,-477.35 -42.45,-160.19 -88.77,-241.42 -1.63,-337.87 10.59,-10.84 21.63,-22.49 32.07,-33.73 132.18,-147.57 140.59,-382.2 105.94,-563.1 0.43,-4.75 0.97,-9.49 1.61,-14.24 -26.56,-175.08 -20.41,-331.39 65.77,-437.54 2.16,-2.16 4.21,-4.42 6.15,-6.79 69.33,-85.11 81.97,-260.52 67.39,-425.57 -1.54,-20.05 -3.71,-40.39 -6.45,-60.39 58.63,-47.57 119.54,-121.04 196.65,-163.44 74.19,-41.09 163.93,-21.68 218.34,37.54 13.65,14.89 24.75,32.14 32.7,50.76l0.01 0zm-473.97 84.78c14.58,165.05 1.95,340.46 -67.39,425.57 -1.92,2.35 -3.99,4.63 -6.15,6.79 -86.18,106.16 -92.33,262.46 -65.77,437.54 -0.63,4.68 -1.2,9.52 -1.63,14.25 34.66,180.91 26.24,415.53 -105.94,563.1 -10.43,11.15 -21.47,22.8 -32.11,33.64 -87.15,96.45 -40.82,177.68 1.63,337.87 39.52,144.99 74.83,304.21 75.16,477.35 -138.98,84.78 -632.7,14.24 -632.7,14.24 -131.84,-410.37 -284.11,-664.08 -96.21,-765.37 187.57,-101.29 141.89,-349.84 162.3,-547.57 20.08,-197.74 111.44,-364.73 248.47,-400.32 121.81,-31.4 115.33,-274.76 204.75,-424.59 11.33,-19.09 23.97,-36.57 38.87,-52.1 131.84,-136.57 157.44,-96.11 258.84,-172.17 3.89,-2.81 7.67,-5.72 11.33,-8.74 2.81,20.04 4.98,40.38 6.47,60.49l0.06 0.02z"/>
    <path class="fil1" d="M6471.71 6845.96c5.19,-1.63 10.7,0.97 12.31,6.15l69.66 203.89c9.74,-46.58 20.83,-93.92 32.35,-139.98 56.69,-226.54 151.28,-520.4 307.44,-845.96 -0.67,-0.57 -1.22,-1.45 -1.58,-2.42l-80.99 -238.19c-0.4,-1.06 -0.6,-2.18 -0.6,-3.31 0,-4.06 2.59,-7.67 6.43,-8.98 1.07,-0.4 2.19,-0.6 3.33,-0.6 4.06,0 7.67,2.58 8.99,6.42l76.13 222.98c117.27,-241.43 268.56,-500 463.26,-761.49 3.24,-4.53 9.4,-5.18 13.61,-2.27 4.21,3.24 5.18,9.39 1.94,13.59 -108.61,146.5 -210.07,300.43 -301.03,457.87l173 -54.69c0.58,-0.49 1.44,-0.6 2.31,-0.6 5.43,0 9.83,4.41 9.83,9.83 0,4.17 -2.64,7.89 -6.57,9.28l-192.75 60.52 -0.32 0.32c-179.16,313.91 -300.31,609.71 -381.95,859.87l253.33 -59.54c0.74,-0.18 1.51,-0.28 2.28,-0.28 4.46,0 8.34,3.06 9.39,7.39 1.29,5.18 -1.95,10.68 -7.13,11.66l-258.84 60.83c-0.74,0.2 -1.51,0.31 -2.28,0.31 -1.11,0 -2.2,-0.22 -3.22,-0.63 -30.13,94.82 -55.07,182.85 -74.83,262.46 -14.07,55.91 -28.24,115.24 -39.79,171.93 0.34,0.45 0.39,0.98 0.39,1.52 0,1.58 -0.38,3.15 -1.09,4.55 -67.71,330.42 -66.74,541.43 -66.74,543.69 0,5.5 -4.21,10.03 -9.72,10.03 -5.3,-0.13 -9.58,-4.41 -9.72,-9.71 0,-2.59 -0.97,-215.53 67.06,-549.19l-80.02 -234.63c-1.61,-5.18 1.3,-10.68 6.16,-12.61l0 0z"/>
    <path class="fil4" d="M5731.47 7258.25c4.85,-20.06 22.68,-35.92 44.7,-35.92 24.3,0 48.93,10.35 68.69,12.94 32.4,4.53 33.04,-7.76 80.01,6.8 5.45,1.53 10.71,3.82 15.55,6.78 38.87,22.66 68.03,78.65 99.46,70.55 35.31,-9.06 77.1,17.16 106.26,59.55 29.48,42.06 50.21,103.87 105.6,103.23 55.07,-0.32 79.37,122.98 100.76,232.37 0,0 -130.24,31.4 -172.03,28.8 -7.77,-0.32 -12.63,-1.94 -15.87,-4.53 -14.57,-11.32 3.9,-39.48 -45.02,-45.63 -59.61,-7.45 -94.28,-34.63 -111.77,-77.35 -17.82,-42.72 -1.95,-60.51 -57.34,-73.46 -55.07,-12.95 -104.63,-45.31 -110.47,-82.52 -5.51,-37.54 -10.69,-73.79 -46.97,-98.39 -29.48,-20.39 -58.31,-43.04 -62.53,-87.7 -0.22,-1.72 -0.33,-3.47 -0.33,-5.21 0,-3.48 0.44,-6.96 1.31,-10.33l0 0.01z"/>
    <path class="fil1" d="M6274.09 7679.61c-1.29,0.65 -2.92,0.32 -3.56,-0.97 -0.32,-0.66 -36.28,-66.02 -114.68,-149.84 -16.09,-17.14 -32.92,-34.11 -49.89,-50.2l-0.65 0.65c-0.22,0 -0.43,0.1 -0.65,0.32l-66.09 18.45c-1.29,0.32 -2.58,-0.32 -2.91,-1.63 -0.66,-1.29 0.32,-2.91 1.61,-3.23l64.79 -18.13c-59.56,-55.17 -125.01,-104.44 -194.43,-146.5l-51.19 10.35c-1.29,0 -2.59,-0.65 -2.92,-2.26 -0.32,-1.3 0.66,-2.59 1.95,-2.92l46 -9.06c-40.43,-24.2 -82.52,-46.6 -125.58,-66.14 -1.29,-0.32 -1.61,-1.94 -1.29,-3.23 0.65,-1.3 2.27,-1.95 3.56,-1.3 76.78,34.96 143.51,74.44 200.21,114.56l-10.69 -60.19c-0.33,-1.29 0.65,-2.59 1.94,-2.92 1.3,0 2.59,0.65 2.92,2.27l11.67 64.07 0 0.65c63.28,44.99 122.38,96.44 175.53,153.14 78.72,84.47 115,150.17 115.33,150.81 0.65,0.97 0,2.59 -0.98,3.24l-0.02 0z"/>
    <path class="fil5" d="M6378.42 4795.47c0.19,0 0.4,0 0.6,0 19.3,0 34.96,-15.65 34.96,-34.96 0,-19.3 -15.65,-34.96 -34.96,-34.96 -0.2,0 -0.41,0 -0.6,0 -0,0 -0.01,0 -0.01,0 -19.31,0 -34.97,15.65 -34.98,34.96 0.01,19.3 15.67,34.94 34.97,34.94 0,0 0.02,0 0.02,0l0 0zm128.93 -34.95c0,0 0.02,0 0.02,0 19.3,0 34.96,-15.65 34.97,-34.95 -0.01,-19.3 -15.67,-34.96 -34.98,-34.96 0,0 -0.01,0 -0.01,0 -0,0 -0.01,0 -0.01,0 -19.31,0 -34.97,15.65 -34.98,34.96 0.01,19.3 15.67,34.94 34.97,34.94 0,0 0.02,0 0.02,0l0 0zm128.61 -34.94c0,-0 0.02,-0 0.02,-0 19.3,0 34.96,-15.65 34.97,-34.95 -0.01,-19.3 -15.67,-34.96 -34.98,-34.96 0,0 -0.01,0 -0.01,0 -0,0 -0.01,0 -0.01,0 -19.31,0 -34.97,15.65 -34.98,34.96 0.01,19.3 15.67,34.94 34.97,34.94 0,0 0.02,0 0.02,0l0 0zm128.61 -34.95c0,0 0.01,0 0.02,0 19.3,0 34.96,-15.65 34.97,-34.95 -0,-19.31 -15.67,-34.96 -34.98,-34.96 0,0 -0.01,0 -0.01,0 -0.01,0 -0.02,0 -0.02,0 -19.31,0 -34.97,15.65 -34.98,34.96 0.01,19.3 15.67,34.95 34.97,34.95 0,0 0.02,0 0.02,0l0 0zm-526.11 128.48c0.28,0.01 0.57,0.01 0.85,0.01 19.3,0 34.96,-15.65 34.96,-34.96 0,-19.3 -15.65,-34.96 -34.96,-34.96 -0.28,0 -0.57,0 -0.85,0.01 -0,0 -0.02,0 -0.02,0 -19.3,0 -34.96,15.65 -34.97,34.95 0.01,19.3 15.67,34.94 34.97,34.94 0,0 0.02,0 0.02,0l0 0zm128.93 -34.94c0,0 0.01,0 0.02,0 19.3,0 34.96,-15.65 34.97,-34.95 -0.01,-19.3 -15.67,-34.95 -34.97,-34.95 -0,0 -0.02,0 -0.02,0 -0,0 -0.02,0 -0.02,0 -19.3,0 -34.96,15.65 -34.97,34.95 0.01,19.3 15.67,34.95 34.97,34.95 0,0 0.02,0 0.02,0l0 0zm128.61 -34.95c0,0 0.01,0 0.02,0 19.3,0 34.96,-15.65 34.97,-34.95 -0.01,-19.3 -15.67,-34.95 -34.97,-34.95 -0,0 -0.02,0 -0.02,0 -0,0 -0.02,0 -0.02,0 -19.3,0 -34.96,15.65 -34.97,34.95 0.01,19.3 15.67,34.95 34.97,34.95 0,0 0.02,0 0.02,0l0 0zm128.6 -34.95c0,0 0.02,0 0.02,0 19.3,0 34.96,-15.65 34.97,-34.95 -0.01,-19.3 -15.67,-34.94 -34.97,-34.94 -0,0 -0.02,0 -0.02,0 -0.01,0 -0.02,0 -0.02,0 -19.3,0 -34.96,15.65 -34.97,34.95 0.01,19.3 15.67,34.94 34.97,34.94 0,0 0.02,0 0.02,0l0 0z"/>
    <polygon class="fil6" points="6639.2,4019.09 6274.42,4019.09 6450.66,3664.72 6639.2,4019.09 "/>
    <path class="fil5" d="M5241.63 4075.73l50.87 50.81 -35.31 35.27 -50.87 -50.81 -50.85 50.81 -35.31 -35.27 50.85 -50.81 -50.85 -50.81 35.31 -35.27 50.85 50.8 50.87 -50.8 35.31 35.27 -50.87 50.81zm-3221.12 57.28l50.87 50.81 -35.31 35.27 -50.87 -50.81 -50.85 50.81 -35.31 -35.27 50.85 -50.81 -50.85 -50.81 35.31 -35.59 50.85 50.81 50.87 -50.81 35.31 35.59 -50.87 50.81zm1955.74 -249.85c69.06,0 125.05,-55.93 125.05,-124.92 0,-68.99 -55.99,-124.92 -125.05,-124.92 -69.06,0 -125.04,55.94 -125.04,124.92 0,68.99 55.98,124.92 125.04,124.92z"/>
    <path class="fil6" d="M1453.26 4869.91l26.89 82.84c1.63,4.83 6.16,8.09 11.26,8.09 0.03,0 0.06,0 0.09,0l87.14 0c11.66,0 16.2,14.89 7.13,21.68l-70.63 51.13c-4.21,2.92 -6.16,8.42 -4.53,13.27l27.21 82.84c3.56,11.01 -9.07,20.07 -18.47,13.27l-70.61 -51.13c-2.04,-1.42 -4.48,-2.18 -6.96,-2.18 -2.49,0 -4.93,0.76 -6.97,2.18l-70.63 51.13c-9.39,6.8 -21.7,-2.26 -18.13,-13.27l26.89 -82.84c0.36,-1.17 0.55,-2.39 0.55,-3.62 0,-3.78 -1.76,-7.35 -4.76,-9.65l-70.63 -51.13c-9.4,-6.79 -4.53,-21.68 6.8,-21.68l87.47 -0c5.1,-0.06 9.63,-3.29 11.35,-8.09l26.89 -82.84c3.56,-11.01 19.11,-11.01 22.68,0l-0 -0z"/>
    <path class="fil7" d="M5279.87 7601.29c-0,0.1 -0,0.21 -0,0.31 0,21.63 -17.54,39.17 -39.17,39.17 -0.01,0 -0.02,0 -0.03,0l-897.36 0.01 -249.45 -31.71 -56.69 -71.84c-15.34,-34.31 -23.01,-57.4 -23.01,-69.26 0,-12.08 59.07,-131.18 177.21,-357.28l869.51 -23.3 -19.76 53.4c4.85,0 9.72,0.98 14.57,3.24 19.76,8.42 29.16,31.72 20.41,51.78l-120.19 277.34c-8.74,20.06 -6.8,42.07 5.19,60.2 11.99,18.13 31.43,28.8 53.13,28.8l226.44 -0c0.02,0 0.06,0 0.09,0 21.59,0 39.1,17.51 39.1,39.1 0,0.02 0,0.04 0,0.05l0.01 0z"/>
    <path class="fil8" d="M5279.87 7601.29c-0,0.1 -0,0.21 -0,0.31 0,21.63 -17.54,39.18 -39.18,39.18 -0,0 -0.02,0 -0.02,0l-897.36 0 -2.27 -0.33c0.65,-27.82 1.41,-53.93 2.27,-78.31l897.36 0c0.02,0 0.06,0 0.09,0 21.59,0 39.1,17.51 39.1,39.1 0,0.02 0,0.04 0,0.05l0.01 0z"/>
    <path class="fil9" d="M4343.3 7640.77l-226.45 0c-0.09,-0 -0.19,-0 -0.28,-0 -47.81,0 -92.41,-24.1 -118.61,-64.07 -26.56,-40.13 -30.77,-90.61 -11.67,-134.95l120.2 -277.35c6.18,-14.39 20.35,-23.72 36.02,-23.72 5.44,0 10.84,1.14 15.81,3.33 20.08,8.42 29.16,31.72 20.41,51.78l-120.19 277.34c-8.75,20.06 -6.8,42.07 5.18,60.2 11.99,18.13 31.43,28.8 53.13,28.8l226.45 0.01c21.7,0 39.52,17.48 39.52,39.16 -0,0 -0,0.02 -0,0.03 0,21.78 -17.67,39.45 -39.45,39.45 -0.02,0 -0.05,0 -0.07,0l0 0z"/>
    <path class="fil10" d="M6149.05 7203.24l-3317.67 0c-122.46,0 -227.09,-88.35 -247.51,-208.74l-386.8 -2279.29c-17.17,-101.94 61.23,-194.82 164.57,-194.82l3317.66 0c122.45,0 227.09,88.35 247.5,208.74l386.81 2279.29c17.17,101.94 -61.23,194.82 -164.57,194.82l0 0z"/>
    <path class="fil9" d="M6257.57 7203.24l-3317.67 0c-122.46,0 -227.09,-88.35 -247.5,-208.74l-386.81 -2279.29c-17.17,-101.94 61.23,-194.82 164.57,-194.82l3317.67 0c122.46,0 227.09,88.35 247.5,208.74l386.81 2279.29c17.17,101.94 -61.23,194.82 -164.57,194.82l0 0z"/>
    <path class="fil8" d="M2939.91 7163.75c-103.67,0 -191.13,-74.1 -208.63,-176.05l-386.81 -2278.96c-6.16,-37.22 4.21,-75.08 28.51,-103.56 23.98,-28.7 59.5,-45.3 96.9,-45.3 0.09,0 0.2,0 0.29,0l3317.66 -0c103.67,0 191.13,74.1 208.63,176.05l386.81 2279.28c1.14,6.92 1.74,13.97 1.74,20.99 0,30.14 -10.74,59.3 -30.26,82.25 -24.05,28.7 -59.65,45.3 -97.12,45.3 -0.02,0 -0.05,0 -0.06,0l-3317.66 0z"/>
    <path class="fil11" d="M2403.1 4630.42c16.52,-19.74 41.15,-31.06 67.06,-31.06l188.54 0c-5.5,7.44 -9.72,15.85 -12.96,24.92 -4.59,11.85 -6.96,24.51 -6.96,37.23 0,5.08 0.38,10.17 1.12,15.19 93.3,689.54 186.6,1379.18 279.91,2068.94 2.27,18.11 4.53,35.92 6.16,54.04 0.97,9.71 2.59,19.09 4.53,28.16l-39.2 0c-75.16,0 -139.95,-47.57 -162.95,-116.51 -3.01,-8.62 -5.31,-17.52 -6.8,-26.52 -112.74,-660.84 -225.48,-1321.79 -338.22,-1982.85 -0.77,-4.76 -1.17,-9.57 -1.17,-14.39 0,-20.91 7.43,-41.18 20.93,-57.14zm235.85 40.46l3129.13 0c0.12,0 0.31,0 0.43,0 73.53,0 138.89,46.86 162.5,116.5 2.81,8.63 5.08,17.48 6.8,26.54 -2274028.73,388119.47 -2273653.55,389245.33 -2273653.55,389245.33 2273992.33,-387257.48 2273992.78,-387252.4 2273992.78,-387247.31 0,20.65 -7.37,40.63 -20.78,56.34 -16.71,19.7 -41.28,31.08 -67.13,31.08 -0.07,0 -0.17,0 -0.25,0l-3258.38 0c-2,-9.25 -3.56,-18.72 -4.54,-28.17 -1.63,-18.13 -3.89,-35.93 -6.16,-54.04 -93.3,-689.76 -186.6,-1379.4 -279.91,-2068.94 -0.74,-5.02 -1.12,-10.1 -1.12,-15.19 0,-12.72 2.37,-25.38 6.96,-37.24 3.24,-9.06 7.46,-17.48 12.96,-24.92l-19.76 0.01z"/>
    <path class="fil12" d="M4772.87 6974.44l-360.25 0c-0.02,-0 -0.04,-0 -0.06,-0 -18.39,0 -33.31,-14.92 -33.31,-33.31 0,-0 0,-0.02 0,-0.02 0,-18.45 14.91,-33.33 33.37,-33.33l360.25 0c0.02,-0 0.04,-0 0.06,-0 18.39,0 33.3,14.91 33.3,33.3 0,0.01 0,0.02 0,0.03 0,18.44 -14.91,33.33 -33.37,33.33l0 0z"/>
    <path class="fil13" d="M4881.4 6974.44l-3.24 0c-0.03,-0 -0.05,-0 -0.07,-0 -18.39,0 -33.3,-14.91 -33.3,-33.3 0,-0.01 0,-0.02 0,-0.03 0,-18.45 14.9,-33.33 33.37,-33.33l3.24 0.01c0.02,-0 0.04,-0 0.06,-0 18.39,0 33.3,14.91 33.3,33.3 0,0.01 0,0.02 0,0.03 0,18.44 -14.9,33.33 -33.37,33.33l0.01 0z"/>
    <path class="fil14" d="M5217.99 4733.33c47.3,2.59 32.4,39.8 64.79,111.98 32.4,72.17 102.05,17.47 139.63,47.24 37.26,30.1 99.46,39.81 144.49,30.1 44.71,-10.03 67.39,9.71 161.98,54.69 94.59,44.67 99.46,10.03 186.93,39.81 87.15,29.77 12.31,54.69 -7.78,87.05 -19.76,32.37 -54.75,24.92 -102.04,44.66 -47.3,20.06 -34.99,92.24 -44.71,142.07 -10.04,49.84 -57.34,29.77 -104.63,37.22 -31.53,4.96 -25.71,-19.96 17.49,-74.76l0 -62.13c0,-14.89 -39.84,-2.58 -47.63,7.45 -4.97,6.69 -19.87,16.72 -44.7,30.09l-22.35 -30.09 -37.58 -19.74c-49.68,28.04 -75.37,44.66 -77.1,49.83 -2.59,7.45 -7.45,49.51 -7.45,69.58 0,19.74 14.9,22.32 22.35,47.25 7.45,24.92 -14.91,52.1 -17.5,94.49 -2.26,42.4 -39.84,27.51 -57.33,27.51 -17.18,0 -59.61,0 -92.01,10.03 -32.4,9.71 -10.04,89.32 -2.59,126.87 7.46,37.22 -2.58,62.13 -54.74,87.05 -52.49,24.92 -62.21,24.92 -69.66,34.96 -7.45,9.71 -94.92,39.8 -114.68,22.32 -20.09,-17.47 -59.94,-22.32 -94.6,-32.37 -34.98,-10.03 -34.98,0 -72.24,67.32 -37.58,66.99 -22.68,19.74 -39.84,17.15 -17.5,-2.26 -15.23,-34.63 -15.23,-54.69 0,-19.74 -27.21,-17.48 -52.16,-34.63 -24.95,-17.47 -24.95,-30.09 -32.4,-37.53 -7.45,-7.45 -107.23,-57.28 -139.63,-19.75 -32.4,37.22 42.44,39.81 92.32,72.18 49.9,32.35 -39.84,37.21 -59.93,52.1 -19.76,14.89 -97.19,7.44 -97.19,-12.3 0,-20.06 -19.76,-54.7 -54.75,-84.79 -34.99,-29.77 -39.85,-32.37 -32.4,-64.72 7.45,-32.37 7.45,-24.93 -4.87,-47.25 -12.63,-22.33 -47.29,-17.48 -64.79,-39.81 -17.49,-22.32 27.22,-14.89 89.74,-17.47 62.2,-2.27 39.84,-27.19 34.67,-47.25 -4.87,-19.74 -27.22,-42.4 -44.71,-44.67 -17.49,-2.58 -45.03,42.07 -84.87,52.1 -39.85,10.03 -7.46,42.4 -24.95,74.76 -17.17,32.37 -19.76,-2.59 -29.8,-24.92 -10.04,-22.33 2.59,-34.96 2.59,-84.47 0,-33.23 -16.63,-30.75 -49.9,7.45 -18.35,28.04 -32.5,36.34 -42.44,24.92 -14.91,-17.48 -54.75,4.85 -64.79,14.89 -9.72,9.71 -59.6,49.51 -77.1,47.25 -17.49,-2.59 -74.83,-39.81 -67.39,-54.7 7.46,-15.21 57.34,4.85 84.89,-15.21 27.21,-19.74 -27.54,-52.1 -32.4,-77.02 -5.19,-24.92 42.44,-10.03 72.24,-47.25 29.8,-37.22 22.35,-24.92 49.89,-44.98 27.22,-19.75 52.16,2.58 72.25,22.65 19.76,19.74 57.33,-30.09 49.89,-62.46 -7.77,-32.37 2.27,-42.07 17.17,-84.47 14.91,-42.39 -32.4,-49.83 -44.7,-20.06 -12.63,30.1 2.58,69.91 -14.91,107.13 -17.49,37.22 -52.48,-22.33 -74.83,-27.19 -22.35,-5.18 -57.34,-40.13 -49.9,-77.34 7.46,-37.22 54.75,-67.31 67.39,-132.04 12.31,-64.4 74.83,-77.02 137.04,-79.61 62.2,-2.26 99.77,52.43 149.34,84.79 49.89,32.37 55.07,2.59 107.23,-47.25 52.48,-49.83 57.34,-17.47 102.04,-10.03 45.03,7.45 34.99,-22.33 62.53,-59.87 27.21,-37.22 59.6,-17.16 89.41,-37.22 30.13,-19.74 27.54,-57.28 49.9,-87.06 22.35,-29.77 79.69,-12.61 132.18,-14.89 52.16,-2.58 17.49,-57.28 67.37,-54.69 34.77,11.44 67.93,18.01 99.46,19.74l0.01 0.01zm-886.35 1030.74c11.34,11.33 126.67,33.67 162.3,74.76 35.63,41.43 53.46,86.08 69.33,125.24 15.87,39.17 53.45,60.84 87.13,74.44 33.7,13.59 15.87,61.81 -56.37,104.21 -71.92,42.07 -44.39,65.05 -48.92,107.13 -4.53,42.06 -103.67,171.84 -155.5,211.32 -51.83,39.48 -69.66,-4.85 -70.95,-85.11 -1.61,-80.26 -66.08,-84.79 -66.42,-129.77 0,-45.31 49.25,-62.46 17.5,-93.21 -31.75,-31.06 0,-162.78 -9.07,-171.2 -9.07,-8.74 -185.63,47.57 -249.45,13.27 -64.15,-34.3 18.79,-83.17 8.75,-154.37 -9.72,-70.87 68.03,-72.82 105.6,-96.13 37.58,-23.63 145.13,-22 172.68,3.24 14.69,3.24 25.8,8.63 33.37,16.18l0 0zm561.43 498.38c0,44.67 -17.5,59.55 -69.66,87.05 -52.48,27.19 4.87,-59.87 -17.49,-92.23 -22.35,-32.37 54.75,-53.72 62.2,-54.69 45.03,-4.85 24.95,14.89 24.95,59.87zm868.53 -151.13c24.63,81.89 45.03,86.09 122.78,171.85 78.07,86.08 -32.72,81.87 -36.93,176.05 -3.9,94.17 -40.82,167.96 -110.48,163.75 -69.65,-4.21 -77.75,-102.27 -135.08,-196.44 -57.67,-94.18 -176.24,12.29 -299.34,-24.6 -122.78,-36.89 -32.72,-73.78 -73.54,-143.37 -41.13,-69.57 57.34,-53.07 106.26,-134.95 49.24,-81.87 49.24,-44.98 217.37,-4.21 167.81,41.1 85.85,-57.28 110.48,-134.95 69.65,0 73.85,44.98 98.48,126.85zm-324.28 -252.75c-47.3,-7.44 -39.85,-27.5 -79.7,-39.8 -39.84,-12.63 2.59,-62.13 47.3,-72.17 154.52,14.89 79.69,119.42 32.4,111.97l-0 0zm72.24 -261.49c-49.89,0 -32.4,92.24 0,97.09 32.4,5.18 27.53,-97.09 0,-97.09zm194.37 246.61c0,37.87 72.24,69.58 47.3,29.78 -24.95,-39.81 -47.3,-49.84 -47.3,-29.78zm-1813.52 -1122c17.5,17.47 12.31,52.1 12.31,59.54 0,7.45 102.37,30.09 157.11,39.8 54.75,10.04 -37.25,55.02 -64.79,79.94 -27.53,24.59 -34.98,29.77 -34.98,106.8 0,77.34 22.68,87.05 -57.34,229.13 -79.7,141.75 2.59,91.91 -37.26,129.45 -39.84,37.22 -99.77,52.1 -114.68,74.44 -14.91,22.65 -17.17,77.34 -29.8,132.03 -12.31,54.7 -42.44,-32.35 -107.23,-146.93 -64.79,-114.56 37.57,-77.02 57.33,-111.97 20.09,-34.95 -102.04,-107.13 -112.08,-139.48 -10.04,-32.04 -42.44,-74.44 -116.95,-81.89 -74.83,-7.44 -34.99,-69.9 -27.54,-94.81 7.45,-24.6 92.33,-77.03 109.5,-116.83 17.49,-39.8 20.08,-74.76 59.93,-84.79 39.85,-9.71 92.33,-14.89 127,-62.13 34.99,-47.25 82.28,-44.66 134.76,-44.66 18.15,9.93 33.05,20.71 44.71,32.37l0 -0.01z"/>
    <path class="fil14" d="M4487.13 4728.8c0,-24.92 42.11,-32.37 49.57,-32.37 7.77,0 42.44,84.79 20.08,89.65 -22.35,5.18 -17.5,42.4 -14.91,49.84 2.59,7.44 24.95,59.87 0,57.28 -16.63,-1.73 -27.43,-11.66 -32.4,-29.78 -19.87,43.16 -37.37,63 -52.48,59.55 -22.35,-4.85 -17.17,-59.55 -22.35,-67.31 -4.87,-7.45 -39.84,-32.04 -10.04,-79.61 30.13,-47.25 22.68,-32.37 74.83,0 -8.07,-14.39 -12.31,-30.64 -12.31,-47.15 0,-0.02 0,-0.08 0,-0.11l0 0zm-1083.31 68.6c25.92,10.69 64.79,47.57 28.18,67 -36.93,19.42 -15.22,58.25 -49.89,95.15 -34.67,36.56 -64.79,99.34 -67.06,125.24 -2.26,25.89 -43.41,45.63 -60.57,36.9 -17.18,-8.74 -30.46,-38.84 -36.94,-15.22 -6.48,23.95 67.06,28.16 36.94,60.52 -30.46,32.37 -25.92,41.1 -56.37,30.42 -20.08,-7.33 -47.51,-5.18 -82.28,6.48 16.87,15.22 33.9,31.39 49.92,47.56 23.98,23.63 62.85,12.95 91.03,-15.21 27.87,-28.16 60.58,-30.43 80.02,12.94 19.44,43.37 88.76,56.31 97.19,84.47 8.75,27.83 -8.43,66.99 -10.69,73.47 -2.27,6.47 32.4,45.3 -4.22,45.3 -36.93,0 -60.57,6.47 -69.32,-19.42 -8.75,-25.89 -4.21,-95.15 -17.49,-99.35 -12.96,-4.53 -51.83,-4.53 -51.83,17.16 0,21.68 2.26,45.3 -10.7,54.04 -12.96,8.74 -6.48,12.95 -6.48,19.42 0,6.47 -36.93,4.21 -45.68,12.95 -8.42,8.74 -136.06,38.83 -41.13,82.2 95.24,43.37 88.76,79.94 103.99,90.94 15.22,10.68 56.37,68.94 49.89,10.68 -6.48,-58.25 -62.84,-103.87 -15.23,-123.29 47.63,-19.43 62.85,49.83 88.77,49.83 25.92,0 80.01,-21.69 84.23,25.89 4.53,47.57 -32.4,82.21 -38.87,88.68 -6.48,6.47 -23.66,34.63 -10.7,41.1 12.96,6.47 -19.44,30.09 -25.92,32.37 -6.48,2.26 -69.32,17.47 -80.33,36.89 -10.7,19.42 -27.87,-6.47 -40.82,64.73 -13.28,71.52 10.69,108.09 -11.01,92.87 -21.71,-14.89 2.26,-55.98 -58.31,-47.57 -60.58,8.74 -95.25,30.43 -38.87,60.52 56.04,30.42 99.45,60.84 105.93,65.05 6.48,4.21 28.19,56.31 54.1,51.78 25.92,-4.21 71.27,-25.9 86.5,-25.9 15.22,0 95.24,21.69 112.41,49.84 17.5,28.16 34.67,43.04 69.33,55.98 34.67,12.95 82.28,23.95 65.11,43.37 -17.49,19.43 -58.63,64.73 -47.63,95.15 10.7,30.1 1.95,34.63 -28.18,45.31 -30.46,11 -30.46,47.57 -45.35,77.99 -15.23,30.1 -47.63,43.04 -69.33,51.78 -21.71,8.74 -17.49,36.9 -34.67,62.78 -11.66,17.26 -27.53,47.47 -47.61,90.61l-17.5 52.1c-15.76,28.7 -27.21,38.73 -34.33,30.1 -11.02,-12.95 -32.72,-54.05 -36.94,-77.68 -4.21,-23.95 0,-69.25 8.75,-92.87 8.43,-23.95 36.6,-77.99 23.65,-114.89 -12.96,-36.57 -4.21,-77.68 -28.18,-121.04 -23.66,-43.04 -47.63,-71.2 -41.15,-99.35 6.48,-28.15 39.2,-75.72 30.45,-99.34 -8.74,-23.95 -15.22,-41.1 -30.45,-47.57 -14.91,-6.48 -51.83,-2.27 -71.27,-11.01 -19.44,-8.41 -82.28,-19.42 -103.99,-32.35 -21.39,-12.95 -56.05,-73.47 -62.53,-79.94 -6.48,-6.48 -26.24,-21.69 -43.41,-25.9 -17.17,-4.53 -80.02,-101.61 -80.02,-123.3 0,-21.68 6.48,-136.24 -8.74,-140.45 -15.23,-4.53 -101.73,-157.93 -145.13,-138.51 -43.08,19.42 -81.96,30.42 -86.5,38.83 -2.8,5.82 -21.49,21.69 -56.04,47.57 -15.98,-37.32 -24.73,-61.05 -26.24,-71.2 -1.3,-10.13 3.02,-25.24 12.96,-45.3l-19.44 -45.63 -1.95 -54.04 36.6 -68.94 78.08 -4.53 77.75 32.37 62.84 19.74 67.06 -26.21c50.53,21.79 83.69,34.08 99.45,36.89 23.98,4.21 95.25,10.69 97.52,-10.68 2.26,-21.68 -36.94,-101.61 -41.15,-108.42 -4.22,-6.47 -56.37,-19.42 -58.31,-36.56 -2.27,-17.48 -80.02,-51.78 -71.59,-73.47 8.74,-21.68 34.66,-52.1 47.61,-52.1 12.96,0 43.42,4.53 60.58,17.48 17.5,12.95 21.71,23.63 32.4,8.74 11.02,-15.21 15.23,-36.9 32.72,-39.16 17.18,-1.95 21.39,-75.41 30.13,-75.41 8.74,0 101.72,-151.46 112.73,-166.67 10.7,-15.21 56.05,-54.05 90.71,-43.04 22.68,6.93 44.01,17.93 62.83,32.38l-0 0z"/>
    <path class="fil12" d="M2955.46 4855.02c-4.85,0 -9.72,-2.27 -12.31,-6.8 -4.53,-6.79 -2.58,-15.85 4.54,-20.39 17.45,-10.83 35.98,-20.2 55.07,-27.82 7.45,-2.91 16.2,0.65 19.11,8.42 3.24,7.44 -0.66,16.18 -8.1,19.09 -18.47,7.44 -35.31,15.85 -50.21,25.24 -2.34,1.47 -5.06,2.26 -7.83,2.26 -0.09,0 -0.19,0 -0.28,0l-0 -0zm1237.21 687.04c-6.37,-0.05 -12.06,-4.05 -14.25,-10.04 -13.18,-39.22 -28.7,-78.08 -46.06,-115.8 -3.24,-7.45 0,-16.19 7.45,-19.42 2.02,-1.01 4.18,-1.51 6.37,-1.51 5.69,0 10.85,3.37 13.13,8.58 17.8,38.48 33.82,78.17 47.33,118.43 0.47,1.53 0.73,3.12 0.73,4.71 0,6.39 -4.1,12.06 -10.16,14.08 -1.51,0.65 -3.02,0.97 -4.53,0.97l-0.01 0zm-91.69 -248.22c-5.14,-0.08 -9.9,-2.76 -12.63,-7.11 -21.3,-35.34 -44.95,-70 -69.98,-102.87 -2.06,-2.63 -3.19,-5.84 -3.19,-9.15 0,-4.56 2.15,-8.86 5.79,-11.61 6.48,-4.85 15.87,-3.89 20.74,2.58 25.92,33.67 49.89,69.26 71.92,105.51 1.39,2.33 2.13,5 2.13,7.71 0,5.15 -2.64,9.93 -6.98,12.68 -2.31,1.47 -5,2.26 -7.74,2.26 -0.02,0 -0.03,0 -0.04,0l-0 0zm-145.77 -201.94c-3.89,0 -7.78,-1.29 -10.7,-4.2 -28.76,-29.74 -59.62,-57.99 -91.66,-84.15 -3.42,-2.87 -5.38,-7.1 -5.38,-11.55 0,-3.31 1.09,-6.53 3.09,-9.16 5.19,-6.48 14.58,-7.13 21.06,-2.27 32.84,27.04 64.47,56.06 94.22,86.39 5.83,5.82 5.51,15.21 -0.32,20.72 -2.92,2.91 -6.48,4.2 -10.37,4.2l0.05 0.02zm-278.94 -269.89c-2.58,0 -5.5,-0.97 -7.77,-2.26 -34.93,-22.2 -71.49,-42.73 -108.84,-60.88 -7.45,-3.56 -10.37,-12.3 -6.8,-19.74 2.53,-5.01 7.7,-8.2 13.35,-8.2 2.21,0 4.4,0.49 6.4,1.44 38.36,18.52 75.88,39.66 111.81,62.51 6.8,4.21 8.75,13.27 4.53,20.4 -2.92,4.21 -7.77,6.79 -12.63,6.79l-0.05 -0.06zm-330.44 -199.35c-1.51,0 -3.13,-0.32 -4.85,-0.97 -39.06,-13.38 -79.49,-24.54 -119.92,-32.97 -7.78,-1.61 -12.96,-9.71 -11.34,-17.48 1.42,-6.98 7.51,-11.98 14.59,-11.98 1,0 1.99,0.1 2.97,0.3 41.13,8.74 82.6,20.39 123.43,34.3 7.77,2.59 11.66,11 9.07,18.77 -1.95,6.15 -7.78,10.03 -13.94,10.03l-0 0zm-508.61 -100c-7.45,0 -13.93,-5.82 -14.9,-13.27 -0.07,-0.59 -0.11,-1.19 -0.11,-1.79 0,-7.56 5.85,-13.85 13.39,-14.39 40.17,-4.85 83.91,-5.5 128.6,-2.59 7.65,0.37 13.67,6.68 13.67,14.34 0,0.4 -0.02,0.8 -0.05,1.19 -0.24,7.78 -6.62,13.96 -14.4,13.96 -0.38,0 -0.77,-0.02 -1.15,-0.05 -42.76,-2.91 -84.87,-1.94 -123.43,2.27 -0.52,0.19 -1.07,0.3 -1.63,0.32l-0 0zm1102.44 923.94l-1.94 0c-6.46,-0.6 -11.69,-5.55 -12.63,-11.98 -3.89,-19.09 -7.78,-38.19 -12.31,-57.28 -1.61,-7.76 3.24,-15.85 11.01,-17.79 1.04,-0.23 2.11,-0.34 3.18,-0.34 6.89,0 12.92,4.67 14.65,11.34 1.08,4.75 2.16,9.6 3.24,14.56 2.16,-4.53 4.32,-8.96 6.48,-13.27 3.56,-7.44 12.31,-10.35 19.76,-6.79 7.13,3.56 10.37,12.29 6.8,19.74 -8.46,17.35 -17,35.44 -24.95,53.12 -2.27,5.25 -7.48,8.69 -13.25,8.69 -0.01,0 -0.02,0 -0.04,0zm88.78 -159.87c-2.27,0 -4.87,-0.65 -7.13,-1.94 -4.64,-2.53 -7.53,-7.39 -7.53,-12.68 0,-2.6 0.7,-5.15 2.03,-7.38 17.79,-32.09 37.41,-64.09 57.42,-94.77 4.22,-6.8 13.61,-8.74 20.42,-4.21 6.8,4.21 8.74,13.59 4.21,20.39 -19.54,30.15 -38.67,61.63 -56.36,93.1 -2.59,4.85 -7.78,7.44 -12.96,7.44l-0.09 0.05zm189.83 -284.46c-3.24,-0.02 -6.42,-1.04 -9.07,-2.92 -3.57,-2.81 -5.66,-7.12 -5.66,-11.67 0,-3.27 1.08,-6.44 3.06,-9.04 22.53,-29.31 46.78,-58.02 71.95,-85.19 5.51,-5.83 14.91,-6.16 21.06,-0.65 5.83,5.5 6.16,14.89 0.65,21.03 -24.61,26.48 -48.37,54.36 -70.35,82.93 -2.82,3.47 -7.07,5.5 -11.56,5.5 -0.03,0 -0.06,0 -0.09,0zm161.97 -165.39c-4.21,0 -8.09,-1.94 -11.01,-5.18 -2.42,-2.72 -3.76,-6.24 -3.76,-9.88 0,-4.27 1.84,-8.34 5.04,-11.16 28.37,-24.06 58.2,-46.72 89.07,-67.3 6.8,-4.53 16.2,-2.91 20.41,4.21 4.53,6.8 2.92,15.87 -3.89,20.39 -29.48,19.43 -58.31,41.43 -86.18,65.37 -2.92,2.27 -6.16,3.56 -9.72,3.56l0.03 -0.02zm173.65 -146.93c-5.75,-0.06 -10.99,-3.3 -13.61,-8.41 -3.24,-7.45 -0.32,-16.19 7.13,-19.74 33.73,-15.99 68.84,-29.71 104.59,-40.5 1.38,-0.34 2.76,-0.54 4.15,-0.54 6.59,0 12.42,4.3 14.35,10.6 2.27,7.77 -2.27,15.87 -10.04,18.45 -34.02,10.03 -67.71,23.3 -100.43,38.83 -1.92,0.86 -4.01,1.3 -6.11,1.3 -0.01,0 -0.03,0 -0.04,0l0 -0zm542.63 -37.87c-1.3,0 -2.7,-0.22 -4.22,-0.65 -34.98,-10.03 -70.61,-18.13 -105.28,-23.3 -7.22,-1.21 -12.5,-7.46 -12.5,-14.78 0,-0.8 0.06,-1.59 0.19,-2.37 0.97,-8.08 8.75,-13.59 16.84,-12.29 36.63,5.83 73.49,14.15 109.18,24.33 6.3,1.87 10.61,7.69 10.61,14.28 0,1.39 -0.19,2.78 -0.57,4.11 -1.85,6.32 -7.65,10.68 -14.25,10.68l0 0zm-312.3 -37.22c-0.04,0 -0.09,0 -0.12,0 -7.36,0 -13.63,-5.35 -14.79,-12.61 -0.07,-0.62 -0.11,-1.25 -0.11,-1.87 0,-7.44 5.41,-13.78 12.75,-14.96 36.94,-4.85 74.51,-7.44 112.09,-6.79 8.09,0 14.57,6.79 14.57,14.89 -0,0.06 -0,0.13 -0,0.2 0,7.94 -6.44,14.37 -14.37,14.37 -0.17,0 -0.35,-0 -0.52,-0.01 -2.38,-0.04 -4.82,-0.04 -7.18,-0.04 -33.5,0 -67.26,2.26 -100.39,6.79l-1.92 0.04zm594.13 80.91c-2.16,0 -4.31,-0.54 -6.48,-1.61 -17.3,-8.38 -35.42,-16.57 -53.14,-23.95 -5.43,-2.3 -8.97,-7.65 -8.97,-13.56 0,-2.01 0.41,-4 1.21,-5.85 2.91,-7.45 11.66,-11.01 19.11,-7.77 18.46,7.77 36.6,15.85 54.74,24.59 7.46,3.56 10.37,12.63 6.81,19.74 -2.35,5.13 -7.48,8.42 -13.13,8.42 -0.05,0 -0.11,0 -0.16,0l0 -0z"/>
    <path class="fil15" d="M7317.57 6308.74l-1639.56 0c-46.87,0 -84.87,37.96 -84.87,84.79l0 574.75c0,46.83 38,84.79 84.87,84.79l1639.56 0c46.87,0 84.87,-37.96 84.87,-84.79l0 -574.75c0,-46.83 -38,-84.79 -84.87,-84.79z"/>
    <path class="fil12" d="M7288.74 6212.63l-1753.59 0c-0.01,-0 -0.02,-0 -0.02,-0 -15.37,0 -27.83,12.45 -27.84,27.82l0 688.68c0.01,15.37 12.48,27.83 27.85,27.83 0,0 0.01,0 0.01,0l1753.6 0c0,-0 0,-0 0.01,-0 15.37,0 27.84,-12.46 27.84,-27.83l0 -688.68c-0,-15.37 -12.47,-27.83 -27.83,-27.83 -0.01,0 -0.01,0 -0.02,0l0 0.01z" filter="url(#g)"/>
    <path class="fil16" d="M5843.55 6826.53c140.27,0 253.99,-113.59 253.99,-253.72 0,-140.13 -113.72,-253.72 -253.99,-253.72 -140.27,0 -253.98,113.59 -253.98,253.72 0,140.13 113.71,253.72 253.98,253.72z"/>
    <path class="fil17" d="M6811.87 6500.65l-528.71 0c-35.96,0 -65.44,-29.13 -65.44,-65.05 0,-36.24 29.48,-65.37 65.44,-65.37l528.71 0c35.96,0 65.11,29.13 65.11,65.37 -0.02,35.93 -29.16,65.05 -65.09,65.05 -0.01,0 -0.02,0 -0.03,0l0 0zm380.97 76.37l-844.89 0c-0.01,-0 -0.03,-0 -0.04,-0 -35.93,0 -65.07,29.12 -65.08,65.05l0 0.32c0.02,35.92 29.16,65.04 65.08,65.04 0.01,0 0.02,0 0.03,0l844.89 0c0,-0 0.02,-0 0.03,-0 35.92,0 65.07,-29.12 65.08,-65.04l0 -0.32c-0.02,-35.93 -29.15,-65.05 -65.08,-65.05 -0.01,0 -0.02,0 -0.03,0l0 0z"/>
    <path class="fil18" d="M6846.85 5803.89c-0.65,-1.3 0,-2.59 0.98,-3.24 7.77,-3.24 11.98,-7.45 13.6,-12.3 2.92,-9.71 -5.19,-22 -11.99,-33.01 -6.8,-10.68 -12.96,-19.74 -9.4,-26.85 2.92,-5.82 2.92,-14.89 -0.32,-23.63 -4.85,-13.27 -15.23,-23.95 -28.51,-29.77 -28.51,-12.3 -37.25,-37.54 -31.09,-55.02 5.18,-14.24 6.48,-45.3 -23.98,-60.52 -32.4,-16.18 -51.83,-43.37 -57.67,-80.58l-168.46 8.74c5.83,27.83 -1.94,50.81 -21.7,63.76 -17.18,11.32 -28.19,41.09 -16.84,62.46 13.28,24.92 -3.57,44.01 -27.22,66.02 -14.9,14.24 -17.81,45.3 -11.99,66.99 3.57,11.97 9.07,20.06 15.23,21.35 1.3,0.32 2.27,1.63 1.95,2.92 -0.32,1.29 -1.63,2.26 -2.92,1.94 -8.43,-1.94 -14.91,-10.68 -18.79,-24.92 -6.48,-22.66 -3.89,-55.67 13.28,-71.84 26.24,-24.59 36.6,-39.8 25.92,-60.2 -12.63,-23.95 -0.65,-55.98 18.79,-68.6 18.47,-12.3 25.27,-34.63 18.79,-61.49 -0.32,-0.65 0,-1.61 0.32,-1.94 0.32,-0.66 0.97,-0.98 1.94,-1.3l173.65 -9.06c0.97,0 2.27,0.98 2.59,2.27 5.18,36.57 23.97,63.43 55.4,78.96 33.69,16.83 31.75,50.81 26.24,66.67 -5.51,15.54 3.56,38.19 28.51,48.87 14.57,6.15 25.92,18.11 31.1,32.35 3.89,10.37 3.89,20.72 0.32,27.83 -2.27,4.53 3.24,13.27 8.74,22.01 7.78,11.65 16.2,25.24 12.63,36.9 -1.94,6.47 -7.13,11.65 -15.87,15.53 -0.3,0.17 -0.63,0.28 -0.97,0.32 -1.02,-0.01 -1.93,-0.66 -2.27,-1.62l0 0z"/>
    <path class="fil18" d="M6481.43 5680.58c22.35,-27.83 29.8,-35.6 22.35,-57.93 -7.77,-22.01 -11.66,-42.4 13.28,-66.34 25.27,-23.95 16.52,-43.37 11.67,-62.78l133.15 -60.52c27.87,4.85 44.39,28.8 44.39,60.52 0,32.03 5.83,54.04 32.72,68.6 27.21,14.24 35.63,43.37 27.85,66.34 -7.45,23.3 16.53,46.28 35.97,55.99 19.1,9.71 27.85,33.66 22.02,52.1 -5.82,18.11 22.35,20.06 22.35,45.3 0,16.61 -15.44,23.3 -46.32,20.06 -32.07,11.66 -331.08,-22.97 -337.56,-45.3 -6.8,-22.01 -3.89,-48.22 18.13,-76.05l0 0z"/>
    <path class="fil19" d="M6319.45 6914.56c-0.87,6.04 -2.48,18.99 -4.85,38.83l-30.13 0c0,-22.44 -0.44,-33.76 -1.3,-33.98 -20.73,4.21 -39.2,22.98 -47.3,30.42 -7.77,7.45 -77.42,1.95 -80.99,0 -6.15,-9.05 34.02,-15.53 35.63,-19.42 17.5,-32.35 56.37,-69.9 61.89,-80.58 1.29,-3.23 2.58,-8.73 3.89,-15.21 3.89,-22 4.53,-44.33 2.59,-66.67 -0.98,-10.35 -2.27,-21.68 -3.24,-33.66l67.37 -18.13c-1.31,9.94 -2.61,22.27 -3.91,32 -2.59,20.39 -5.18,38.19 -7.13,52.1 -1.63,37.87 5.51,64.08 12.63,77.67 6.8,13.92 -3.56,27.51 -4.87,36.57l-0.29 0.05z"/>
    <path class="fil18" d="M6190.19 6930.75c12.63,1.61 26.57,4.2 31.43,2.26 6.48,-2.92 49.56,-56.31 96.87,-69.58 1.95,5.83 3.89,10.69 5.83,14.56 6.8,13.92 -3.56,27.51 -4.87,36.57 -0.87,6.04 -2.48,18.99 -4.85,38.83l-30.13 -0c0,-22.44 -0.44,-33.76 -1.3,-33.98 -20.73,4.21 -39.2,22.98 -47.29,30.43 -7.78,7.44 -77.43,1.94 -80.99,0 -5.83,-8.74 31.74,-14.9 35.3,-19.09l0 0z"/>
    <path class="fil19" d="M6282.84 6478.63c0.87,6.04 2.92,18.89 6.16,38.51l-28.83 8.42c-6.26,-21.35 -9.82,-32.03 -10.69,-32.03 -18.79,9.71 -31.43,33 -36.94,42.39 -5.18,9.39 -73.85,23.95 -77.75,22.98 -8.42,-7.11 28.19,-24.59 28.51,-28.8 8.1,-35.92 34.67,-82.84 36.6,-94.82 0.66,-3.23 0.33,-9.06 -0.32,-15.85 -2.26,-22.01 -8.09,-43.69 -16.2,-64.41 -3.89,-9.71 -8.09,-20.39 -12.63,-31.71l59.61 -36.25c1.73,11.22 3.34,21.9 4.85,32.04 3.24,20.39 5.83,38.19 8.1,52.1 8.75,36.56 23.32,59.87 33.69,70.87 10.7,11.32 4.54,27.5 5.83,36.56z"/>
    <path class="fil18" d="M6163.3 6530.75c12.63,-2.27 26.56,-3.56 30.78,-6.8 5.5,-4.85 31.74,-67.96 73.53,-94.18 3.24,5.18 6.48,9.39 9.4,12.3 10.69,11.32 4.54,27.51 5.83,36.57 0.87,6.04 2.92,18.87 6.16,38.51l-28.83 8.41c-6.26,-21.35 -9.82,-32.03 -10.69,-32.03 -18.79,9.71 -31.43,33.01 -36.94,42.4 -5.18,9.39 -73.87,23.95 -77.75,22.97 -8.09,-7.11 26.24,-23.29 28.51,-28.15l0 -0z"/>
    <path class="fil20" d="M6609.72 5850.16c-41.9,49.2 -103.24,75.3 -184.01,78.32 -121.16,4.85 -222.24,-106.8 -265,-189.65l28.51 -40.45c268.56,213.58 252.04,-3.56 346.63,-46.6l73.87 198.37z"/>
    <path class="fil21" d="M6694.59 5648.54c42.11,12.3 64.91,34.74 68.35,67.31 5.51,48.87 -37.25,247.25 -37.25,255.34l-177.21 0c0,-17.69 -5.72,-36.68 -17.17,-56.96 -16.84,-30.09 -58.63,-78.32 -56.05,-110.35 2.59,-32.04 55.41,-94.18 60.58,-152.1l42.11 -6.48c35.42,5.61 74.29,6.7 116.63,3.24z"/>
    <path class="fil18" d="M6545.57 5511.32c-39.2,-16.18 -21.05,-79.28 26.56,-85.11 95.9,-34.3 123.1,28.8 119.54,92.56 12.63,31.39 -12.31,70.87 -55.07,63.43 -26.13,-16.4 -56.47,-40.02 -91.03,-70.87z"/>
    <path class="fil19" d="M6545.91 5568.28c-3.56,-13.92 -0.32,-34.3 -1.63,-63.43 -1.61,-28.8 8.1,-43.04 26.24,-65.37 48.59,-6.15 60.26,33.33 60.91,58.25 0.32,24.93 6.48,39.49 24.95,34.63 -3.24,46.93 0.65,81.87 8.42,95.47 7.78,13.92 29.48,18.77 29.48,20.06 0.33,11.97 -116.29,77.99 -116.95,-2.26 25.27,-17.16 24.3,-21.04 21.39,-38.84 -34.34,0.65 -49.24,-24.59 -52.8,-38.51l0 -0z"/>
    <path class="fil22" d="M6602.27 5563.75c-22.03,-9.39 -43.08,-9.06 -41.47,-1.29 -1.29,19.09 22.35,39.16 41.47,1.29z"/>
    <path class="fil23" d="M6570.84 5551.13c0,0 -1.95,-1.63 -4.54,-3.89 -0.97,-2.27 -3.89,-5.82 -5.5,-7.77 2.92,0.32 11.01,1.63 13.93,0.65 0.5,1.09 0.75,2.28 0.75,3.48 0,3.19 -1.79,6.1 -4.63,7.53l0 0zm7.77 -22.02c-2.92,0.98 -11.01,-0.32 -13.93,-0.65 -0.3,-0.46 -0.62,-0.89 -0.98,-1.3 2.92,0 9.07,0.32 12.63,-0.97 1.09,0.65 1.91,1.69 2.28,2.91l0 0zm-10.7 4.22c-0.65,-0.87 -1.41,-1.63 -2.26,-2.28 -2.27,-2.26 -4.54,-4.53 -5.19,-5.5 0,-0.32 0.97,0 1.95,0 1.61,1.95 4.53,5.5 5.5,7.77l0 0zm-5.5 -7.77c-0.98,0 -1.95,-0.32 -1.95,0 -0.43,-0.43 -0.65,-0.75 -0.65,-0.97 0,0 0.65,-0.32 1.61,-0.32 0.36,0.4 0.69,0.83 0.98,1.29l0 0z"/>
    <path class="fil19" d="M6665.44 5557.28c8.23,0 14.91,-6.67 14.91,-14.89 -0,-8.23 -6.68,-14.9 -14.91,-14.9 -8.23,0 -14.9,6.67 -14.9,14.9 0,8.22 6.67,14.89 14.9,14.89l0 0z"/>
    <path class="fil22" d="M6662.52 5550.17c-0.43,0 -0.75,-0.22 -0.97,-0.66 -0.32,-0.65 0,-1.29 0.32,-1.29 1.29,-0.65 2.05,-1.4 2.27,-2.26 -0.07,-1.17 -0.67,-2.24 -1.63,-2.92 -0.97,-0.65 -2.26,-0.65 -3.56,0 -0.22,0.22 -0.54,0.22 -0.97,0 -0.22,-0.22 -0.32,-0.54 -0.32,-0.97 0,-3.56 2.59,-6.47 6.16,-7.45 0.96,-0.34 1.97,-0.51 2.99,-0.51 2.75,0 5.35,1.27 7.05,3.43 0.32,0.32 0,0.97 -0.32,1.29 -0.32,0.32 -0.98,0.32 -1.3,-0.32 -1.43,-1.63 -3.5,-2.56 -5.67,-2.56 -0.71,0 -1.42,0.1 -2.1,0.3 -2.15,0.69 -3.85,2.38 -4.54,4.53 0.34,-0.08 0.7,-0.12 1.05,-0.12 0.9,0 1.78,0.27 2.52,0.77 1.56,0.99 2.53,2.69 2.58,4.54 -0.32,0.97 -0.65,2.91 -3.24,3.89l-0.32 0.32 0 0zm-60.89 47.24c-0.32,-0.65 0,-0.97 0.66,-1.29 23.97,-6.8 43.08,-26.87 48.92,-51.46 0,-0.32 0.65,-0.65 1.29,-0.65 0.32,0.32 0.65,0.65 0.65,1.29 -6.16,24.92 -25.59,45.63 -50.21,52.75l-0.33 -0c-0.66,0 -0.98,-0.32 -0.98,-0.65l0 0z"/>
    <path class="fil18" d="M6625.27 5499.68c-12.63,-6.8 -26.89,-7.13 -31.75,-5.5 -0.65,0.32 -1.29,0 -1.29,-0.65 -0.32,-0.32 0.32,-0.66 0.65,-1.3 7.45,-14.89 24.95,-5.82 33.04,5.83 0.32,0.65 0.65,0.97 0.65,1.29 -0.21,0.43 -0.53,0.65 -0.97,0.65 -0.22,0 -0.32,-0.1 -0.32,-0.32zm-77.75 0.97c-0.65,-0.32 -0.65,-0.97 -0.32,-1.29 0.32,-0.65 11.33,-19.09 18.13,-4.21 0,0.32 0.65,0.32 0.65,0.97 0,0.65 -0.65,0.97 -0.97,0.97 -12.31,-1.61 -16.2,3.24 -16.2,3.56 -0.22,0.22 -0.54,0.32 -0.97,0.32 -0.22,0 -0.32,-0.1 -0.32,-0.32zm22.03 50.49c-5.83,-4.53 -12.63,-10.03 -12.63,-11.98 0,-1.61 2.26,-1.94 6.16,-1.94 2.92,0 6.8,0 8.74,-1.29 2.92,-1.63 0,-20.07 -5.18,-31.72 -0.32,-0.65 0,-1.29 0.65,-1.29 0.32,-0.32 0.97,0 0.97,0.32 4.54,10.03 9.4,31.71 4.54,34.63 -2.27,1.29 -6.16,1.29 -9.72,1.29 -1.3,0 -3.24,0 -4.22,0.32 1.3,1.63 6.8,6.48 11.67,10.37 0.65,0.32 0.65,0.97 0.32,1.29 -0.22,0.22 -0.54,0.32 -0.97,0.32 -0.22,0 -0.32,-0.1 -0.32,-0.32zm34.98 -21.04c3.23,0 5.83,-4.63 5.83,-10.35 0,-5.72 -2.6,-10.35 -5.83,-10.35 -3.22,0 -5.82,4.63 -5.82,10.35 0,5.72 2.6,10.35 5.82,10.35z"/>
    <path class="fil22" d="M6605.51 5533.33c-0.33,0 -0.66,-0.32 -0.66,-0.65 0.33,-0.32 0.32,-0.32 0.66,-0.32 1.61,0 5.82,-0.32 7.45,-7.45l0.32 -0.32c0.32,0 0.65,0.32 0.65,0.65 -1.61,7.13 -5.83,8.09 -7.77,8.09l-0.65 0z"/>
    <path class="fil18" d="M6561.13 5531.06c3.22,0 5.83,-4.63 5.83,-10.35 0,-5.72 -2.61,-10.35 -5.83,-10.35 -3.22,0 -5.83,4.63 -5.83,10.35 0,5.72 2.61,10.35 5.83,10.35z"/>
    <path class="fil22" d="M6561.77 5534.63c-0.32,0 -0.32,-0.32 -0.32,-0.65 0,-0.32 0,-0.32 0.32,-0.32 1.95,0 6.16,-0.32 7.46,-7.45 0,-0.32 0.32,-0.32 0.65,-0.32 0,0 0.32,0.32 0.32,0.65 -1.63,7.13 -5.83,8.09 -7.78,8.09l-0.65 0z"/>
    <path class="fil24" d="M6612.31 5542.4c2.27,3.24 3.89,5.82 3.56,6.15 -0.32,0.32 -2.59,-1.94 -4.87,-4.85 -2.26,-3.24 -3.89,-5.82 -3.24,-6.15 0.32,-0.32 2.27,1.94 4.54,4.85zm-5.83 0.65c2.59,3.24 3.89,5.82 3.56,6.15 -0.32,0.32 -2.59,-1.94 -4.85,-4.85 -2.27,-2.91 -3.9,-5.82 -3.24,-6.15 0.32,-0.32 2.26,1.94 4.53,4.85zm-6.16 0.65c2.27,3.24 3.56,5.83 3.24,6.16 -0.32,0.32 -2.59,-1.95 -4.85,-4.85 -2.27,-3.24 -3.89,-5.83 -3.24,-6.16 0.32,-0.32 2.58,1.95 4.85,4.85z"/>
    <path class="fil12" d="M6662.2 5569.58c0.09,0 0.18,0 0.26,0 3.76,0 6.8,-3.05 6.8,-6.8 0,-3.76 -3.05,-6.8 -6.8,-6.8 -0.09,0 -0.18,0 -0.26,0 -3.65,0.14 -6.54,3.15 -6.54,6.8 0,3.65 2.89,6.66 6.54,6.8z"/>
    <path class="fil22" d="M6579.92 5593.2c-2.27,0 -5.19,-0.32 -8.1,-1.61 -0.32,0 -0.65,-0.32 -0.65,-0.97 0.32,-0.32 0.65,-0.65 0.98,-0.32 6.15,2.26 12.3,0.97 12.3,0.97 0.32,-0.32 0.98,0 0.98,0.32 0,0.65 -0.33,0.97 -0.66,0.97 0,0 -1.94,0.65 -4.85,0.65l-0 0z"/>
    <path class="fil18" d="M6602.27 5563.75l-41.47 -1.29c0,18.77 27.21,27.51 41.47,1.29z"/>
    <path class="fil25" d="M6568.57 5576.7c3.39,-4.95 8.11,-8.88 13.6,-11.33l12.63 -1.95 7.45 0.32c-9.4,17.48 -24.61,19.09 -33.69,12.95l0.01 0z"/>
    <path class="fil12" d="M6560.8 5562.46l41.47 1.29c-9.4,6.8 -34.99,8.74 -41.47,-1.29z"/>
    <path class="fil26" d="M6581.53 5977.02l48.59 22.66 9.4 189.97 -208.95 28.48c-96.54,-75.95 -150.43,-117.16 -161.66,-123.63 -11.02,-6.26 5.61,93.42 49.89,299.03l-143.51 39.16c-34.13,-179.5 -56.7,-303.24 -67.71,-371.2 -16.84,-102.27 11.66,-182.84 82.93,-189.97 71.27,-7.11 277.96,161.49 287.68,161.49 6.27,0 27.87,-16.29 64.79,-48.87l38.55 -7.13 0 0z"/>
    <path class="fil27" d="M6173.99 6386.41c-1.02,-0.02 -1.92,-0.66 -2.26,-1.62 -0.32,-1.29 0.32,-2.59 1.61,-2.92l109.18 -32.03c1.29,-0.32 2.59,0.32 2.92,1.61 0.32,1.29 -0.32,2.26 -1.63,2.92l-109.17 32.03 -0.66 0z"/>
    <path class="fil26" d="M6720.19 5983.17c52.27,88.46 65.01,165.16 38.23,230.1 -40.5,97.08 -292.21,109.06 -315.87,166.02 -15.98,37.97 -48.05,185.11 -96.21,441.42l-165.22 0c19.87,-272.92 49.99,-446.17 90.39,-519.74 60.57,-110.35 235.19,-192.23 260.13,-210.03 16.63,-11.87 33.26,-49.83 49.89,-113.92l138.66 6.15z"/>
    <polygon class="fil18" points="6728.61,5984.15 6542.98,5984.15 6542.98,5967.31 6728.61,5967.31 "/>
    <path class="fil28" d="M6645.68 5988.03l-8.74 0 0 -26.54 8.74 0 0 26.54zm63.18 0l-9.07 0 0 -26.54 9.07 0 0 26.54z"/>
    <path class="fil27" d="M6704.96 6107.44l-0.65 0c-40.81,-10.03 -61.23,-54.37 -51.51,-112.94 0.32,-1.29 1.3,-1.95 2.59,-1.95 1.29,0.32 1.95,1.63 1.95,2.59 -9.4,56.31 9.72,98.71 47.95,107.77 1.29,0.32 2.26,1.61 1.94,2.91 -0.35,0.96 -1.26,1.6 -2.28,1.61l0 0z"/>
    <path class="fil27" d="M6300.01 6777.99l-0.65 0c-0.97,-0.32 -1.94,-1.61 -1.61,-2.91 2.58,-14.89 69.32,-365.37 103.34,-433.66 22.34,-44.67 112.41,-67.65 184.32,-86.08 41.79,-10.69 77.75,-20.07 93.3,-31.07 44.71,-31.06 39.2,-138.19 19.11,-227.83 -0.32,-0.97 0.65,-2.26 1.95,-2.58 0.97,-0.32 2.26,0.65 2.59,1.61 20.41,91.26 25.26,200 -21.06,232.69 -16.2,11.32 -52.48,20.71 -94.59,31.39 -71.27,18.45 -160.04,41.1 -181.42,84.15 -34.02,67.63 -102.37,428.8 -103.02,432.37 -0.32,0.97 -1.29,1.94 -2.27,1.94zm-109.5 8.09c-0.97,0 -2.26,-0.97 -2.26,-2.26 0,-1.3 0.97,-2.27 2.26,-2.27l153.24 -0.65c1.29,0 2.27,1.29 2.27,2.26 -0,0.02 -0,0.04 -0,0.05 0,1.22 -1,2.22 -2.22,2.22 -0.02,0 -0.04,0 -0.05,0l-153.24 0.65 0 0z"/>
    <path class="fil18" d="M6587.69 5430.09l55.72 4.85 12.63 57.6c-50.75,-4.31 -79.26,-22 -85.52,-53.07l17.17 -9.39 0 0zm-138.33 233.99c-0.65,-1.3 0,-2.59 1.3,-3.24 0.32,0 18.79,-7.13 23,-19.42 1.61,-4.85 0.65,-10.03 -2.92,-15.54 -17.17,-26.21 -6.8,-69.25 21.39,-88.34 26.24,-18.13 33.04,-37.87 37.57,-70.55 0,-1.61 1.3,-2.58 2.59,-2.26 1.61,0.32 2.59,1.29 2.27,2.91 -4.54,33.98 -11.99,55.02 -39.53,73.79 -25.58,17.47 -35.63,58.25 -20.08,81.87 4.32,6.69 5.41,13.27 3.24,19.74 -4.85,14.56 -24.94,22.33 -25.59,22.66l-0.97 0c-1.02,-0.01 -1.93,-0.66 -2.28,-1.61l0 0z"/>
    <path class="fil19" d="M6841.02 5858.57c16.84,55.89 24.84,108.31 23.98,157.28 -1.63,73.79 -35.63,175.41 -35.63,186.08 -1.3,30.75 -26.9,46.93 -45.35,44.67 -18.47,-2.27 -30.13,-4.85 -32.07,-0.65 -2.27,6.79 -14.58,16.82 -20.42,15.21 -4.75,2.8 -8.63,3.45 -11.66,1.94 -3.24,2.16 -6.48,1.63 -9.72,-1.61 0,-10.57 0.54,-16.83 1.61,-18.77 1.08,-2.16 2.81,-6.58 5.19,-13.27 -5.41,4.97 -8.21,8.74 -8.43,11.33 -0.65,3.87 0.65,16.18 -4.85,17.15 -3.9,-11.32 -2.59,-21.35 -2.27,-26.85 0.32,-5.19 12.63,-24.6 23,-26.54 10.37,-1.94 52.48,-0.97 55.4,-4.85 3.24,-3.89 -9.4,-189.97 -12.96,-207.13 -2.37,-11.43 -15.11,-50.26 -38.23,-116.5l112.42 -17.48 -0 0.01z"/>
    <path class="fil22" d="M6718.57 6225.24c-0.66,-0.32 -0.66,-0.97 0,-1.61l5.82 -6.47c0.66,-0.32 1.3,-0.65 1.63,0 0.32,0.32 0.65,0.97 0,1.61l-5.83 6.47c-0.22,0.22 -0.54,0.32 -0.97,0.32 -0.22,0 -0.44,-0.1 -0.65,-0.32zm0.32 32.36c1.51,-9.71 2.37,-15.1 2.58,-16.18 0.33,-1.95 6.49,-10.68 9.4,-14.24 0.33,-0.65 0.98,-0.65 1.3,-0.32 0.65,0.32 0.65,0.97 0.32,1.29 -4.21,5.82 -8.43,12.63 -8.75,13.59 -0.22,1.07 -1.07,6.47 -2.59,16.18l-2.26 -0.32zm12.31 -0.97c-0.66,0 -0.66,-0.65 -0.66,-1.29 0,-0.32 2.92,-8.74 3.56,-10.37 0.66,-1.29 7.46,-9.39 9.4,-11.97 0.32,-0.32 0.98,-0.65 1.63,0 0.15,0.18 0.24,0.41 0.24,0.65 0,0.24 -0.09,0.47 -0.24,0.65 -4.21,5.18 -8.75,10.68 -9.07,11.66 -0.65,1.29 -3.24,10.03 -3.24,10.03 -0.32,0.32 -0.65,0.65 -1.29,0.65l-0.31 0z"/>
    <path class="fil20" d="M6862.73 5905.82c16.63,80.7 10.7,162.03 -17.81,244.01 -14.26,4.75 -39.74,3.56 -76.46,-3.55 0,-135.28 -23.32,-206.48 -51.83,-276.05 -28.18,-69.26 -35.31,-156.63 21.39,-197.42 46.32,0 99.78,111.98 124.72,233.01l-0 -0z"/>
    <path class="fil19" d="M6160.71 5738.83c-12.74,-29.13 -19.11,-46.17 -19.11,-51.13 0,-7.11 4.54,-20.06 17.18,-31.06 12.63,-11.33 34.66,-18.77 38.55,-28.48 3.89,-9.71 22.68,-19.42 29.16,-14.89 -1.63,3.89 -9.72,17.15 -13.29,26.53 -3.24,9.06 -17.17,24.93 -22.34,31.72 -5.19,6.79 -8.1,10.68 -2.27,26.87l-27.87 40.45 0 -0z"/>
    <path class="fil19" d="M6177.4 5657.27c5.19,0 9.4,-10.72 9.4,-23.95 0,-13.23 -4.21,-23.95 -9.4,-23.95 -5.19,0 -9.4,10.72 -9.4,23.95 0,13.23 4.21,23.95 9.4,23.95z"/>
    <path class="fil19" d="M6162.81 5664.06c5.19,0 9.4,-10.72 9.4,-23.95 0,-13.22 -4.21,-23.95 -9.4,-23.95 -5.19,0 -9.39,10.73 -9.39,23.95 0,13.23 4.2,23.95 9.39,23.95z"/>
    <path class="fil19" d="M6149.85 5675.07c5.19,0 9.4,-10.72 9.4,-23.95 0,-13.23 -4.21,-23.95 -9.4,-23.95 -5.19,0 -9.4,10.72 -9.4,23.95 0,13.23 4.21,23.95 9.4,23.95z"/>
    <path class="fil19" d="M6132.39 5656.37c3.56,-1.3 9.72,6.15 13.94,16.82 3.89,10.68 4.53,20.72 0.97,22.01 -3.56,1.29 -9.72,-6.48 -13.6,-17.16 -4.22,-10.68 -4.54,-20.39 -1.3,-21.68z"/>
    <polygon class="fil29" points="3019.28,7643.37 1632.41,7643.37 1632.41,6260.2 3019.28,6260.2 3019.28,7643.36 "/>
    <polygon class="fil30" points="2466.6,7643.37 1632.41,7643.37 1632.41,6260.2 2466.6,6260.2 2466.6,7643.36 "/>
    <path class="fil31" d="M2143.61 6949.51l-195.02 0 0 -691.58 195.02 -0 0 691.58 0 0zm771.35 -471.2l-155.83 0 0 -99.67 155.83 0 0 99.67zm-34.99 151.14c27.01,0 48.92,-21.87 48.92,-48.87 -0.01,-26.99 -21.91,-48.87 -48.89,-48.87 -0.01,0 -0.01,0 -0.02,0 -0.01,0 -0.02,0 -0.03,0 -26.99,0 -48.88,21.88 -48.89,48.87 0.01,26.99 21.9,48.87 48.89,48.87 0.01,0 0.02,0 0.03,0l-0 0z"/>
    <polygon class="fil29" points="2322.11,6258.91 1427.02,6258.91 1427.02,5453.39 2322.11,5453.4 2322.11,6258.91 "/>
    <path class="fil32" d="M1649.58 5624.92l-38.23 0 0 147.9 -74.83 -0 0 -147.9 -38.23 0 75.8 -113.92 75.49 113.92zm201.18 -44.33l-144.17 0 0 -65.7 144.17 0 0 65.7zm-114.36 133.33c0.01,-0 0.02,-0 0.02,-0 19.84,0 35.93,-16.09 35.94,-35.93 -0.01,-19.83 -16.1,-35.91 -35.94,-35.91 -0,0 -0.02,0 -0.02,0 -0,0 -0.02,0 -0.02,0 -19.83,0 -35.93,16.08 -35.94,35.91 0,19.84 16.1,35.93 35.94,35.93 0,0 0.02,0 0.02,0l-0 0z"/>
    <path class="fil33" d="M7406.33 7833.33l-6459.09 0 0 -22.98c0,-92.23 75.16,-167.31 167.81,-167.31l6123.79 0c92.66,0 167.49,75.08 167.49,167.31l0 22.98 0 0z"/>
    <path class="fil19" d="M4022.58 6021.37c89.08,-10.37 148.37,-53.73 147.07,-62.47 -0.97,-8.73 -7.77,-69.25 -4.85,-75.72 2.92,-6.8 32.07,-11.33 35.31,-14.24 2.16,-1.95 4.43,-6.8 6.8,-14.56 7.45,0.65 18.79,9.37 14.57,21.35 -2.8,7.98 -9.06,15.21 -18.78,21.69l12.3 84.78c9.07,39.49 -108.52,153.41 -171.7,166.34 -34.99,-6.04 -41.9,-48.44 -20.73,-127.18l-0.01 0z"/>
    <path class="fil26" d="M3709.96 5991.58c95.47,49.41 243.41,40.56 443.82,-26.53l39.53 81.55c-91.69,104.21 -388.75,233.66 -452.57,176.7 -42.55,-37.76 -52.8,-115 -30.78,-231.72l0 0z"/>
    <path class="fil12" d="M3640.63 5981.87c4.53,-1.07 27.85,2.16 69.97,9.71 70.95,57.93 61.23,215.53 56.05,275.08 -3.46,39.92 4.97,122.54 25.27,247.9 -86.4,86.51 -212.3,101.19 -377.74,44.01 -36.94,-82.2 -37.26,-479.28 -19.76,-509.06 11.66,-20.06 58.2,-43.15 139.63,-69.25l106.58 1.61z"/>
    <polygon class="fil18" points="3497.77,6468.6 3756.94,6468.6 3756.94,6495.47 3497.77,6495.47 "/>
    <path class="fil19" d="M3494.53 7465.7c3.46,48.32 9.28,80.69 17.49,97.08 12.63,24.27 130.89,28.48 158.09,79.94l-252.69 -0.97c-3.67,-28.7 -1.19,-54.37 7.45,-77.02l-10.04 -61.81 79.7 -37.22 0 0z"/>
    <path class="fil18" d="M3471.53 7568.28c-0.33,-9.06 6.15,-40.77 29.16,-50.16 2.58,17.47 6.48,34.95 11.33,44.66 12.63,24.27 130.87,28.48 158.09,79.94l-252.69 -0.97c-3.68,-28.7 -1.19,-54.37 7.45,-77.02 30.46,12.94 46,14.13 46.66,3.55l-0 0z"/>
    <path class="fil34" d="M3663.31 7632.69c2.8,3.23 5.07,6.57 6.8,10.03l-252.69 -0.97c-0.22,-2.59 -0.44,-5.94 -0.65,-10.03l246.53 0.97zm-170.08 -57.93c-0.97,-0.32 -1.29,-1.3 -0.97,-1.95 0.32,-0.32 4.21,-11.65 12.63,-15.21 3.89,-1.73 7.99,-1.73 12.3,0 0.49,0.27 0.78,0.78 0.78,1.34 0,0.2 -0.04,0.41 -0.12,0.6 -0.32,0.98 -0.98,1.3 -1.95,0.98 -3.46,-1.51 -6.7,-1.63 -9.72,-0.32 -7.45,3.23 -11.01,13.58 -11.33,13.58 0,0.66 -0.66,0.98 -1.3,0.98l-0.32 0zm47.61 -0.33c-0.47,-0.28 -0.76,-0.8 -0.76,-1.35 0,-0.2 0.04,-0.41 0.12,-0.59 0,-0.32 4.21,-11.66 12.63,-15.21 1.88,-0.85 3.93,-1.3 6,-1.3 2.07,0 4.11,0.44 5.99,1.3 0.97,0.32 1.29,1.29 0.97,1.94 -0.32,0.97 -1.29,1.29 -1.95,0.97 -3.45,-1.51 -6.69,-1.61 -9.72,-0.32 -7.45,3.24 -11.33,13.59 -11.33,13.59 -0.32,0.65 -0.65,0.97 -1.29,0.97l-0.65 0zm51.2 -5.81c-0.65,-0.32 -0.97,-1.3 -0.97,-1.95 0.32,-0.65 4.53,-11.65 12.96,-15.21 1.88,-0.85 3.93,-1.3 5.99,-1.3 2.06,0 4.11,0.44 5.99,1.3 0.65,0.32 1.3,1.29 0.98,1.95 -0.33,0.65 -1.3,1.29 -1.95,0.97 -3.46,-1.51 -6.8,-1.63 -10.04,-0.32 -7.13,3.23 -11.02,13.59 -11.02,13.59 -0.32,0.65 -0.65,0.97 -1.29,0.97l-0.65 0z"/>
    <path class="fil19" d="M3797.43 7465.37c3.68,48.32 9.72,80.69 18.15,97.08 12.31,24.27 130.87,28.16 158.09,79.29l-252.69 0c-3.68,-28.7 -1.19,-54.37 7.45,-77.02l-10.37 -61.81 79.37 -37.54 -0 -0z"/>
    <path class="fil18" d="M3774.75 7567.96c-0.32,-8.74 6.16,-40.45 29.16,-50.16 2.92,17.47 6.48,34.95 11.67,44.66 12.3,24.27 130.87,28.16 158.08,79.29l-252.69 0c-3.67,-28.7 -1.19,-54.37 7.46,-77.02 30.45,12.73 45.9,13.8 46.32,3.23l0 -0z"/>
    <path class="fil34" d="M3966.87 7632.04c2.71,2.89 5.02,6.17 6.8,9.7l-252.69 0c-0.22,-2.59 -0.44,-5.94 -0.66,-10.03l246.54 0.32zm-170.41 -57.61c-0.65,-0.32 -0.97,-0.98 -0.97,-1.95 0.32,-0.32 4.21,-11.32 12.96,-15.21 3.67,-1.73 7.67,-1.61 11.98,0.32 0.66,0.32 0.98,0.97 0.66,1.61 -0.33,0.98 -0.98,1.3 -1.63,0.98 -3.67,-1.51 -7.02,-1.63 -10.04,-0.32 -7.13,3.23 -11.01,13.58 -11.01,13.58 -0.33,0.66 -0.66,0.98 -1.3,0.98l-0.64 0zm23.97 16.82c-0.65,-0.32 -1.29,-1.29 -0.97,-1.94 0.32,-0.32 4.21,-11.66 12.63,-15.21 3.89,-1.73 7.99,-1.73 12.31,0 0.65,0.32 0.97,1.29 0.65,1.94 -0.32,0.97 -0.97,1.29 -1.95,0.97 -3.45,-1.51 -6.69,-1.61 -9.72,-0.32 -7.45,3.24 -11.01,13.59 -11.01,13.59 -0.32,0.65 -0.97,0.97 -1.3,0.97l-0.64 0zm39.2 11c-0.65,-0.32 -1.29,-0.97 -0.97,-1.61 0.32,-0.65 4.21,-11.65 12.63,-15.53 3.89,-1.51 7.99,-1.41 12.31,0.32 0.65,0.32 0.97,0.97 0.65,1.94 -0.32,0.65 -0.97,0.97 -1.95,0.65 -3.45,-1.51 -6.69,-1.51 -9.72,0 -7.45,3.24 -11.01,13.27 -11.01,13.59 -0.32,0.32 -0.97,0.97 -1.29,0.97 -0.22,0 -0.44,-0.1 -0.66,-0.32l0.01 0z"/>
    <path class="fil26" d="M3832.09 7555.67l-127.31 0 -74.84 -591.92 -84.23 591.92 -128.61 0c-3.56,-186.41 -41.79,-888.68 23.32,-1061.17l339.19 0c25.7,258.47 43.19,612.19 52.48,1061.17z"/>
    <path class="fil35" d="M3629.94 6944.98c-0.65,0 -1.29,-0.97 -1.29,-1.61l16.84 -302.26c0.26,-0.59 0.72,-1.06 1.31,-1.3l24.94 -6.47 -5.5 -78.31c-0.32,-0.66 0.32,-1.3 1.29,-1.63 0.65,0 1.29,0.65 1.63,1.63l5.5 79.28c0,0 0,0.02 0,0.02 0,0.67 -0.37,1.29 -0.97,1.6l-25.27 6.47 -16.84 300.97c0,0.97 -0.65,1.61 -1.63,1.61l-0 0zm124.73 276.39c0,-0.65 0.65,-1.3 1.63,-1.3l112.08 0c0.98,0 1.63,0.66 1.63,1.3 0,0.97 -0.65,1.61 -1.63,1.61l-112.08 0c-0.98,0 -1.63,-0.65 -1.63,-1.61zm-281.84 2.26c0,-0.65 0.65,-1.29 1.63,-1.29l109.17 0c0.66,0 1.3,0.65 1.3,1.29 0,0.97 -0.65,1.63 -1.3,1.63l-109.17 0c-0.98,0 -1.63,-0.66 -1.63,-1.63zm33.69 -925.56c0,-0.65 0.66,-1.3 1.3,-1.3 37.58,-3.87 61.23,-38.19 63.17,-91.91 0,-0.65 0.66,-1.29 1.63,-1.29 0.65,0 1.29,0.65 1.29,1.29 -2.92,82.2 -51.18,93.21 -65.76,94.5 -0.97,0 -1.63,-0.32 -1.63,-1.29zm-30.77 909.06c0,-7.13 6.16,-870.55 28.51,-991.27 0.32,-0.65 0.97,-1.29 1.61,-0.97 0.98,0 1.3,0.98 1.3,1.63 -22.35,120.39 -28.51,983.17 -28.51,990.61 0.32,0.65 -0.32,1.29 -1.3,1.29 -0.65,0 -1.29,-0.32 -1.61,-1.29z"/>
    <path class="fil19" d="M3397.33 6616.51c-2.58,12.61 -19.44,54.37 -6.8,66.34 12.96,11.97 26.9,30.42 26.24,51.77 -0.65,21.69 20.09,41.1 18.15,45.63 -1.61,4.21 -26.89,-8.09 -33.69,-19.42 -6.8,-11 -4.54,-17.8 -10.37,-13.27 -5.82,4.53 -13.93,74.44 -13.93,97.42 -0.22,15.09 -5.29,14.02 -15.23,-3.24 -6.48,2.58 -11.98,-0.44 -16.52,-9.06 -15.22,3.24 -22.35,-41.1 -26.24,-38.19 -17.17,4.53 -22.35,-44.01 -13.6,-70.55 8.75,-26.21 20.73,-46.93 21.39,-71.2 0.5,-18.18 1.5,-38.83 2.01,-56.95l68.68 20.72 -0.07 -0z"/>
    <path class="fil22" d="M3361.05 6837.54c-0.32,0 -0.65,-0.32 -0.97,-0.97 -0.32,-1.95 -10.69,-49.84 -0.97,-80.26 0.32,-0.65 0.97,-0.97 1.61,-0.65 0.65,0 0.98,0.97 0.98,1.61 -9.72,29.77 0.97,78.31 0.97,78.63 0.32,0.66 -0.32,1.63 -0.97,1.63l-0.66 0zm-19.44 -10.35c-0.43,0 -0.75,-0.22 -0.97,-0.65 -0.65,-1.63 -14.57,-40.46 -9.4,-67 0,-0.97 0.97,-1.29 1.63,-1.29 0.6,0.3 0.98,0.91 0.98,1.57 0,0.02 0,0.03 0,0.05 -5.19,25.89 9.07,65.37 9.4,65.69 -0,0 -0,0.02 -0,0.03 0,0.67 -0.37,1.28 -0.97,1.59l-0.66 0.01zm-20.39 -40.15c-0.32,0 -0.65,-0.32 -0.98,-0.97 -3.56,-17.79 -2.26,-26.85 -2.26,-27.51 0,-0.65 0.65,-0.97 1.61,-0.97 0.65,0 0.98,0.65 0.98,1.63 0,0 -1.3,9.06 2.26,26.21 0.32,0.97 -0.32,1.61 -0.97,1.61l-0.65 0z"/>
    <path class="fil26" d="M3746.89 6578c-6.8,-71.2 -12.3,-241.1 -11.33,-290.95 0.97,-67.31 2.27,-222 -71.59,-303.23 13.6,1.94 29.16,4.53 46.65,7.76 70.95,57.94 61.23,215.54 56.04,275.08 -3.45,39.92 6.48,133.23 29.81,279.94 -11.99,11.65 -35.96,22.98 -49.57,31.4l0 0zm-332.7 -19.43c-36.94,-82.2 -37.26,-479.28 -19.76,-509.06 11.01,-18.44 61.23,-40.45 98.16,-54.69 44.39,70.23 64.47,137.54 56.04,312.63 -1.85,40.08 -3.04,81.2 -3.04,121.73 0,51.85 1.79,104.3 5.07,155.85 -50.97,-3.89 -96.44,-12.73 -136.39,-26.54l-0.08 0.09z"/>
    <path class="fil26" d="M3410.63 6033.66c38.87,30.09 84.87,95.79 47.95,220.71 -24.63,83.28 -34.89,222.44 -30.78,417.48l-134.11 5.18c-26.56,-197.41 -6.16,-576.7 116.95,-643.37l-0 0z"/>
    <path class="fil18" d="M3574.87 5908.09c-27.65,-6.91 -43.63,-16.94 -47.95,-30.1 -6.16,-19.42 -14.58,-74.75 -9.4,-96.44 8.42,-35.27 69.97,-51.13 100.1,-43.04 37.25,9.71 45.68,16.83 46.97,33.01 1.63,16.19 -4.21,31.72 -14.25,44.33l-75.48 92.24 0.01 -0z"/>
    <path class="fil19" d="M3520.77 5985.11c18.13,-9.28 24.51,-38.51 19.11,-87.7l-3.24 -29.13c14.25,9.71 20.73,-7.76 18.78,-18.77 -1.29,-7.54 -2.92,-19.63 -4.85,-36.24 12.31,6.04 18.57,1.07 18.79,-14.89 9.72,4.85 -15.55,-73.47 89.73,-16.83 2.92,18.45 6.48,59.87 5.19,83.82 -2.59,50.16 1.61,84.47 -42.11,91.91 0,18.13 0.65,24.59 18.79,24.59 -10.37,28.48 -94.27,20.4 -120.19,3.24l0 0z"/>
    <path class="fil36" d="M3661.69 5876.7c0,0.22 -0.54,0.44 -1.61,0.65 0,-0.43 -0.32,-1.29 -0.98,-2.58 0.98,0 1.95,0.65 1.95,0.65 0.65,0.65 0.87,1.07 0.65,1.29zm-0.65 -1.29c0,0 -0.97,-0.65 -1.95,-0.65 -2.26,-3.89 -8.42,-11.66 -13.6,-16.83l2.92 2.92c5.19,5.5 10.69,11.65 12.63,14.56zm-0.97 1.94c-6.16,0.65 -23.66,1.95 -23.66,1.95l0 -11.98c0,0 16.84,7.77 22.68,7.45 0.66,1.29 0.98,2.16 0.98,2.58zm-0.98 -2.58c-5.83,0.32 -22.68,-7.45 -22.68,-7.45l0 -19.09c0,0 4.22,4.21 9.07,9.71 5.19,5.18 11.34,12.95 13.6,16.83z"/>
    <path class="fil18" d="M3647.11 5857.28c3.4,0 6.16,-5.07 6.16,-11.32 0,-6.26 -2.76,-11.33 -6.16,-11.33 -3.41,0 -6.16,5.07 -6.16,11.33 0,6.25 2.75,11.32 6.16,11.32zm-47.63 1.94c3.4,0 6.16,-5.07 6.16,-11.32 0,-6.26 -2.76,-11.32 -6.16,-11.32 -3.4,0 -6.16,5.06 -6.16,11.32 0,6.25 2.76,11.32 6.16,11.32z"/>
    <path class="fil22" d="M3588.15 5853.07c0,-0.65 0.32,-1.29 0.98,-1.29 0.65,0 1.29,0.32 1.29,0.97 0.23,5.25 4.56,9.39 9.82,9.39 0.19,0 0.37,-0.01 0.55,-0.02 0.66,0 1.3,0.65 1.3,0.97 0,0.65 -0.65,1.3 -0.98,1.3l-0.65 0c-6.48,0 -11.98,-4.85 -12.31,-11.33l0 0z"/>
    <path class="fil18" d="M3635.77 5878.97c0,-0.33 0.32,-0.98 0.97,-0.98 10.04,-0.32 21.39,-0.97 23.98,-1.61 -1.3,-1.94 -7.13,-8.09 -11.67,-12.95 -8.75,-9.06 -14.57,-15.21 -15.23,-17.79 -1.94,-6.48 -1.61,-13.27 0.98,-21.69 0.44,-0.4 1.02,-0.63 1.61,-0.65 0.34,0.35 0.56,0.8 0.65,1.29 -2.58,7.77 -2.91,14.56 -1.29,20.39 0.65,2.27 8.43,10.37 14.58,16.83 10.04,10.35 12.96,13.59 12.63,15.21 0,0.32 0,0.65 -0.32,0.97 -1.94,1.3 -18.78,1.95 -25.92,2.27 -0.65,0 -0.97,-0.65 -0.97,-1.29l-0 0z"/>
    <path class="fil24" d="M3603.7 5869.26c0.65,-0.66 3.56,2.58 6.8,6.79 2.92,4.53 4.87,8.42 4.22,9.06 -0.66,0.65 -3.9,-2.59 -6.8,-7.13 -3.24,-4.2 -5.19,-8.41 -4.22,-8.73zm-9.39 0c0.66,-0.32 3.9,2.58 6.81,7.11 3.24,4.53 5.18,8.42 4.21,9.06 -0.65,0.32 -3.56,-2.92 -6.8,-7.11 -2.92,-4.53 -4.87,-8.42 -4.22,-9.06l0 0zm-9.71 0c0.97,-0.66 3.89,2.58 7.13,6.79 2.92,4.53 4.85,8.42 4.21,9.06 -0.97,0.65 -3.89,-2.59 -7.13,-7.13 -2.92,-4.2 -4.87,-8.41 -4.21,-8.73z"/>
    <path class="fil19" d="M3524.66 5897.74c0.21,-0 0.43,0 0.63,0 10.37,0 18.78,-8.41 18.78,-18.78 0,-10.37 -8.41,-18.78 -18.78,-18.78 -0.2,0 -0.42,0.01 -0.63,0.01 -0.2,-0 -0.42,-0.01 -0.63,-0.01 -10.37,0 -18.78,8.41 -18.78,18.78 0,10.37 8.41,18.78 18.78,18.78 0.2,0 0.42,-0.01 0.63,-0.01l-0 0.01z"/>
    <path class="fil22" d="M3528.22 5889c-3.56,-1.3 -4.21,-3.89 -4.21,-5.18 -0.32,-1.95 0.97,-4.53 2.92,-5.83 1.15,-0.72 2.47,-1.1 3.82,-1.1 0.45,0 0.91,0.04 1.35,0.13 -1,-2.76 -3.31,-4.82 -6.15,-5.51 -2.92,-0.97 -7.45,-0.97 -10.04,2.92 -0.32,0.32 -1.29,0.65 -1.61,0 -0.66,-0.32 -0.98,-0.98 -0.32,-1.63 2.58,-3.89 7.77,-5.18 12.63,-3.89 4.87,1.63 8.1,5.19 8.1,9.72 0,0.65 -0.22,1.07 -0.65,1.29 -0.22,0.22 -0.54,0.22 -0.98,0 -1.61,-0.65 -3.24,-0.65 -4.53,0.32 -1.31,0.72 -2.17,2.07 -2.27,3.57 0.22,1.29 1.19,2.26 2.92,2.91 0.65,0.32 0.98,0.97 0.65,1.63 -0.32,0.32 -0.65,0.65 -1.29,0.65l-0.32 0z"/>
    <path class="fil18" d="M3579.73 5827.51c-0.32,-0.32 0,-0.65 0.32,-0.65 0.32,0 14.25,-15.54 32.72,-4.21 0.32,0.32 0.65,0.32 0.65,0.97 -0.02,0.34 -0.3,0.61 -0.64,0.64 -15.55,0 -32.07,3.89 -32.4,3.89 -0.43,0 -0.65,-0.22 -0.65,-0.65l-0 0zm69.32 136.89c-64.15,-3.56 -73.22,-56.31 -76.46,-77.02 -0.32,-4.21 6.8,-6.79 2.92,-20.39l11.99 -20.72c1.51,11.66 11.77,21.69 30.77,30.1 28.19,12.29 76.13,7.44 79.05,1.61 15.87,43.69 15.87,89.97 -48.27,86.41l0 0zm47.95 -141.42c-8.43,-1.95 -20.42,-2.59 -20.42,-2.59 -0.34,-0.03 -0.61,-0.31 -0.64,-0.65 0,-0.32 0.65,-0.32 0.65,-0.65 2.92,-6.8 16.53,-9.39 20.74,2.58 0,0.32 0.65,0.32 0.32,0.65 0,0.33 -0.32,0.66 -0.65,0.66l-0 0z"/>
    <path class="fil19" d="M3632.87 5897.73c14.57,-3.23 24.61,-7.44 23,2.92 -1.63,10.68 -9.07,19.74 -22.35,21.35 -13.28,1.95 -35.31,-1.94 -44.39,-14.24 -8.75,-12.29 0.97,-20.71 14.25,-14.89 13.61,5.51 23.98,6.16 29.49,4.85z"/>
    <path class="fil18" d="M3595.6 5900.32c-0.15,-0.18 -0.24,-0.41 -0.24,-0.65 0,-0.24 0.09,-0.47 0.24,-0.65 0.32,-0.65 0.97,-0.65 1.29,-0.32 3.89,2.91 31.1,10.35 53.78,4.21 0.32,-0.32 0.97,0 0.97,0.65 0.32,0.32 0,0.97 -0.65,0.97 -6.48,1.94 -13.6,2.59 -20.08,2.59 -16.85,0 -32.07,-4.53 -35.31,-6.8l-0 0z"/>
    <path class="fil22" d="M3618.28 5916.18c-0.66,0 -0.66,-0.65 -0.66,-1.29 0.37,-0.34 0.82,-0.57 1.31,-0.65 0.32,0 8.09,2.92 16.84,0.97 0.65,0 1.3,0.32 1.3,0.65 0.32,0.66 0,1.3 -0.66,1.3 -2.5,0.56 -5.07,0.84 -7.65,0.84 -1.23,0 -2.47,-0.07 -3.69,-0.19 -3.89,-0.65 -6.48,-1.29 -6.8,-1.63l-0 0z"/>
    <path class="fil37" d="M3580.05 6062.13c-35.31,-17.15 -53.78,-46.6 -53.78,-46.6 -0.32,-0.65 -0.32,-1.61 0.32,-1.94 0.66,-0.32 1.3,0 1.63,0.65 0.32,0 17.81,28.48 51.83,45.31l32.72 -51.78 0.65 -0.65c0.44,0 0.76,0.1 0.98,0.32l50.85 34.95c0.65,0.32 0.65,0.97 0.32,1.61 -0.32,0.65 -1.29,0.65 -1.61,0.32l-49.9 -34.3 -32.4 51.78c-0.21,0.43 -0.53,0.65 -0.97,0.65 -0.22,0 -0.43,-0.1 -0.65,-0.32l-0 0z"/>
    <path class="fil38" d="M3614.07 6010.35c23.1,15.1 34.77,22.98 34.98,23.63 4.54,18.77 -1.94,52.43 -2.91,51.78 -14.04,-1.73 -24.52,-0.22 -31.43,4.53 -12.09,-7.77 -20.08,-22.01 -23.98,-42.72l23.33 -37.22 -0 0z"/>
    <path class="fil38" d="M3646.13 6085.76c30.46,37.54 46.66,137.54 39.2,195.79 -5.18,38.83 4.32,80.16 28.51,123.95l-44.05 113.27c-54.65,-63 -83.16,-96.01 -85.53,-99.03 -22.03,-56.31 28.51,-120.06 37.91,-175.41 6.48,-36.89 4,-88.24 -7.45,-154.04 6.26,-7.13 16.74,-8.63 31.42,-4.53z"/>
    <path class="fil5" d="M3423.57 4102.59c0,182.52 -148.04,596.44 -330.76,596.44 -183.03,0 -331.08,-413.92 -331.08,-596.44 0,-182.53 148.05,-330.75 331.08,-330.75 182.72,0 330.76,148.23 330.76,330.75z"/>
    <path class="fil39" d="M3368.83 3994.82c0,225.56 -183.04,737.22 -408.84,737.22 -226.13,0 -409.16,-511.66 -409.16,-737.22 0,-225.56 183.03,-408.74 409.16,-408.74 225.8,0 408.84,183.18 408.84,408.74z"/>
    <path class="fil12" d="M2960 4246.28c139.01,0 251.71,-112.58 251.71,-251.46 0,-138.87 -112.7,-251.46 -251.71,-251.46 -139.02,0 -251.72,112.58 -251.72,251.46 0,138.87 112.7,251.46 251.72,251.46z"/>
    <path class="fil5" d="M4423.65 5745.3c0,72.18 -58.63,235.28 -130.56,235.28 -71.92,0 -130.55,-163.1 -130.55,-235.28 0,-71.84 58.63,-130.09 130.55,-130.09 71.93,0 130.56,58.25 130.56,130.09z"/>
    <path class="fil39" d="M4401.94 5702.92c0,88.99 -72.24,290.61 -161.33,290.61 -88.76,0 -161,-201.63 -161,-290.61 0,-89 72.24,-161.17 161,-161.17 89.09,0 161.33,72.17 161.33,161.17z"/>
    <path class="fil12" d="M4240.6 5801.94c54.75,0 99.13,-44.33 99.13,-99.02 0,-54.7 -44.39,-99.03 -99.13,-99.03 -54.75,0 -99.13,44.33 -99.13,99.03 0,54.69 44.39,99.02 99.13,99.02z"/>
    <path class="fil5" d="M5718.18 4656.63c0,101.94 -82.6,332.69 -184.66,332.69 -102.04,0 -184.66,-230.75 -184.66,-332.69 0,-101.95 82.61,-184.47 184.66,-184.47 102.05,0 184.66,82.52 184.66,184.47z"/>
    <path class="fil39" d="M5687.41 4596.44c0,125.9 -102.04,411.01 -228.06,411.01 -125.7,0 -228.07,-285.11 -228.07,-411.01 0,-125.89 102.37,-227.83 228.07,-227.83 126.02,0 228.06,101.95 228.06,227.83z"/>
    <path class="fil12" d="M5459.34 4736.57c77.47,0 140.27,-62.74 140.27,-140.13 0,-77.39 -62.8,-140.13 -140.27,-140.13 -77.48,0 -140.28,62.74 -140.28,140.13 0,77.4 62.8,140.13 140.28,140.13z"/>
   </g>
  </g>
  <polygon class="fil40" points="333.33,3166.67 8166.67,3166.67 8166.67,7833.33 333.33,7833.33 "/>
 </g>
</svg>
