<?xml version="1.0" encoding="UTF-8"?>
<!DOCTYPE svg PUBLIC "-//W3C//DTD SVG 1.1//EN" "http://www.w3.org/Graphics/SVG/1.1/DTD/svg11.dtd">
<!-- Creator: CorelDRAW 2021 (64-Bit) -->
<svg xmlns="http://www.w3.org/2000/svg" xml:space="preserve" width="2550px" height="3300px" version="1.1" style="shape-rendering:geometricPrecision; text-rendering:geometricPrecision; image-rendering:optimizeQuality; fill-rule:evenodd; clip-rule:evenodd"
viewBox="0 0 2550 3300"
 xmlns:xlink="http://www.w3.org/1999/xlink"
 xmlns:xodm="http://www.corel.com/coreldraw/odm/2003">
 <defs>
  <style type="text/css">
   <![CDATA[
    .fil39 {fill:blue;fill-rule:nonzero}
    .fil18 {fill:#2B1710;fill-rule:nonzero}
    .fil26 {fill:#433129;fill-rule:nonzero}
    .fil28 {fill:#5D6ACF;fill-rule:nonzero}
    .fil34 {fill:#693E2F;fill-rule:nonzero}
    .fil25 {fill:#7D2727;fill-rule:nonzero}
    .fil21 {fill:#99715F;fill-rule:nonzero}
    .fil13 {fill:#A3B8F2;fill-rule:nonzero}
    .fil20 {fill:#A9897A;fill-rule:nonzero}
    .fil10 {fill:#B9B9B9;fill-rule:nonzero}
    .fil33 {fill:#BED1EB;fill-rule:nonzero}
    .fil5 {fill:#BFBFD9;fill-rule:nonzero}
    .fil37 {fill:#D1D1D1;fill-rule:nonzero}
    .fil9 {fill:lightgrey;fill-rule:nonzero}
    .fil27 {fill:#D4D4D4;fill-rule:nonzero}
    .fil7 {fill:#D8D8D8;fill-rule:nonzero}
    .fil1 {fill:#DEDEDE;fill-rule:nonzero}
    .fil22 {fill:#E0B3A8;fill-rule:nonzero}
    .fil35 {fill:#E0C9C0;fill-rule:nonzero}
    .fil8 {fill:#E9E9E9;fill-rule:nonzero}
    .fil14 {fill:#F0CFCF;fill-rule:nonzero}
    .fil30 {fill:#F79D5E;fill-rule:nonzero}
    .fil16 {fill:#F99B9B;fill-rule:nonzero}
    .fil17 {fill:#FB9696;fill-rule:nonzero}
    .fil6 {fill:#FF6600;fill-rule:nonzero}
    .fil24 {fill:#FF7E57;fill-rule:nonzero}
    .fil19 {fill:#FF8762;fill-rule:nonzero}
    .fil15 {fill:#FF9F9F;fill-rule:nonzero}
    .fil29 {fill:#FFB17B;fill-rule:nonzero}
    .fil38 {fill:#FFCC00;fill-rule:nonzero}
    .fil32 {fill:#FFCEB3;fill-rule:nonzero}
    .fil31 {fill:#FFD9BF;fill-rule:nonzero}
    .fil12 {fill:white;fill-rule:nonzero}
    .fil4 {fill:url(#id0);fill-rule:nonzero}
    .fil3 {fill:url(#id1);fill-rule:nonzero}
    .fil11 {fill:url(#id2);fill-rule:nonzero}
    .fil0 {fill:url(#id3);fill-rule:nonzero}
    .fil36 {fill:url(#id4);fill-rule:nonzero}
    .fil23 {fill:url(#id5);fill-rule:nonzero}
    .fil2 {fill:url(#id6);fill-rule:nonzero}
   ]]>
  </style>
  <linearGradient id="id0" gradientUnits="userSpaceOnUse" x1="49343.75" y1="204777.63" x2="50156.25" y2="129371.42">
   <stop offset="0" style="stop-opacity:1; stop-color:#F9F9F9"/>
   <stop offset="1" style="stop-opacity:1; stop-color:#FBF0F0"/>
  </linearGradient>
  <linearGradient id="id1" gradientUnits="userSpaceOnUse" xlink:href="#id0" x1="106635.85" y1="989948.53" x2="114268.67" y2="622237.9">
  </linearGradient>
  <linearGradient id="id2" gradientUnits="userSpaceOnUse" x1="869741.19" y1="733635.94" x2="861555.04" y2="297023.44">
   <stop offset="0" style="stop-opacity:1; stop-color:#C4D4FF"/>
   <stop offset="1" style="stop-opacity:1; stop-color:white"/>
  </linearGradient>
  <linearGradient id="id3" gradientUnits="userSpaceOnUse" xlink:href="#id0" x1="85178.35" y1="801914.79" x2="91363.32" y2="504212.55">
  </linearGradient>
  <linearGradient id="id4" gradientUnits="userSpaceOnUse" x1="8862.1" y1="9557.81" x2="8815.47" y2="9514.06">
   <stop offset="0" style="stop-opacity:1; stop-color:#FF6B3D"/>
   <stop offset="1" style="stop-opacity:1; stop-color:#FF8762"/>
  </linearGradient>
  <linearGradient id="id5" gradientUnits="userSpaceOnUse" x1="11931.25" y1="4735.94" x2="11918.75" y2="4717.19">
   <stop offset="0" style="stop-opacity:1; stop-color:#FF8762"/>
   <stop offset="1" style="stop-opacity:1; stop-color:#FF5C47"/>
  </linearGradient>
  <linearGradient id="id6" gradientUnits="userSpaceOnUse" xlink:href="#id0" x1="90054.7" y1="384948.66" x2="91588.3" y2="242440.74">
  </linearGradient>
 </defs>
 <g id="PowerClip_x0020_Contents">
  <metadata id="CorelCorpID_0Corel-Layer"/>
  <path class="fil0" d="M254.24 1709.42c13.22,-14.47 35.08,-19.13 53.16,-9.23 18.76,10.39 33.62,28.35 47.91,39.81 -0.63,4.89 -1.19,9.94 -1.56,14.87 -3.5,40.19 -0.48,82.91 16.43,103.59 0.52,0.58 1,1.17 1.46,1.75 20.99,25.82 22.54,63.88 16.03,106.5 0.2,1.17 0.33,2.33 0.39,3.5 -8.36,44.08 -6.41,101.26 25.85,137.18 2.66,2.92 5.25,5.63 7.78,8.16 21.19,23.49 9.91,43.3 -0.39,82.33 -9.62,35.34 -18.27,74.07 -18.37,116.31l-0.39 -0.19c-33.33,-21.07 18.57,-35.83 -27.11,-69.23 -10.21,-7.38 -18.95,-15.05 -26.24,-22.91 -25.66,-27.67 -34.5,-58.26 -30.62,-91.94 4.86,-43.21 25.95,-50.59 -13.6,-86.41 -39.56,-35.83 -65.51,-85.24 -53.17,-118.55 12.35,-33.3 24.69,-65.43 6.13,-102.52 -15.06,-30.1 -28.48,-61.85 -11.66,-100.58 1.98,-4.54 4.68,-8.75 7.97,-12.44l0 0zm101.07 30.58c0.91,0.77 1.85,1.52 2.82,2.23 24.69,18.45 30.91,8.64 62.98,41.94 3.64,3.83 6.86,8.07 9.53,12.63 21.77,36.5 20.21,95.82 49.85,103.49 33.34,8.64 55.6,49.32 60.55,97.47 4.96,48.16 -6.22,108.74 39.56,133.4 45.77,24.66 8.65,86.41 -23.52,186.51 0,0 -120.22,17.18 -154.14,-3.5 0.09,-42.23 8.75,-80.97 18.37,-116.31 10.3,-39.03 21.57,-58.83 0.38,-82.33 -2.65,-2.64 -5.26,-5.4 -7.77,-8.16 -32.27,-35.92 -34.21,-93.1 -25.85,-137.18 -0.06,-1.16 -0.2,-2.34 -0.4,-3.5 6.52,-42.61 4.96,-80.67 -16.03,-106.5 -0.45,-0.58 -0.94,-1.16 -1.46,-1.75 -16.91,-20.68 -19.92,-63.4 -16.42,-103.59 0.36,-4.93 0.93,-9.95 1.55,-14.84l0 -0.01z"/>
  <path class="fil1" d="M514.41 2110.68l-19.54 57.18c16.62,81.26 16.43,133.11 16.43,133.79 0,1.26 -1.07,2.33 -2.43,2.33 -1.26,0 -2.33,-1.07 -2.33,-2.43 0,-0.58 0.19,-51.94 -16.23,-132.42 -0.2,-0.49 -0.39,-0.97 -0.29,-1.56 -2.83,-13.9 -6.08,-28.03 -9.47,-41.88 -4.96,-19.41 -10.89,-40.87 -18.37,-63.88 -0.28,0.1 -0.52,0.13 -0.75,0.13 -0.03,0 -0.06,0 -0.08,0l-0.49 0 -63.08 -14.85c-1.05,-0.25 -1.81,-1.2 -1.81,-2.29 0,-0.18 0.03,-0.35 0.07,-0.53 0.2,-1.1 1.17,-1.9 2.29,-1.9 0.18,0 0.35,0.02 0.52,0.06l61.72 14.56c-19.83,-60.97 -49.37,-133.01 -93.01,-209.52l-0.1 0.01 -46.94 -14.86c-0.98,-0.28 -1.66,-1.18 -1.66,-2.21 0,-0.24 0.03,-0.47 0.11,-0.7 0.32,-1 1.24,-1.67 2.28,-1.67 0.25,0 0.49,0.04 0.73,0.12l42.08 13.3c-22.18,-38.5 -46.91,-75.81 -73.36,-111.41 -0.32,-0.46 -0.49,-0.95 -0.49,-1.46 0,-0.75 0.36,-1.45 0.96,-1.89 0.41,-0.31 0.91,-0.48 1.42,-0.48 0.74,0 1.45,0.36 1.89,0.96 43.21,58.09 81.21,120.37 112.84,185.48l18.56 -54.27c0.29,-0.9 1.17,-1.56 2.17,-1.56 0.29,0 0.57,0.06 0.84,0.16 1.16,0.39 1.85,1.75 1.46,3.01l-19.83 57.96c-0.06,0.24 -0.16,0.47 -0.29,0.68 38,79.32 61.03,150.87 74.83,206.11 2.98,11.79 5.64,23.11 7.97,33.99l16.91 -49.62c0.3,-0.95 1.18,-1.61 2.18,-1.61 0.29,0 0.57,0.05 0.83,0.16 1.17,0.39 1.85,1.75 1.46,3.01l0 0z"/>
  <path class="fil2" d="M100.97 2054.95c2.72,-11.46 12.83,-20.29 25.27,-20.29 13.7,-0.1 27.6,5.73 38.88,7.28 18.46,2.53 18.85,-4.46 45.48,3.79 3.01,0.87 5.83,2.23 8.65,3.88 22.16,12.92 38.58,44.47 56.47,39.91 20.02,-5.15 43.63,9.8 60.25,33.69 16.72,23.98 28.48,59.03 59.77,58.73 31.3,-0.29 44.9,69.71 57.24,131.66 0,0 -73.95,17.66 -97.67,16.4 -4.28,-0.29 -7,-1.26 -8.84,-2.62 -8.36,-6.5 2.04,-22.43 -25.56,-25.92 -33.82,-4.18 -53.46,-19.71 -63.47,-43.89 -10.01,-24.17 -1.07,-34.17 -32.36,-41.55 -31.3,-7.28 -59.38,-25.73 -62.59,-46.89 -3.21,-21.17 -6.13,-41.65 -26.63,-55.73 -16.72,-11.56 -33.14,-24.37 -35.57,-49.61 -0.29,-3.02 0,-6.03 0.68,-8.84l0 0z"/>
  <path class="fil1" d="M408.37 2293.79c-0.67,0.38 -1.55,0.09 -1.94,-0.59 -0.19,-0.39 -20.51,-37.38 -65.01,-84.95 -9.04,-9.73 -18.59,-19.28 -28.28,-28.36 -0.07,0.14 -0.17,0.24 -0.3,0.3 -0.12,0.07 -0.25,0.1 -0.39,0.1l-37.51 10.59c-0.68,0.19 -1.46,-0.2 -1.75,-0.98 -0.03,-0.11 -0.04,-0.22 -0.04,-0.34 0,-0.67 0.46,-1.25 1.11,-1.4l36.64 -10.4c-33.66,-31.26 -70.78,-59.31 -110.13,-83.06l-29.06 5.82c-0.78,0.2 -1.46,-0.29 -1.65,-1.06 -0.2,-0.78 0.39,-1.56 1.16,-1.75l26.05 -5.24c-22.92,-13.75 -46.8,-26.3 -71.13,-37.28 -0.78,-0.3 -1.07,-1.17 -0.78,-1.85 0.39,-0.78 1.17,-1.07 1.95,-0.68 39.63,17.85 77.91,39.69 113.53,64.69l-6.13 -33.98c-0.02,-0.04 -0.02,-0.1 -0.02,-0.16 0,-0.71 0.49,-1.32 1.18,-1.47 0.78,-0.09 1.56,0.39 1.65,1.17l6.51 36.31c0.07,0.13 0.07,0.29 0,0.49 43.16,30.68 76.1,61.55 99.52,86.6 44.81,47.86 65.22,85.14 65.41,85.53 0.39,0.68 0.1,1.55 -0.58,1.95l-0.01 0z"/>
  <path class="fil3" d="M2269.91 1578.64c20.7,47.77 4.18,86.89 -14.38,123.98 -22.84,45.63 -7.58,85.14 7.58,126.21 15.26,41.07 -16.72,101.95 -65.41,146.02 -48.79,44.08 -22.84,53.21 -16.81,106.41 4.76,41.46 -6.13,79.13 -37.71,113.2 -9.04,9.71 -19.73,19.13 -32.27,28.26 -56.37,41.07 7.58,59.32 -33.53,85.14 -0.14,0.14 -0.3,0.24 -0.48,0.3 -0.1,-51.95 -10.69,-99.71 -22.55,-143.21 -12.74,-48.06 -26.63,-72.43 -0.49,-101.36 3.18,-3.25 6.49,-6.75 9.62,-10.12 39.66,-44.27 42.18,-114.66 31.78,-168.93 0.13,-1.43 0.29,-2.85 0.49,-4.27 -7.97,-52.53 -6.12,-99.42 19.73,-131.27 0.65,-0.64 1.26,-1.32 1.84,-2.03 20.8,-25.54 24.59,-78.16 20.22,-127.68 -0.46,-6.01 -1.11,-12.11 -1.94,-18.11 17.59,-14.27 35.87,-36.31 59,-49.03 22.25,-12.33 49.17,-6.51 65.5,11.26 4.1,4.47 7.42,9.64 9.81,15.23l0 0zm-142.19 25.44c4.38,49.51 0.59,102.13 -20.21,127.67 -0.58,0.7 -1.2,1.39 -1.85,2.03 -25.85,31.85 -27.7,78.74 -19.73,131.27 -0.19,1.4 -0.36,2.85 -0.49,4.27 10.4,54.27 7.87,124.66 -31.78,168.93 -3.13,3.35 -6.44,6.84 -9.63,10.1 -26.15,28.93 -12.25,53.3 0.49,101.36 11.85,43.49 22.45,91.26 22.54,143.2 -41.69,25.44 -189.81,4.27 -189.81,4.27 -39.55,-123.11 -85.23,-199.22 -28.86,-229.61 56.27,-30.39 42.57,-104.95 48.69,-164.27 6.03,-59.32 33.43,-109.42 74.54,-120.1 36.55,-9.42 34.6,-82.43 61.43,-127.38 3.4,-5.72 7.19,-10.97 11.66,-15.63 39.55,-40.97 47.23,-28.83 77.65,-51.65 1.17,-0.84 2.3,-1.71 3.4,-2.62 0.85,6.01 1.5,12.12 1.94,18.15l0.02 0.01z"/>
  <path class="fil1" d="M1941.51 2053.79c1.56,-0.49 3.21,0.29 3.7,1.84l20.89 61.17c2.93,-13.98 6.25,-28.18 9.71,-42 17,-67.96 45.38,-156.12 92.23,-253.78 -0.2,-0.18 -0.37,-0.44 -0.48,-0.73l-24.29 -71.46c-0.12,-0.31 -0.18,-0.65 -0.18,-0.99 0,-1.22 0.77,-2.3 1.93,-2.69 0.32,-0.12 0.66,-0.18 1,-0.18 1.21,0 2.3,0.77 2.69,1.92l22.84 66.9c35.18,-72.43 80.57,-150 138.98,-228.45 0.97,-1.36 2.82,-1.55 4.08,-0.68 1.26,0.97 1.55,2.81 0.58,4.08 -32.58,43.95 -63.02,90.13 -90.31,137.36l51.9 -16.41c0.18,-0.15 0.44,-0.18 0.7,-0.18 1.63,0 2.95,1.32 2.95,2.95 0,1.25 -0.79,2.37 -1.97,2.78l-57.83 18.16 -0.1 0.1c-53.74,94.17 -90.09,182.91 -114.58,257.96l76 -17.87c0.22,-0.05 0.45,-0.08 0.68,-0.08 1.34,0 2.51,0.92 2.82,2.22 0.39,1.55 -0.59,3.2 -2.14,3.49l-77.65 18.25c-0.23,0.06 -0.46,0.1 -0.69,0.1 -0.33,0 -0.66,-0.07 -0.96,-0.19 -9.04,28.44 -16.53,54.85 -22.45,78.73 -4.23,16.78 -8.48,34.57 -11.94,51.58 0.1,0.14 0.11,0.3 0.11,0.46 0,0.47 -0.11,0.94 -0.32,1.36 -20.32,99.13 -20.03,162.43 -20.03,163.11 0,1.65 -1.26,3.01 -2.91,3.01 -1.59,-0.04 -2.88,-1.32 -2.92,-2.91 0,-0.78 -0.29,-64.66 20.12,-164.76l-24 -70.39c-0.49,-1.55 0.39,-3.2 1.84,-3.78l0 0z"/>
  <path class="fil4" d="M1719.44 2177.48c1.46,-6.02 6.8,-10.78 13.41,-10.78 7.29,0 14.68,3.11 20.61,3.88 9.72,1.36 9.91,-2.33 24,2.04 1.64,0.46 3.21,1.15 4.67,2.04 11.66,6.79 20.4,23.59 29.83,21.16 10.6,-2.72 23.13,5.15 31.88,17.87 8.84,12.62 15.06,31.16 31.68,30.97 16.52,-0.1 23.81,36.89 30.23,69.71 0,0 -39.07,9.42 -51.61,8.64 -2.33,-0.1 -3.79,-0.58 -4.76,-1.36 -4.38,-3.4 1.17,-11.85 -13.51,-13.69 -17.88,-2.23 -28.28,-10.39 -33.53,-23.21 -5.35,-12.81 -0.58,-18.15 -17.2,-22.03 -16.53,-3.89 -31.39,-13.6 -33.14,-24.76 -1.66,-11.26 -3.21,-22.14 -14.09,-29.51 -8.85,-6.12 -17.5,-12.92 -18.76,-26.31 -0.07,-0.52 -0.1,-1.05 -0.1,-1.57 0,-1.04 0.13,-2.08 0.39,-3.1l0 0.01z"/>
  <path class="fil1" d="M1882.23 2303.88c-0.39,0.2 -0.88,0.1 -1.07,-0.29 -0.1,-0.19 -10.88,-19.8 -34.4,-44.95 -4.83,-5.14 -9.88,-10.23 -14.97,-15.06l-0.19 0.19c-0.07,0 -0.13,0.03 -0.2,0.1l-19.83 5.53c-0.38,0.1 -0.77,-0.09 -0.87,-0.48 -0.19,-0.39 0.1,-0.87 0.49,-0.97l19.43 -5.44c-17.86,-16.55 -37.5,-31.33 -58.32,-43.95l-15.36 3.11c-0.39,0 -0.78,-0.2 -0.88,-0.68 -0.09,-0.39 0.2,-0.78 0.59,-0.88l13.8 -2.72c-12.13,-7.26 -24.76,-13.98 -37.67,-19.84 -0.39,-0.1 -0.49,-0.58 -0.39,-0.97 0.19,-0.39 0.68,-0.58 1.07,-0.39 23.03,10.49 43.05,22.33 60.06,34.37l-3.21 -18.06c-0.1,-0.38 0.2,-0.77 0.58,-0.87 0.39,0 0.78,0.19 0.88,0.68l3.5 19.22 0 0.2c18.98,13.49 36.71,28.93 52.66,45.94 23.61,25.34 34.5,45.05 34.6,45.24 0.19,0.29 0,0.78 -0.3,0.97l0 0z"/>
  <path class="fil5" d="M1913.53 1438.64c0.05,0 0.11,0 0.17,0 5.8,0 10.49,-4.69 10.49,-10.49 0,-5.79 -4.69,-10.48 -10.49,-10.48 -0.06,0 -0.12,0 -0.18,0 0,0 0,0 0,0 -5.79,0 -10.49,4.69 -10.49,10.49 0,5.79 4.7,10.48 10.49,10.48 0,0 0,0 0,0l0.01 0zm38.67 -10.48c0,0 0.01,0 0.01,0 5.79,0 10.49,-4.7 10.49,-10.49 0,-5.79 -4.7,-10.49 -10.49,-10.49 0,0 -0.01,0 -0.01,0 0,0 0,0 0,0 -5.79,0 -10.49,4.7 -10.49,10.49 0,5.79 4.7,10.49 10.49,10.49 0,0 0,0 0,0l0 0zm38.59 -10.49c0,0 0,0 0,0 5.79,0 10.49,-4.69 10.49,-10.48 0,-5.79 -4.7,-10.49 -10.49,-10.49 0,0 0,0 0,0 0,0 -0.01,0 -0.01,0 -5.79,0 -10.49,4.7 -10.49,10.49 0,5.79 4.7,10.48 10.49,10.48 0,0 0,0 0.01,0l0 0zm38.58 -10.48c0,0 0,0 0,0 5.79,0 10.49,-4.7 10.49,-10.49 0,-5.79 -4.7,-10.49 -10.49,-10.49 0,0 0,0 0,0 0,0 -0.01,0 -0.01,0 -5.79,0 -10.49,4.7 -10.49,10.49 0,5.79 4.7,10.49 10.49,10.49 0,0 0.01,0 0.01,0l0 0zm-157.83 38.54c0.08,0 0.17,0 0.25,0 5.79,0 10.49,-4.69 10.49,-10.48 0,-5.79 -4.7,-10.49 -10.49,-10.49 -0.08,0 -0.17,0 -0.25,0 -0.01,0 -0.01,0 -0.01,0 -5.79,0 -10.49,4.7 -10.49,10.49 0,5.79 4.7,10.48 10.49,10.48 0,0 0,0 0.01,0l0 0zm38.68 -10.48c0,0 0,0 0,0 5.79,0 10.49,-4.7 10.49,-10.49 0,-5.79 -4.7,-10.48 -10.49,-10.48 0,0 0,0 -0.01,0 0,0 0,0 0,0 -5.79,0 -10.49,4.69 -10.49,10.48 0,5.79 4.7,10.49 10.49,10.49 0,0 0,0 0,0l0.01 0zm38.58 -10.49c0,0 0,0 0,0 5.79,0 10.49,-4.69 10.5,-10.48 -0.01,-5.79 -4.71,-10.49 -10.5,-10.49 0,0 0,0 0,0 0,0 -0.01,0 -0.01,0 -5.79,0 -10.49,4.7 -10.49,10.49 0,5.79 4.7,10.48 10.49,10.48 0,0 0.01,0 0.01,0l0 0zm38.58 -10.48c0,0 0.01,0 0.01,0 5.79,0 10.48,-4.7 10.49,-10.49 -0.01,-5.79 -4.7,-10.48 -10.49,-10.48 0,0 -0.01,0 -0.01,0 0,0 -0.01,0 -0.01,0 -5.79,0 -10.48,4.69 -10.49,10.48 0.01,5.79 4.7,10.49 10.49,10.49 0,0 0.01,0 0.01,0l0 0z"/>
  <polygon class="fil6" points="1991.76,1205.73 1882.33,1205.73 1935.2,1099.42 1991.76,1205.73 "/>
  <path class="fil5" d="M1572.49 1222.72l15.26 15.24 -10.59 10.58 -15.26 -15.24 -15.26 15.24 -10.59 -10.58 15.25 -15.24 -15.25 -15.24 10.59 -10.59 15.26 15.24 15.26 -15.24 10.59 10.59 -15.26 15.24zm-966.34 17.18l15.26 15.25 -10.59 10.58 -15.26 -15.24 -15.26 15.24 -10.59 -10.58 15.26 -15.25 -15.26 -15.24 10.59 -10.68 15.26 15.25 15.26 -15.25 10.59 10.68 -15.26 15.24zm586.73 -74.95c20.71,0 37.51,-16.78 37.51,-37.48 0,-20.69 -16.8,-37.47 -37.51,-37.47 -20.72,0 -37.52,16.78 -37.52,37.47 0,20.7 16.8,37.48 37.52,37.48z"/>
  <path class="fil6" d="M435.98 1460.97l8.06 24.85c0.49,1.45 1.85,2.43 3.38,2.43 0.01,0 0.02,0 0.03,0l26.14 0c3.5,0 4.86,4.47 2.14,6.51l-21.19 15.34c-1.26,0.87 -1.85,2.52 -1.36,3.98l8.16 24.85c1.07,3.3 -2.72,6.02 -5.54,3.98l-21.18 -15.34c-0.61,-0.42 -1.34,-0.65 -2.09,-0.65 -0.75,0 -1.48,0.23 -2.09,0.65l-21.19 15.34c-2.81,2.04 -6.51,-0.67 -5.44,-3.98l8.07 -24.85c0.1,-0.35 0.16,-0.72 0.16,-1.09 0,-1.13 -0.53,-2.2 -1.43,-2.89l-21.19 -15.34c-2.81,-2.04 -1.35,-6.51 2.05,-6.51l26.24 0c1.53,-0.01 2.89,-0.98 3.4,-2.42l8.07 -24.86c1.06,-3.3 5.73,-3.3 6.8,0l0 0z"/>
  <path class="fil7" d="M1583.96 2280.39c0,0.03 0,0.06 0,0.09 0,6.49 -5.26,11.75 -11.75,11.75 0,0 -0.01,0 -0.01,0l-269.21 0 -74.83 -9.51 -17.01 -21.55c-4.6,-10.3 -6.9,-17.22 -6.9,-20.78 0,-3.63 17.72,-39.35 53.16,-107.19l260.85 -6.99 -5.93 16.02c1.46,0 2.92,0.3 4.38,0.97 5.92,2.53 8.74,9.52 6.12,15.54l-36.06 83.2c-2.62,6.02 -2.04,12.62 1.56,18.06 3.59,5.44 9.43,8.64 15.94,8.64l67.93 0c0.01,0 0.02,0 0.03,0 6.47,0 11.73,5.25 11.73,11.73 0,0.01 0,0.01 0,0.02l0 0z"/>
  <path class="fil8" d="M1583.96 2280.39c0,0.03 0,0.06 0,0.09 0,6.49 -5.26,11.75 -11.75,11.75 -0.01,0 -0.01,0 -0.01,0l-269.21 0 -0.68 -0.1c0.19,-8.34 0.42,-16.17 0.68,-23.49l269.21 0c0.01,0 0.02,0 0.03,0 6.47,0 11.73,5.25 11.73,11.73 0,0.01 0,0.01 0,0.02l0 0z"/>
  <path class="fil9" d="M1302.99 2292.23l-67.93 0c-0.03,0 -0.06,0 -0.09,0 -14.34,0 -27.72,-7.23 -35.58,-19.22 -7.97,-12.04 -9.23,-27.18 -3.5,-40.48l36.06 -83.21c1.85,-4.32 6.11,-7.12 10.8,-7.12 1.64,0 3.26,0.34 4.75,1 6.02,2.53 8.75,9.52 6.12,15.54l-36.06 83.2c-2.62,6.02 -2.04,12.62 1.56,18.06 3.59,5.43 9.42,8.64 15.94,8.64l67.93 0c6.51,0 11.86,5.24 11.86,11.75 0,0 0,0 0,0.01 0,6.53 -5.3,11.83 -11.84,11.83 -0.01,0 -0.01,0 -0.02,0l0 0z"/>
  <path class="fil10" d="M1844.72 2160.97l-995.3 0c-36.74,0 -68.13,-26.5 -74.26,-62.62l-116.04 -683.79c-5.15,-30.58 18.37,-58.44 49.37,-58.44l995.3 0c36.74,0 68.13,26.5 74.25,62.62l116.05 683.79c5.15,30.58 -18.37,58.44 -49.38,58.44l0.01 0z"/>
  <path class="fil9" d="M1877.27 2160.97l-995.3 0c-36.74,0 -68.13,-26.5 -74.25,-62.62l-116.04 -683.79c-5.15,-30.58 18.37,-58.44 49.37,-58.44l995.3 0c36.74,0 68.13,26.5 74.25,62.62l116.04 683.79c5.15,30.58 -18.36,58.44 -49.37,58.44l0 0z"/>
  <path class="fil8" d="M881.97 2149.13c-31.1,0 -57.34,-22.24 -62.59,-52.82l-116.04 -683.69c-1.85,-11.16 1.26,-22.52 8.55,-31.07 7.2,-8.61 17.85,-13.59 29.07,-13.59 0.03,0 0.06,0 0.09,0l995.3 0c31.1,0 57.34,22.23 62.59,52.82l116.04 683.78c0.34,2.08 0.52,4.19 0.52,6.3 0,9.04 -3.22,17.79 -9.08,24.67 -7.21,8.61 -17.89,13.59 -29.13,13.59 -0.01,0 -0.02,0 -0.02,0l-995.3 0.01z"/>
  <path class="fil11" d="M720.93 1389.13c4.96,-5.93 12.34,-9.32 20.12,-9.32l56.56 0c-1.65,2.23 -2.91,4.75 -3.88,7.47 -1.38,3.56 -2.09,7.35 -2.09,11.17 0,1.53 0.11,3.05 0.33,4.56 27.99,206.86 55.98,413.75 83.98,620.68 0.68,5.43 1.36,10.77 1.84,16.21 0.29,2.91 0.78,5.73 1.36,8.45l-11.76 0c-22.54,0 -41.98,-14.27 -48.88,-34.95 -0.9,-2.59 -1.6,-5.26 -2.04,-7.96 -33.82,-198.25 -67.65,-396.54 -101.47,-594.86 -0.23,-1.42 -0.35,-2.87 -0.35,-4.31 0,-6.28 2.23,-12.36 6.28,-17.14zm70.75 12.13l938.74 0c0.04,0 0.09,0 0.13,0 22.06,0 41.67,14.06 48.75,34.95 0.85,2.59 1.53,5.25 2.04,7.97 -682208.61,116435.84 -682096.06,116773.59 -682096.06,116773.59 682197.7,-116177.24 682197.84,-116175.72 682197.84,-116174.19 0,6.19 -2.22,12.19 -6.24,16.9 -5.01,5.91 -12.38,9.33 -20.14,9.33 -0.02,0 -0.05,0 -0.07,0l-977.52 0c-0.6,-2.78 -1.07,-5.62 -1.36,-8.45 -0.48,-5.44 -1.16,-10.78 -1.84,-16.22 -28,-206.92 -55.99,-413.82 -83.98,-620.68 -0.22,-1.5 -0.33,-3.03 -0.33,-4.55 0,-3.82 0.71,-7.62 2.09,-11.17 0.97,-2.72 2.23,-5.25 3.88,-7.48l-5.93 0z"/>
  <path class="fil12" d="M1431.86 2092.33l-108.07 0c-0.01,0 -0.01,0 -0.02,0 -5.52,0 -9.99,-4.48 -9.99,-9.99 0,0 0,-0.01 0,-0.01 0,-5.53 4.47,-10 10.01,-10l108.07 0c0.01,0 0.01,0 0.02,0 5.52,0 9.99,4.47 9.99,9.99 0,0 0,0.01 0,0.01 0,5.53 -4.47,10 -10.01,10l0 0z"/>
  <path class="fil13" d="M1464.42 2092.33l-0.97 0c-0.01,0 -0.02,0 -0.02,0 -5.52,0 -9.99,-4.47 -9.99,-9.99 0,0 0,-0.01 0,-0.01 0,-5.54 4.47,-10 10.01,-10l0.97 0c0,0 0.01,0 0.02,0 5.51,0 9.99,4.47 9.99,9.99 0,0 0,0.01 0,0.01 0,5.53 -4.47,10 -10.01,10l0 0z"/>
  <path class="fil14" d="M1565.4 1420c14.19,0.78 9.72,11.94 19.43,33.59 9.72,21.65 30.62,5.25 41.89,14.18 11.18,9.03 29.84,11.94 43.35,9.03 13.41,-3.01 20.21,2.91 48.59,16.4 28.38,13.4 29.84,3.01 56.08,11.95 26.14,8.93 3.69,16.4 -2.33,26.11 -5.93,9.71 -16.43,7.48 -30.62,13.4 -14.19,6.02 -10.49,27.67 -13.41,42.62 -3.01,14.96 -17.2,8.93 -31.39,11.17 -9.46,1.49 -7.71,-5.99 5.25,-22.43l0 -18.64c0,-4.47 -11.96,-0.77 -14.29,2.23 -1.49,2.01 -5.96,5.02 -13.41,9.03l-6.71 -9.03 -11.27 -5.92c-14.9,8.42 -22.61,13.4 -23.13,14.95 -0.78,2.24 -2.24,14.86 -2.24,20.88 0,5.92 4.47,6.69 6.71,14.17 2.23,7.48 -4.47,15.63 -5.25,28.35 -0.68,12.72 -11.95,8.25 -17.2,8.25 -5.15,0 -17.89,0 -27.6,3.01 -9.72,2.92 -3.02,26.8 -0.78,38.06 2.23,11.17 -0.78,18.64 -16.42,26.12 -15.75,7.47 -18.67,7.47 -20.9,10.49 -2.24,2.91 -28.48,11.94 -34.41,6.69 -6.02,-5.24 -17.98,-6.69 -28.38,-9.71 -10.49,-3.01 -10.49,0 -21.67,20.2 -11.27,20.1 -6.8,5.92 -11.95,5.14 -5.25,-0.68 -4.57,-10.38 -4.57,-16.4 0,-5.93 -8.16,-5.25 -15.65,-10.39 -7.48,-5.24 -7.48,-9.03 -9.72,-11.26 -2.23,-2.24 -32.16,-17.19 -41.88,-5.93 -9.72,11.17 12.73,11.94 27.69,21.65 14.97,9.71 -11.95,11.17 -17.97,15.63 -5.93,4.47 -29.16,2.24 -29.16,-3.69 0,-6.01 -5.93,-16.41 -16.43,-25.43 -10.49,-8.93 -11.95,-9.71 -9.72,-19.42 2.24,-9.71 2.24,-7.48 -1.46,-14.18 -3.79,-6.7 -14.18,-5.24 -19.43,-11.94 -5.25,-6.7 8.16,-4.46 26.92,-5.24 18.66,-0.68 11.95,-8.16 10.4,-14.17 -1.46,-5.93 -8.17,-12.72 -13.41,-13.4 -5.25,-0.78 -13.51,12.62 -25.47,15.63 -11.95,3.01 -2.23,12.72 -7.48,22.42 -5.15,9.71 -5.93,-0.77 -8.94,-7.47 -3.01,-6.7 0.78,-10.49 0.78,-25.34 0,-9.97 -4.99,-9.23 -14.97,2.23 -5.51,8.42 -9.75,10.91 -12.73,7.48 -4.48,-5.25 -16.43,1.45 -19.44,4.46 -2.92,2.92 -17.88,14.86 -23.13,14.18 -5.25,-0.78 -22.45,-11.94 -20.22,-16.41 2.24,-4.56 17.21,1.46 25.47,-4.56 8.16,-5.92 -8.26,-15.63 -9.72,-23.11 -1.56,-7.47 12.73,-3.01 21.67,-14.17 8.94,-11.17 6.71,-7.48 14.97,-13.5 8.16,-5.92 15.64,0.78 21.67,6.8 5.93,5.92 17.2,-9.03 14.97,-18.74 -2.33,-9.71 0.68,-12.62 5.15,-25.34 4.47,-12.72 -9.72,-14.95 -13.41,-6.02 -3.79,9.03 0.77,20.97 -4.47,32.14 -5.25,11.16 -15.75,-6.7 -22.45,-8.16 -6.71,-1.55 -17.21,-12.04 -14.97,-23.2 2.23,-11.17 16.42,-20.2 20.21,-39.61 3.7,-19.32 22.45,-23.11 41.12,-23.89 18.65,-0.68 29.93,15.73 44.8,25.44 14.96,9.71 16.52,0.78 32.17,-14.18 15.74,-14.95 17.2,-5.24 30.61,-3.01 13.51,2.24 10.5,-6.7 18.76,-17.96 8.16,-11.16 17.88,-5.14 26.82,-11.16 9.04,-5.92 8.26,-17.19 14.97,-26.12 6.71,-8.93 23.91,-3.79 39.65,-4.47 15.65,-0.77 5.25,-17.18 20.22,-16.4 10.43,3.43 20.37,5.4 29.83,5.92l0.01 0zm-265.91 309.22c3.4,3.4 38,10.1 48.69,22.43 10.69,12.43 16.04,25.83 20.8,37.57 4.76,11.75 16.04,18.26 26.14,22.33 10.11,4.08 4.76,18.55 -16.91,31.27 -21.57,12.62 -13.31,19.51 -14.67,32.13 -1.36,12.62 -31.1,51.56 -46.65,63.4 -15.55,11.84 -20.9,-1.46 -21.29,-25.53 -0.48,-24.08 -19.82,-25.44 -19.92,-38.93 0,-13.6 14.77,-18.74 5.25,-27.97 -9.53,-9.32 0,-48.83 -2.73,-51.36 -2.72,-2.62 -55.68,14.28 -74.83,3.98 -19.24,-10.29 5.64,-24.94 2.63,-46.3 -2.92,-21.27 20.4,-21.85 31.68,-28.84 11.27,-7.09 43.54,-6.6 51.8,0.97 4.41,0.97 7.74,2.59 10.01,4.85l0 0zm168.43 149.52c0,13.4 -5.25,17.86 -20.9,26.11 -15.74,8.16 1.46,-17.96 -5.24,-27.67 -6.71,-9.71 16.42,-16.11 18.65,-16.4 13.51,-1.46 7.49,4.46 7.49,17.96zm260.56 -45.34c7.39,24.56 13.51,25.83 36.83,51.55 23.42,25.83 -9.81,24.57 -11.08,52.82 -1.16,28.25 -12.24,50.39 -33.14,49.12 -20.89,-1.26 -23.33,-30.68 -40.52,-58.93 -17.3,-28.25 -52.88,3.69 -89.81,-7.38 -36.83,-11.06 -9.81,-22.13 -22.06,-43.01 -12.34,-20.87 17.2,-15.92 31.88,-40.48 14.77,-24.56 14.77,-13.5 65.21,-1.26 50.34,12.33 25.76,-17.19 33.14,-40.49 20.9,0 22.16,13.49 29.55,38.06zm-97.29 -75.83c-14.19,-2.23 -11.95,-8.25 -23.91,-11.94 -11.95,-3.79 0.78,-18.64 14.2,-21.65 46.35,4.47 23.9,35.83 9.71,33.59l0 0zm21.68 -78.45c-14.97,0 -9.72,27.68 0,29.13 9.71,1.56 8.25,-29.13 0,-29.13zm58.31 73.99c0,11.36 21.67,20.87 14.19,8.93 -7.49,-11.94 -14.19,-14.95 -14.19,-8.93zm-544.06 -336.6c5.25,5.24 3.69,15.63 3.69,17.86 0,2.23 30.72,9.03 47.14,11.94 16.42,3.01 -11.18,16.51 -19.44,23.98 -8.26,7.38 -10.49,8.93 -10.49,32.04 0,23.21 6.8,26.12 -17.21,68.74 -23.9,42.53 0.78,27.57 -11.17,38.84 -11.96,11.16 -29.93,15.63 -34.41,22.33 -4.47,6.79 -5.15,23.2 -8.94,39.61 -3.69,16.4 -12.73,-9.71 -32.17,-44.08 -19.43,-34.37 11.28,-23.11 17.2,-33.59 6.03,-10.49 -30.61,-32.14 -33.62,-41.85 -3.01,-9.61 -12.73,-22.33 -35.08,-24.56 -22.46,-2.23 -10.5,-20.97 -8.27,-28.45 2.24,-7.38 27.7,-23.11 32.85,-35.05 5.25,-11.94 6.03,-22.42 17.98,-25.43 11.96,-2.92 27.7,-4.47 38.1,-18.64 10.5,-14.18 24.68,-13.4 40.43,-13.4 5.44,2.98 9.91,6.21 13.41,9.71l0 0z"/>
  <path class="fil14" d="M1346.14 1418.64c0,-7.47 12.63,-9.71 14.87,-9.71 2.33,0 12.73,25.44 6.03,26.89 -6.71,1.56 -5.25,12.72 -4.47,14.96 0.77,2.23 7.48,17.96 0,17.18 -4.99,-0.52 -8.23,-3.5 -9.72,-8.93 -5.96,12.94 -11.21,18.9 -15.75,17.86 -6.7,-1.45 -5.15,-17.86 -6.7,-20.19 -1.46,-2.24 -11.96,-9.61 -3.02,-23.88 9.04,-14.18 6.81,-9.71 22.45,0 -2.42,-4.32 -3.69,-9.2 -3.69,-14.15 0,-0.01 0,-0.02 0,-0.03l0 0zm-324.99 20.58c7.77,3.21 19.43,14.27 8.45,20.1 -11.08,5.83 -4.57,17.48 -14.97,28.55 -10.4,10.96 -19.43,29.8 -20.11,37.57 -0.68,7.76 -13.03,13.69 -18.18,11.07 -5.15,-2.63 -9.13,-11.66 -11.08,-4.57 -1.94,7.19 20.12,8.45 11.08,18.16 -9.13,9.71 -7.77,12.33 -16.91,9.12 -6.02,-2.2 -14.25,-1.55 -24.68,1.95 5.06,4.56 10.17,9.41 14.97,14.26 7.2,7.09 18.86,3.89 27.31,-4.56 8.36,-8.45 18.18,-9.13 24.01,3.88 5.83,13.01 26.63,16.89 29.16,25.34 2.62,8.35 -2.53,20.1 -3.21,22.04 -0.68,1.94 9.72,13.59 -1.27,13.59 -11.08,0 -18.17,1.94 -20.79,-5.82 -2.63,-7.77 -1.27,-28.55 -5.25,-29.81 -3.89,-1.36 -15.55,-1.36 -15.55,5.15 0,6.5 0.68,13.59 -3.21,16.21 -3.89,2.62 -1.94,3.89 -1.94,5.83 0,1.94 -11.08,1.26 -13.71,3.88 -2.52,2.62 -40.82,11.65 -12.34,24.66 28.57,13.01 26.63,23.98 31.2,27.28 4.56,3.2 16.91,20.68 14.96,3.2 -1.94,-17.47 -18.85,-31.16 -4.56,-36.98 14.28,-5.83 18.85,14.95 26.63,14.95 7.77,0 24,-6.51 25.27,7.76 1.36,14.28 -9.72,24.67 -11.67,26.61 -1.94,1.94 -7.09,10.38 -3.21,12.33 3.89,1.94 -5.83,9.03 -7.77,9.71 -1.94,0.68 -20.8,5.24 -24.1,11.06 -3.21,5.83 -8.36,-1.94 -12.25,19.42 -3.98,21.46 3.21,32.43 -3.3,27.86 -6.51,-4.46 0.68,-16.79 -17.49,-14.27 -18.18,2.62 -28.58,9.13 -11.67,18.16 16.82,9.12 29.84,18.25 31.78,19.51 1.94,1.27 8.46,16.9 16.23,15.54 7.78,-1.27 21.38,-7.77 25.95,-7.77 4.57,0 28.57,6.5 33.72,14.95 5.25,8.45 10.4,12.91 20.8,16.79 10.4,3.89 24.69,7.19 19.54,13.01 -5.25,5.83 -17.59,19.42 -14.29,28.55 3.21,9.03 0.58,10.39 -8.45,13.59 -9.14,3.3 -9.14,14.27 -13.61,23.4 -4.57,9.03 -14.29,12.91 -20.8,15.53 -6.51,2.62 -5.25,11.07 -10.4,18.83 -3.5,5.18 -8.26,14.25 -14.28,27.19l-5.25 15.63c-4.73,8.61 -8.17,11.62 -10.3,9.03 -3.31,-3.88 -9.82,-16.21 -11.09,-23.3 -1.26,-7.19 0,-20.78 2.63,-27.86 2.53,-7.19 10.98,-23.4 7.09,-34.47 -3.88,-10.97 -1.26,-23.3 -8.45,-36.31 -7.1,-12.92 -14.29,-21.36 -12.34,-29.81 1.94,-8.44 11.76,-22.72 9.13,-29.8 -2.62,-7.19 -4.56,-12.33 -9.13,-14.28 -4.47,-1.94 -15.55,-0.68 -21.38,-3.3 -5.84,-2.52 -24.69,-5.82 -31.2,-9.7 -6.42,-3.89 -16.82,-22.05 -18.76,-23.99 -1.94,-1.94 -7.87,-6.5 -13.02,-7.77 -5.15,-1.35 -24.01,-30.48 -24.01,-36.99 0,-6.5 1.95,-40.87 -2.62,-42.13 -4.57,-1.36 -30.52,-47.38 -43.54,-41.55 -12.92,5.82 -24.59,9.12 -25.95,11.65 -0.84,1.74 -6.45,6.5 -16.81,14.27 -4.8,-11.2 -7.42,-18.32 -7.87,-21.36 -0.4,-3.04 0.9,-7.57 3.88,-13.59l-5.83 -13.69 -0.58 -16.21 10.98 -20.69 23.42 -1.36 23.33 9.71 18.85 5.93 20.12 -7.87c15.16,6.54 25.11,10.23 29.83,11.07 7.2,1.26 28.58,3.21 29.26,-3.2 0.68,-6.51 -11.08,-30.49 -12.34,-32.53 -1.27,-1.94 -16.92,-5.82 -17.5,-10.97 -0.68,-5.24 -24,-15.53 -21.48,-22.04 2.63,-6.5 10.4,-15.63 14.29,-15.63 3.89,0 13.02,1.36 18.17,5.25 5.25,3.88 6.52,7.08 9.72,2.62 3.31,-4.57 4.57,-11.07 9.82,-11.75 5.15,-0.58 6.41,-22.62 9.04,-22.62 2.62,0 30.52,-45.44 33.82,-50 3.21,-4.56 16.81,-16.22 27.21,-12.91 6.8,2.08 13.2,5.38 18.85,9.71l0 0z"/>
  <path class="fil12" d="M886.64 1456.51c-1.46,0 -2.92,-0.69 -3.7,-2.05 -1.36,-2.03 -0.77,-4.75 1.37,-6.11 5.23,-3.25 10.79,-6.06 16.52,-8.35 2.23,-0.87 4.86,0.2 5.73,2.53 0.98,2.23 -0.19,4.85 -2.43,5.73 -5.54,2.23 -10.59,4.75 -15.06,7.57 -0.7,0.44 -1.52,0.68 -2.35,0.68 -0.03,0 -0.05,0 -0.08,0l0 0zm371.16 206.11c-1.91,-0.02 -3.62,-1.22 -4.28,-3.01 -3.95,-11.77 -8.61,-23.43 -13.81,-34.74 -0.98,-2.24 0,-4.86 2.23,-5.83 0.61,-0.3 1.25,-0.45 1.91,-0.45 1.71,0 3.25,1.01 3.94,2.57 5.34,11.55 10.15,23.45 14.2,35.53 0.14,0.46 0.22,0.94 0.22,1.41 0,1.92 -1.23,3.62 -3.05,4.23 -0.45,0.19 -0.9,0.29 -1.36,0.29l0 0zm-27.51 -74.47c-1.54,-0.02 -2.97,-0.83 -3.79,-2.13 -6.38,-10.6 -13.48,-21 -20.99,-30.86 -0.62,-0.79 -0.96,-1.75 -0.96,-2.75 0,-1.37 0.65,-2.66 1.74,-3.48 1.94,-1.46 4.76,-1.17 6.22,0.78 7.78,10.1 14.97,20.77 21.58,31.65 0.41,0.7 0.63,1.5 0.63,2.31 0,1.55 -0.79,2.98 -2.09,3.81 -0.69,0.44 -1.5,0.67 -2.32,0.67 -0.01,0 -0.01,0 -0.01,0l-0.01 0zm-43.73 -60.58c-1.16,0 -2.33,-0.39 -3.21,-1.26 -8.62,-8.92 -17.88,-17.4 -27.49,-25.24 -1.03,-0.86 -1.62,-2.13 -1.62,-3.47 0,-0.99 0.33,-1.95 0.93,-2.74 1.56,-1.95 4.37,-2.14 6.32,-0.69 9.85,8.11 19.34,16.82 28.26,25.92 1.75,1.75 1.66,4.56 -0.09,6.22 -0.88,0.87 -1.95,1.25 -3.11,1.25l0.01 0.01zm-83.68 -80.97c-0.77,0 -1.65,-0.29 -2.33,-0.67 -10.48,-6.66 -21.45,-12.82 -32.65,-18.27 -2.24,-1.07 -3.11,-3.69 -2.04,-5.92 0.76,-1.5 2.31,-2.46 4,-2.46 0.67,0 1.32,0.15 1.92,0.43 11.51,5.56 22.77,11.9 33.55,18.75 2.04,1.27 2.62,3.98 1.36,6.12 -0.88,1.27 -2.34,2.04 -3.79,2.04l-0.02 -0.02zm-99.13 -59.8c-0.45,0 -0.94,-0.1 -1.46,-0.29 -11.71,-4.02 -23.84,-7.37 -35.97,-9.9 -2.33,-0.48 -3.89,-2.91 -3.4,-5.24 0.42,-2.09 2.25,-3.59 4.37,-3.59 0.3,0 0.6,0.03 0.89,0.09 12.34,2.62 24.78,6.11 37.03,10.29 2.33,0.77 3.5,3.3 2.72,5.63 -0.58,1.84 -2.33,3.01 -4.18,3.01l0 0zm-152.58 -30c-2.24,0 -4.18,-1.75 -4.47,-3.98 -0.02,-0.18 -0.04,-0.36 -0.04,-0.54 0,-2.27 1.76,-4.15 4.02,-4.32 12.05,-1.45 25.17,-1.65 38.58,-0.78 2.3,0.11 4.1,2.01 4.1,4.31 0,0.12 0,0.24 -0.01,0.35 -0.07,2.34 -1.99,4.19 -4.32,4.19 -0.12,0 -0.23,0 -0.35,-0.01 -12.83,-0.87 -25.46,-0.58 -37.02,0.68 -0.16,0.06 -0.33,0.09 -0.49,0.1l0 0zm330.73 277.18l-0.58 0c-1.94,-0.18 -3.51,-1.66 -3.79,-3.59 -1.17,-5.73 -2.34,-11.46 -3.7,-17.19 -0.48,-2.32 0.97,-4.75 3.31,-5.33 0.31,-0.07 0.63,-0.11 0.95,-0.11 2.07,0 3.87,1.4 4.39,3.41 0.33,1.42 0.65,2.88 0.98,4.36 0.64,-1.36 1.29,-2.68 1.94,-3.98 1.07,-2.23 3.69,-3.1 5.93,-2.03 2.13,1.06 3.11,3.68 2.04,5.92 -2.54,5.2 -5.1,10.63 -7.49,15.93 -0.68,1.58 -2.24,2.61 -3.97,2.61 -0.01,0 -0.01,0 -0.01,0zm26.63 -47.96c-0.68,0 -1.46,-0.2 -2.14,-0.58 -1.39,-0.76 -2.26,-2.22 -2.26,-3.81 0,-0.78 0.21,-1.54 0.61,-2.21 5.34,-9.63 11.23,-19.23 17.23,-28.43 1.26,-2.04 4.08,-2.62 6.12,-1.26 2.04,1.26 2.62,4.08 1.27,6.11 -5.87,9.05 -11.61,18.49 -16.91,27.93 -0.78,1.46 -2.34,2.23 -3.89,2.23l-0.03 0.02zm56.95 -85.34c-0.97,-0.01 -1.92,-0.31 -2.72,-0.87 -1.07,-0.85 -1.7,-2.14 -1.7,-3.5 0,-0.98 0.33,-1.94 0.92,-2.72 6.76,-8.79 14.04,-17.4 21.59,-25.55 1.65,-1.75 4.47,-1.85 6.32,-0.2 1.75,1.65 1.84,4.47 0.19,6.31 -7.38,7.95 -14.51,16.31 -21.1,24.88 -0.85,1.04 -2.12,1.65 -3.47,1.65 -0.01,0 -0.02,0 -0.03,0zm48.59 -49.61c-1.26,0 -2.43,-0.59 -3.3,-1.56 -0.73,-0.81 -1.13,-1.87 -1.13,-2.96 0,-1.28 0.55,-2.5 1.51,-3.35 8.52,-7.22 17.47,-14.01 26.73,-20.19 2.04,-1.36 4.86,-0.87 6.12,1.26 1.36,2.05 0.87,4.76 -1.17,6.12 -8.84,5.83 -17.49,12.43 -25.85,19.61 -0.88,0.68 -1.85,1.07 -2.92,1.07l0.01 0zm52.1 -44.08c-1.73,-0.02 -3.3,-0.99 -4.09,-2.53 -0.97,-2.23 -0.09,-4.85 2.14,-5.92 10.12,-4.8 20.65,-8.91 31.38,-12.15 0.41,-0.1 0.83,-0.16 1.24,-0.16 1.98,0 3.73,1.29 4.31,3.18 0.68,2.33 -0.68,4.76 -3.01,5.54 -10.21,3.01 -20.31,6.99 -30.13,11.65 -0.58,0.25 -1.2,0.39 -1.83,0.39 -0.01,0 -0.01,0 -0.02,0l0.01 0zm162.79 -11.37c-0.4,0 -0.81,-0.06 -1.27,-0.19 -10.49,-3.01 -21.18,-5.44 -31.58,-6.99 -2.17,-0.36 -3.76,-2.24 -3.76,-4.43 0,-0.24 0.02,-0.48 0.06,-0.72 0.29,-2.42 2.63,-4.07 5.05,-3.68 10.99,1.75 22.05,4.24 32.76,7.29 1.89,0.56 3.18,2.31 3.18,4.29 0,0.42 -0.06,0.83 -0.17,1.23 -0.56,1.9 -2.3,3.2 -4.28,3.2l0.01 0zm-93.69 -11.16c-0.02,0 -0.03,0 -0.04,0 -2.21,0 -4.09,-1.61 -4.44,-3.78 -0.02,-0.19 -0.03,-0.38 -0.03,-0.57 0,-2.23 1.62,-4.13 3.82,-4.48 11.08,-1.46 22.36,-2.24 33.63,-2.04 2.43,0 4.37,2.04 4.37,4.46 0,0.02 0,0.04 0,0.06 0,2.38 -1.93,4.31 -4.31,4.31 -0.05,0 -0.1,0 -0.16,0 -0.71,-0.01 -1.44,-0.01 -2.15,-0.01 -10.05,0 -20.18,0.68 -30.12,2.04l-0.57 0.01zm178.24 24.27c-0.65,0 -1.3,-0.16 -1.95,-0.48 -5.19,-2.51 -10.62,-4.97 -15.94,-7.19 -1.63,-0.69 -2.69,-2.29 -2.69,-4.07 0,-0.6 0.12,-1.2 0.36,-1.75 0.87,-2.23 3.5,-3.3 5.74,-2.33 5.53,2.33 10.98,4.75 16.42,7.38 2.24,1.07 3.11,3.78 2.04,5.92 -0.7,1.54 -2.24,2.53 -3.94,2.53 -0.01,0 -0.03,0 -0.04,0l0 -0.01z"/>
  <path class="fil15" d="M2195.27 1892.62l-491.87 0c-14.06,0 -25.46,11.39 -25.46,25.44l0 172.43c0,14.05 11.4,25.43 25.46,25.43l491.87 0c14.06,0 25.46,-11.38 25.46,-25.43l0 -172.43c0,-14.05 -11.4,-25.44 -25.46,-25.44z"/>
  <path class="fil12" d="M2186.62 1863.79l-526.08 0c0,0 0,0 0,0 -4.61,0 -8.35,3.73 -8.36,8.34l0 206.61c0.01,4.61 3.75,8.35 8.36,8.35 0,0 0,0 0,0l526.08 0c0,0 0,0 0,0 4.62,0 8.36,-3.74 8.36,-8.35l0 -206.61c0,-4.61 -3.74,-8.34 -8.35,-8.34 -0.01,0 -0.01,0 -0.01,0l0 0z" filter="url(#g)"/>
  <path class="fil16" d="M1753.07 2047.96c42.08,0 76.19,-34.08 76.19,-76.12 0,-42.03 -34.11,-76.11 -76.19,-76.11 -42.08,0 -76.2,34.08 -76.2,76.11 0,42.04 34.11,76.12 76.2,76.12z"/>
  <path class="fil17" d="M2043.56 1950.19l-158.61 0c-10.79,0 -19.63,-8.73 -19.63,-19.51 0,-10.87 8.84,-19.61 19.63,-19.61l158.61 0c10.79,0 19.54,8.74 19.54,19.61 -0.01,10.78 -8.75,19.51 -19.53,19.51 0,0 -0.01,0 -0.01,0l0 0zm114.29 22.92l-253.46 0c-0.01,-0.01 -0.01,-0.01 -0.01,-0.01 -10.78,0 -19.52,8.74 -19.53,19.52l0 0.1c0.01,10.77 8.75,19.51 19.53,19.51 0,0 0,0 0.01,0l253.46 0c0,0 0.01,0 0.01,0 10.78,0 19.52,-8.74 19.53,-19.51l0 -0.1c-0.01,-10.78 -8.75,-19.52 -19.53,-19.52 0,0 -0.01,0 -0.01,0l0 0.01z"/>
  <path class="fil18" d="M2054.06 1741.17c-0.2,-0.4 0,-0.78 0.29,-0.98 2.33,-0.97 3.59,-2.23 4.08,-3.69 0.88,-2.91 -1.56,-6.6 -3.6,-9.9 -2.04,-3.2 -3.88,-5.92 -2.81,-8.06 0.87,-1.74 0.87,-4.46 -0.1,-7.08 -1.46,-3.99 -4.57,-7.19 -8.56,-8.94 -8.55,-3.69 -11.17,-11.26 -9.32,-16.5 1.55,-4.27 1.94,-13.59 -7.2,-18.16 -9.72,-4.85 -15.55,-13.01 -17.3,-24.17l-50.53 2.62c1.75,8.35 -0.59,15.24 -6.51,19.13 -5.16,3.39 -8.46,12.33 -5.06,18.73 3.99,7.48 -1.07,13.21 -8.16,19.81 -4.47,4.27 -5.35,13.59 -3.6,20.1 1.07,3.59 2.72,6.02 4.57,6.4 0.39,0.1 0.68,0.49 0.58,0.88 -0.09,0.39 -0.48,0.68 -0.87,0.58 -2.53,-0.58 -4.47,-3.2 -5.64,-7.48 -1.94,-6.79 -1.16,-16.7 3.99,-21.55 7.87,-7.38 10.98,-11.94 7.77,-18.06 -3.79,-7.18 -0.19,-16.79 5.64,-20.58 5.54,-3.69 7.58,-10.39 5.64,-18.45 -0.1,-0.19 0,-0.48 0.09,-0.58 0.1,-0.19 0.29,-0.29 0.58,-0.39l52.1 -2.72c0.29,0 0.68,0.3 0.78,0.69 1.55,10.97 7.19,19.02 16.62,23.68 10.1,5.05 9.52,15.25 7.87,20 -1.66,4.66 1.07,11.46 8.55,14.66 4.37,1.85 7.78,5.44 9.33,9.71 1.17,3.11 1.17,6.22 0.1,8.35 -0.68,1.36 0.97,3.98 2.62,6.6 2.33,3.5 4.86,7.58 3.79,11.07 -0.58,1.94 -2.14,3.5 -4.76,4.66 -0.09,0.06 -0.19,0.09 -0.29,0.1 -0.31,0 -0.58,-0.2 -0.68,-0.49l0 0.01z"/>
  <path class="fil18" d="M1944.43 1704.17c6.7,-8.35 8.94,-10.68 6.7,-17.37 -2.33,-6.61 -3.49,-12.72 3.99,-19.91 7.58,-7.18 4.95,-13.01 3.5,-18.83l39.94 -18.16c8.36,1.46 13.32,8.65 13.32,18.16 0,9.61 1.75,16.21 9.81,20.58 8.17,4.27 10.69,13.01 8.36,19.9 -2.24,7 4.96,13.89 10.79,16.8 5.73,2.91 8.36,10.1 6.61,15.63 -1.75,5.44 6.7,6.02 6.7,13.59 0,4.99 -4.63,6.99 -13.89,6.02 -9.63,3.5 -99.33,-6.89 -101.27,-13.59 -2.04,-6.6 -1.17,-14.47 5.44,-22.82l0 0z"/>
  <path class="fil19" d="M1895.83 2074.37c-0.26,1.81 -0.74,5.7 -1.45,11.65l-9.04 0c0,-6.73 -0.13,-10.13 -0.39,-10.19 -6.22,1.26 -11.76,6.89 -14.19,9.12 -2.33,2.24 -23.23,0.59 -24.3,0 -1.84,-2.71 10.21,-4.66 10.69,-5.82 5.25,-9.71 16.91,-20.97 18.57,-24.18 0.39,-0.97 0.77,-2.62 1.16,-4.56 1.17,-6.6 1.36,-13.3 0.78,-20 -0.29,-3.11 -0.68,-6.5 -0.97,-10.1l20.21 -5.44c-0.39,2.99 -0.78,6.68 -1.17,9.6 -0.78,6.12 -1.55,11.46 -2.14,15.63 -0.49,11.36 1.66,19.23 3.79,23.3 2.04,4.18 -1.07,8.26 -1.46,10.97l-0.09 0.02z"/>
  <path class="fil18" d="M1857.06 2079.23c3.79,0.48 7.97,1.25 9.42,0.67 1.95,-0.87 14.87,-16.89 29.06,-20.87 0.59,1.75 1.17,3.21 1.75,4.37 2.05,4.17 -1.06,8.25 -1.46,10.97 -0.26,1.81 -0.74,5.7 -1.45,11.65l-9.04 0c0,-6.73 -0.13,-10.13 -0.39,-10.19 -6.22,1.26 -11.76,6.89 -14.19,9.12 -2.33,2.23 -23.23,0.58 -24.29,0 -1.75,-2.62 9.52,-4.47 10.59,-5.73l0 0.01z"/>
  <path class="fil19" d="M1884.85 1943.59c0.26,1.81 0.88,5.67 1.85,11.55l-8.65 2.53c-1.88,-6.41 -2.95,-9.61 -3.21,-9.61 -5.63,2.91 -9.42,9.9 -11.08,12.72 -1.55,2.81 -22.15,7.18 -23.32,6.89 -2.53,-2.13 8.45,-7.38 8.55,-8.64 2.43,-10.78 10.4,-24.85 10.98,-28.45 0.2,-0.97 0.1,-2.72 -0.1,-4.75 -0.67,-6.61 -2.42,-13.11 -4.86,-19.33 -1.16,-2.91 -2.42,-6.11 -3.79,-9.51l17.89 -10.87c0.52,3.36 1,6.56 1.45,9.61 0.98,6.11 1.76,11.46 2.44,15.63 2.62,10.97 6.99,17.96 10.1,21.26 3.21,3.4 1.37,8.25 1.75,10.97z"/>
  <path class="fil18" d="M1848.99 1959.23c3.79,-0.69 7.97,-1.07 9.23,-2.05 1.65,-1.45 9.53,-20.38 22.06,-28.25 0.98,1.55 1.95,2.82 2.82,3.69 3.21,3.4 1.37,8.26 1.75,10.97 0.26,1.82 0.88,5.67 1.85,11.56l-8.65 2.52c-1.88,-6.41 -2.95,-9.61 -3.21,-9.61 -5.63,2.91 -9.42,9.9 -11.08,12.72 -1.55,2.82 -22.16,7.18 -23.32,6.89 -2.43,-2.13 7.87,-6.99 8.55,-8.44l0 0z"/>
  <path class="fil20" d="M1982.92 1755.05c-12.57,14.76 -30.98,22.59 -55.21,23.49 -36.34,1.46 -66.67,-32.04 -79.5,-56.89l8.56 -12.13c80.57,64.07 75.61,-1.07 103.99,-13.98l22.16 59.51z"/>
  <path class="fil21" d="M2008.38 1694.56c12.63,3.69 19.47,10.43 20.5,20.2 1.66,14.66 -11.17,74.17 -11.17,76.6l-53.16 0c0,-5.31 -1.72,-11 -5.15,-17.09 -5.06,-9.03 -17.59,-23.49 -16.82,-33.1 0.78,-9.62 16.62,-28.26 18.18,-45.63l12.63 -1.95c10.63,1.69 22.29,2.01 34.99,0.97z"/>
  <path class="fil18" d="M1963.67 1653.4c-11.76,-4.86 -6.31,-23.79 7.97,-25.54 28.77,-10.29 36.93,8.64 35.86,27.77 3.79,9.42 -3.69,21.26 -16.52,19.03 -7.84,-4.92 -16.94,-12.01 -27.31,-21.26z"/>
  <path class="fil19" d="M1963.77 1670.48c-1.07,-4.17 -0.1,-10.29 -0.49,-19.02 -0.48,-8.64 2.43,-12.92 7.88,-19.62 14.57,-1.84 18.07,10 18.27,17.48 0.09,7.48 1.94,11.85 7.48,10.39 -0.97,14.08 0.2,24.56 2.53,28.64 2.33,4.18 8.84,5.63 8.84,6.02 0.1,3.59 -34.89,23.4 -35.08,-0.68 7.58,-5.15 7.29,-6.31 6.41,-11.65 -10.3,0.19 -14.77,-7.38 -15.84,-11.55l0 -0.01z"/>
  <path class="fil22" d="M1980.68 1669.13c-6.61,-2.82 -12.92,-2.72 -12.44,-0.39 -0.39,5.73 6.71,11.75 12.44,0.39z"/>
  <path class="fil23" d="M1971.25 1665.34c0,0 -0.58,-0.49 -1.36,-1.17 -0.29,-0.68 -1.17,-1.74 -1.65,-2.33 0.87,0.1 3.3,0.49 4.18,0.2 0.15,0.32 0.22,0.68 0.22,1.04 0,0.96 -0.53,1.83 -1.39,2.26l0 0zm2.33 -6.61c-0.87,0.3 -3.3,-0.09 -4.17,-0.19 -0.09,-0.14 -0.19,-0.27 -0.3,-0.39 0.88,0 2.72,0.1 3.79,-0.29 0.33,0.2 0.57,0.51 0.68,0.87l0 0zm-3.2 1.27c-0.2,-0.26 -0.43,-0.49 -0.68,-0.68 -0.69,-0.68 -1.37,-1.36 -1.56,-1.65 0,-0.1 0.29,0 0.58,0 0.49,0.58 1.36,1.65 1.65,2.33l0.01 0zm-1.65 -2.33c-0.3,0 -0.59,-0.1 -0.59,0 -0.13,-0.13 -0.19,-0.23 -0.19,-0.29 0,0 0.19,-0.1 0.48,-0.1 0.11,0.12 0.21,0.25 0.29,0.39l0.01 0z"/>
  <path class="fil19" d="M1999.63 1667.18c2.47,0 4.47,-2 4.47,-4.46 0,-2.47 -2,-4.47 -4.47,-4.47 -2.47,0 -4.47,2 -4.47,4.47 0,2.46 2,4.46 4.47,4.46l0 0z"/>
  <path class="fil22" d="M1998.76 1665.05c-0.13,0 -0.23,-0.07 -0.29,-0.2 -0.1,-0.19 0,-0.39 0.09,-0.39 0.39,-0.19 0.62,-0.41 0.68,-0.67 -0.02,-0.35 -0.2,-0.68 -0.48,-0.88 -0.29,-0.19 -0.68,-0.19 -1.07,0 -0.07,0.07 -0.17,0.07 -0.29,0 -0.07,-0.06 -0.1,-0.16 -0.1,-0.29 0,-1.07 0.78,-1.94 1.85,-2.23 0.28,-0.1 0.59,-0.16 0.89,-0.16 0.83,0 1.61,0.38 2.12,1.03 0.09,0.1 0,0.29 -0.1,0.39 -0.1,0.1 -0.29,0.1 -0.39,-0.1 -0.43,-0.49 -1.05,-0.77 -1.7,-0.77 -0.21,0 -0.43,0.03 -0.63,0.09 -0.65,0.21 -1.15,0.72 -1.36,1.36 0.1,-0.02 0.21,-0.03 0.31,-0.03 0.27,0 0.54,0.08 0.76,0.23 0.47,0.29 0.76,0.8 0.77,1.36 -0.09,0.29 -0.19,0.87 -0.97,1.16l-0.1 0.1 0.01 0zm-18.27 14.17c-0.1,-0.19 0,-0.29 0.2,-0.39 7.19,-2.04 12.92,-8.06 14.67,-15.43 0,-0.1 0.19,-0.2 0.39,-0.2 0.09,0.1 0.19,0.2 0.19,0.39 -1.85,7.48 -7.68,13.69 -15.06,15.83l-0.1 0c-0.2,0 -0.29,-0.1 -0.29,-0.2l0 0z"/>
  <path class="fil18" d="M1987.58 1649.9c-3.79,-2.04 -8.06,-2.13 -9.52,-1.65 -0.2,0.1 -0.39,0 -0.39,-0.19 -0.1,-0.1 0.1,-0.2 0.19,-0.39 2.24,-4.47 7.49,-1.75 9.92,1.75 0.09,0.19 0.19,0.29 0.19,0.39 -0.06,0.12 -0.16,0.19 -0.29,0.19 -0.07,0 -0.1,-0.03 -0.1,-0.1zm-23.32 0.29c-0.2,-0.09 -0.2,-0.29 -0.1,-0.38 0.1,-0.2 3.4,-5.73 5.44,-1.27 0,0.1 0.19,0.1 0.19,0.29 0,0.2 -0.19,0.29 -0.29,0.29 -3.69,-0.48 -4.86,0.98 -4.86,1.07 -0.06,0.07 -0.16,0.1 -0.29,0.1 -0.06,0 -0.09,-0.03 -0.09,-0.1zm6.61 15.15c-1.76,-1.36 -3.79,-3.01 -3.79,-3.59 0,-0.49 0.67,-0.59 1.84,-0.59 0.88,0 2.04,0 2.62,-0.38 0.88,-0.49 0,-6.02 -1.55,-9.52 -0.1,-0.19 0,-0.39 0.2,-0.39 0.09,-0.09 0.29,0 0.29,0.1 1.36,3.01 2.81,9.51 1.36,10.39 -0.68,0.39 -1.85,0.39 -2.92,0.39 -0.39,0 -0.97,0 -1.26,0.09 0.39,0.49 2.04,1.95 3.5,3.11 0.19,0.1 0.19,0.29 0.09,0.39 -0.06,0.07 -0.16,0.1 -0.29,0.1 -0.06,0 -0.09,-0.03 -0.09,-0.1zm10.49 -6.31c0.97,0 1.75,-1.39 1.75,-3.11 0,-1.71 -0.78,-3.1 -1.75,-3.1 -0.97,0 -1.75,1.39 -1.75,3.1 0,1.72 0.78,3.11 1.75,3.11z"/>
  <path class="fil22" d="M1981.65 1660c-0.1,0 -0.19,-0.1 -0.19,-0.19 0.1,-0.1 0.09,-0.1 0.19,-0.1 0.49,0 1.75,-0.1 2.24,-2.23l0.1 -0.1c0.09,0 0.19,0.1 0.19,0.19 -0.49,2.14 -1.75,2.43 -2.33,2.43l-0.2 0z"/>
  <path class="fil18" d="M1968.34 1659.32c0.96,0 1.75,-1.39 1.75,-3.11 0,-1.71 -0.79,-3.1 -1.75,-3.1 -0.97,0 -1.75,1.39 -1.75,3.1 0,1.72 0.78,3.11 1.75,3.11z"/>
  <path class="fil22" d="M1968.53 1660.39c-0.1,0 -0.1,-0.1 -0.1,-0.2 0,-0.09 0,-0.09 0.1,-0.09 0.59,0 1.85,-0.1 2.24,-2.24 0,-0.09 0.1,-0.09 0.19,-0.09 0,0 0.1,0.09 0.1,0.19 -0.49,2.14 -1.75,2.43 -2.33,2.43l-0.2 0z"/>
  <path class="fil24" d="M1983.69 1662.72c0.68,0.97 1.17,1.75 1.07,1.84 -0.09,0.1 -0.78,-0.58 -1.46,-1.45 -0.68,-0.98 -1.16,-1.75 -0.97,-1.85 0.1,-0.09 0.68,0.58 1.36,1.46zm-1.75 0.19c0.78,0.98 1.17,1.75 1.07,1.85 -0.09,0.09 -0.78,-0.58 -1.45,-1.46 -0.68,-0.87 -1.17,-1.75 -0.98,-1.84 0.1,-0.1 0.68,0.58 1.36,1.45zm-1.84 0.2c0.68,0.97 1.07,1.75 0.97,1.84 -0.1,0.1 -0.78,-0.58 -1.46,-1.45 -0.68,-0.97 -1.16,-1.75 -0.97,-1.85 0.1,-0.1 0.78,0.59 1.46,1.46z"/>
  <path class="fil12" d="M1998.66 1670.87c0.03,0.01 0.05,0.01 0.08,0.01 1.12,0 2.04,-0.92 2.04,-2.04 0,-1.13 -0.92,-2.05 -2.04,-2.05 -0.03,0 -0.05,0 -0.08,0.01 -1.1,0.04 -1.96,0.94 -1.96,2.04 0,1.09 0.86,1.99 1.96,2.03z"/>
  <path class="fil22" d="M1973.98 1677.96c-0.69,0 -1.56,-0.1 -2.44,-0.49 -0.09,0 -0.19,-0.09 -0.19,-0.29 0.1,-0.09 0.19,-0.19 0.29,-0.09 1.85,0.68 3.7,0.29 3.7,0.29 0.09,-0.1 0.29,0 0.29,0.09 0,0.2 -0.1,0.3 -0.2,0.3 0,0 -0.58,0.19 -1.45,0.19l0 0z"/>
  <path class="fil18" d="M1980.68 1669.13l-12.44 -0.39c0,5.63 8.16,8.25 12.44,0.39z"/>
  <path class="fil25" d="M1970.57 1673.01c1.02,-1.49 2.44,-2.66 4.08,-3.4l3.79 -0.58 2.24 0.09c-2.82,5.25 -7.39,5.73 -10.11,3.89l0 0z"/>
  <path class="fil12" d="M1968.24 1668.74l12.44 0.38c-2.82,2.05 -10.49,2.63 -12.44,-0.38z"/>
  <path class="fil26" d="M1974.46 1793.11l14.58 6.79 2.82 56.99 -62.69 8.55c-28.96,-22.79 -45.13,-35.15 -48.49,-37.09 -3.31,-1.88 1.68,28.03 14.96,89.71l-43.05 11.75c-10.24,-53.85 -17.01,-90.98 -20.32,-111.36 -5.05,-30.68 3.5,-54.86 24.88,-56.99 21.38,-2.14 83.39,48.44 86.31,48.44 1.88,0 8.36,-4.88 19.43,-14.66l11.57 -2.13 0 0z"/>
  <path class="fil27" d="M1852.2 1915.92c-0.31,0 -0.58,-0.2 -0.68,-0.48 -0.1,-0.39 0.1,-0.78 0.48,-0.88l32.76 -9.61c0.38,-0.1 0.77,0.1 0.87,0.49 0.1,0.38 -0.1,0.67 -0.49,0.87l-32.75 9.61 -0.19 0z"/>
  <path class="fil26" d="M2016.06 1794.95c15.68,26.54 19.5,49.55 11.47,69.03 -12.15,29.13 -87.67,32.72 -94.76,49.81 -4.8,11.39 -14.42,55.53 -28.87,132.42l-49.56 0c5.96,-81.87 14.99,-133.85 27.11,-155.92 18.18,-33.11 70.56,-57.67 78.04,-63.01 4.99,-3.56 9.98,-14.95 14.97,-34.17l41.6 1.84z"/>
  <polygon class="fil18" points="2018.58,1795.24 1962.89,1795.24 1962.89,1790.19 2018.58,1790.19 "/>
  <path class="fil28" d="M1993.7 1796.41l-2.62 0 0 -7.96 2.62 0 0 7.96zm18.96 0l-2.73 0 0 -7.96 2.73 0 0 7.96z"/>
  <path class="fil27" d="M2011.49 1832.23l-0.2 0c-12.24,-3.01 -18.37,-16.31 -15.45,-33.88 0.1,-0.39 0.39,-0.58 0.78,-0.58 0.39,0.09 0.58,0.48 0.58,0.77 -2.82,16.9 2.92,29.62 14.39,32.34 0.38,0.09 0.68,0.48 0.58,0.87 -0.11,0.28 -0.38,0.48 -0.68,0.48l0 0z"/>
  <path class="fil27" d="M1890 2033.4l-0.19 0c-0.29,-0.1 -0.58,-0.49 -0.48,-0.88 0.77,-4.46 20.79,-109.61 31,-130.09 6.7,-13.4 33.72,-20.3 55.3,-25.83 12.53,-3.2 23.32,-6.02 27.99,-9.32 13.41,-9.32 11.76,-41.46 5.73,-68.35 -0.1,-0.29 0.19,-0.68 0.59,-0.77 0.29,-0.1 0.67,0.19 0.77,0.48 6.13,27.38 7.58,60 -6.32,69.81 -4.85,3.39 -15.74,6.21 -28.37,9.41 -21.39,5.54 -48.02,12.33 -54.43,25.25 -10.2,20.29 -30.71,128.64 -30.9,129.71 -0.1,0.29 -0.39,0.58 -0.69,0.58zm-32.85 2.42c-0.29,0 -0.67,-0.29 -0.67,-0.67 0,-0.39 0.29,-0.68 0.67,-0.68l45.98 -0.2c0.38,0 0.68,0.39 0.68,0.68 0,0 0,0.01 0,0.01 0,0.37 -0.3,0.67 -0.67,0.67 0,0 -0.01,0 -0.02,0l-45.97 0.19 0 0z"/>
  <path class="fil18" d="M1976.31 1629.03l16.71 1.45 3.79 17.29c-15.22,-1.3 -23.77,-6.6 -25.65,-15.93l5.15 -2.81 0 0zm-41.5 70.19c-0.2,-0.39 0,-0.77 0.39,-0.97 0.09,0 5.63,-2.14 6.9,-5.82 0.48,-1.46 0.19,-3.01 -0.88,-4.67 -5.15,-7.86 -2.04,-20.77 6.42,-26.5 7.87,-5.44 9.91,-11.36 11.27,-21.16 0,-0.49 0.39,-0.78 0.78,-0.68 0.48,0.1 0.78,0.39 0.68,0.87 -1.36,10.19 -3.6,16.51 -11.86,22.14 -7.67,5.24 -10.69,17.47 -6.02,24.56 1.29,2.01 1.62,3.98 0.97,5.92 -1.46,4.37 -7.48,6.7 -7.68,6.8l-0.29 0c-0.31,0 -0.58,-0.2 -0.68,-0.49l0 0z"/>
  <path class="fil19" d="M2052.31 1757.57c5.05,16.77 7.45,32.5 7.19,47.19 -0.49,22.13 -10.69,52.62 -10.69,55.82 -0.39,9.23 -8.07,14.08 -13.61,13.4 -5.54,-0.68 -9.04,-1.46 -9.62,-0.19 -0.68,2.03 -4.37,5.04 -6.12,4.56 -1.43,0.84 -2.59,1.03 -3.5,0.58 -0.97,0.65 -1.95,0.49 -2.92,-0.48 0,-3.18 0.17,-5.05 0.49,-5.64 0.32,-0.64 0.84,-1.97 1.55,-3.98 -1.62,1.49 -2.46,2.63 -2.52,3.4 -0.2,1.17 0.19,4.86 -1.46,5.15 -1.17,-3.4 -0.78,-6.41 -0.68,-8.06 0.09,-1.56 3.79,-7.38 6.9,-7.96 3.11,-0.58 15.74,-0.29 16.62,-1.46 0.97,-1.16 -2.82,-56.99 -3.89,-62.14 -0.71,-3.42 -4.53,-15.07 -11.47,-34.95l33.73 -5.24 0 0z"/>
  <path class="fil22" d="M2015.57 1867.57c-0.19,-0.09 -0.19,-0.29 0,-0.48l1.75 -1.94c0.2,-0.1 0.39,-0.2 0.49,0 0.09,0.09 0.19,0.29 0,0.48l-1.75 1.94c-0.07,0.07 -0.17,0.1 -0.29,0.1 -0.07,0 -0.13,-0.03 -0.2,-0.1zm0.1 9.71c0.45,-2.91 0.71,-4.53 0.77,-4.85 0.1,-0.59 1.95,-3.21 2.82,-4.27 0.1,-0.2 0.3,-0.2 0.39,-0.1 0.2,0.1 0.2,0.29 0.1,0.39 -1.26,1.74 -2.53,3.78 -2.62,4.07 -0.07,0.33 -0.33,1.94 -0.78,4.86l-0.68 -0.1zm3.69 -0.29c-0.19,0 -0.19,-0.19 -0.19,-0.39 0,-0.09 0.87,-2.62 1.06,-3.11 0.2,-0.38 2.24,-2.81 2.82,-3.59 0.1,-0.09 0.3,-0.19 0.49,0 0.05,0.06 0.07,0.13 0.07,0.2 0,0.07 -0.02,0.14 -0.07,0.19 -1.26,1.55 -2.63,3.2 -2.72,3.5 -0.2,0.38 -0.98,3.01 -0.98,3.01 -0.09,0.09 -0.19,0.19 -0.38,0.19l-0.1 0z"/>
  <path class="fil20" d="M2058.82 1771.75c4.99,24.21 3.21,48.61 -5.34,73.2 -4.28,1.43 -11.93,1.07 -22.94,-1.06 0,-40.59 -7,-61.95 -15.55,-82.82 -8.46,-20.78 -10.6,-46.99 6.41,-59.23 13.9,0 29.94,33.6 37.42,69.91l0 0z"/>
  <path class="fil19" d="M1848.21 1721.65c-3.82,-8.74 -5.73,-13.85 -5.73,-15.34 0,-2.13 1.36,-6.02 5.15,-9.32 3.79,-3.4 10.4,-5.63 11.57,-8.54 1.16,-2.92 6.8,-5.83 8.74,-4.47 -0.48,1.17 -2.91,5.15 -3.98,7.96 -0.98,2.72 -5.15,7.48 -6.71,9.52 -1.55,2.03 -2.43,3.2 -0.68,8.06l-8.36 12.13 0 0z"/>
  <path class="fil19" d="M1853.22 1697.18c1.56,0 2.82,-3.21 2.82,-7.18 0,-3.97 -1.26,-7.19 -2.82,-7.19 -1.56,0 -2.82,3.22 -2.82,7.19 0,3.97 1.26,7.18 2.82,7.18z"/>
  <path class="fil19" d="M1848.84 1699.22c1.56,0 2.82,-3.22 2.82,-7.19 0,-3.96 -1.26,-7.18 -2.82,-7.18 -1.55,0 -2.81,3.22 -2.81,7.18 0,3.97 1.26,7.19 2.81,7.19z"/>
  <path class="fil19" d="M1844.96 1702.52c1.55,0 2.82,-3.21 2.82,-7.18 0,-3.97 -1.27,-7.19 -2.82,-7.19 -1.56,0 -2.82,3.22 -2.82,7.19 0,3.97 1.26,7.18 2.82,7.18z"/>
  <path class="fil19" d="M1839.72 1696.91c1.06,-0.39 2.91,1.84 4.18,5.05 1.16,3.2 1.36,6.21 0.29,6.6 -1.07,0.39 -2.92,-1.94 -4.08,-5.15 -1.27,-3.2 -1.37,-6.11 -0.39,-6.5z"/>
  <polygon class="fil29" points="905.78,2293.01 489.72,2293.01 489.72,1878.06 905.78,1878.06 905.78,2293.01 "/>
  <polygon class="fil30" points="739.98,2293.01 489.72,2293.01 489.72,1878.06 739.98,1878.06 739.98,2293.01 "/>
  <path class="fil31" d="M643.08 2084.85l-58.5 0 0 -207.47 58.5 0 0 207.47 0 0zm231.41 -141.36l-46.75 0 0 -29.9 46.75 0 0 29.9zm-10.5 45.34c8.11,0 14.68,-6.56 14.68,-14.66 0,-8.09 -6.57,-14.66 -14.67,-14.66 0,0 0,0 0,0 -0.01,0 -0.01,0 -0.01,0 -8.1,0 -14.67,6.57 -14.67,14.66 0,8.1 6.57,14.66 14.67,14.66 0,0 0,0 0.01,0l-0.01 0z"/>
  <polygon class="fil29" points="696.63,1877.67 428.11,1877.67 428.11,1636.02 696.63,1636.02 696.63,1877.67 "/>
  <path class="fil32" d="M494.87 1687.48l-11.46 0 0 44.36 -22.45 0 0 -44.37 -11.47 0.01 22.74 -34.18 22.64 34.18zm60.36 -13.31l-43.25 0 0 -19.7 43.25 0 0 19.7zm-34.31 40.01c0,-0.01 0.01,-0.01 0.01,-0.01 5.95,0 10.78,-4.82 10.78,-10.77 0,-5.96 -4.83,-10.78 -10.78,-10.78 0,0 -0.01,0 -0.01,0 0,0 -0.01,0 -0.01,0 -5.95,0 -10.78,4.82 -10.78,10.78 0,5.95 4.83,10.77 10.78,10.77 0,0 0.01,0 0.01,0l0 0.01z"/>
  <path class="fil33" d="M2221.9 2350l-1937.73 0 0 -6.89c0,-27.67 22.55,-50.2 50.35,-50.2l1837.13 0c27.8,0 50.25,22.53 50.25,50.2l0 6.89 0 0z"/>
  <path class="fil19" d="M1206.77 1806.41c26.73,-3.11 44.52,-16.12 44.13,-18.74 -0.29,-2.62 -2.33,-20.78 -1.46,-22.72 0.88,-2.04 9.62,-3.4 10.59,-4.27 0.65,-0.58 1.33,-2.04 2.05,-4.37 2.23,0.2 5.63,2.81 4.37,6.41 -0.84,2.39 -2.72,4.56 -5.64,6.51l3.69 25.43c2.73,11.85 -32.55,46.02 -51.5,49.9 -10.5,-1.81 -12.57,-14.53 -6.22,-38.15l-0.01 0z"/>
  <path class="fil26" d="M1112.99 1797.47c28.64,14.83 73.02,12.17 133.14,-7.95l11.86 24.46c-27.5,31.26 -116.62,70.1 -135.77,53.01 -12.76,-11.33 -15.84,-34.5 -9.23,-69.52l0 0z"/>
  <path class="fil12" d="M1092.19 1794.56c1.36,-0.32 8.36,0.65 20.99,2.91 21.29,17.38 18.37,64.66 16.82,82.53 -1.04,11.97 1.49,36.76 7.58,74.37 -25.92,25.95 -63.69,30.36 -113.32,13.2 -11.09,-24.66 -11.18,-143.78 -5.93,-152.72 3.49,-6.02 17.46,-12.94 41.89,-20.77l31.97 0.48z"/>
  <polygon class="fil18" points="1049.33,1940.58 1127.08,1940.58 1127.08,1948.64 1049.33,1948.64 "/>
  <path class="fil19" d="M1048.36 2239.71c1.04,14.5 2.78,24.21 5.25,29.12 3.79,7.29 39.26,8.55 47.42,23.98l-75.8 -0.29c-1.1,-8.6 -0.36,-16.31 2.23,-23.1l-3.01 -18.54 23.91 -11.17 0 0z"/>
  <path class="fil18" d="M1041.46 2270.48c-0.1,-2.72 1.84,-12.23 8.75,-15.04 0.77,5.24 1.94,10.48 3.4,13.39 3.79,7.29 39.26,8.55 47.43,23.98l-75.81 -0.29c-1.1,-8.6 -0.36,-16.31 2.23,-23.1 9.14,3.88 13.8,4.24 14,1.06l0 0z"/>
  <path class="fil34" d="M1098.99 2289.81c0.84,0.97 1.53,1.97 2.04,3.01l-75.8 -0.29c-0.07,-0.78 -0.13,-1.79 -0.2,-3.01l73.96 0.29zm-51.02 -17.38c-0.29,-0.1 -0.39,-0.39 -0.29,-0.59 0.09,-0.09 1.26,-3.49 3.79,-4.56 1.16,-0.52 2.39,-0.52 3.69,0 0.15,0.08 0.23,0.24 0.23,0.4 0,0.06 -0.01,0.13 -0.03,0.18 -0.1,0.3 -0.3,0.39 -0.59,0.3 -1.03,-0.46 -2.01,-0.49 -2.91,-0.1 -2.24,0.97 -3.31,4.07 -3.4,4.07 0,0.2 -0.2,0.3 -0.39,0.3l-0.1 0zm14.28 -0.1c-0.14,-0.09 -0.23,-0.24 -0.23,-0.41 0,-0.06 0.02,-0.12 0.04,-0.17 0,-0.1 1.26,-3.5 3.79,-4.57 0.56,-0.25 1.18,-0.39 1.8,-0.39 0.62,0 1.23,0.14 1.8,0.39 0.29,0.1 0.38,0.39 0.29,0.58 -0.1,0.3 -0.39,0.39 -0.59,0.3 -1.03,-0.46 -2,-0.49 -2.91,-0.1 -2.24,0.97 -3.4,4.08 -3.4,4.08 -0.1,0.19 -0.2,0.29 -0.39,0.29l-0.2 0zm15.36 -1.75c-0.19,-0.09 -0.29,-0.39 -0.29,-0.58 0.1,-0.19 1.36,-3.49 3.89,-4.56 0.56,-0.26 1.18,-0.39 1.8,-0.39 0.62,0 1.23,0.13 1.79,0.39 0.2,0.09 0.39,0.38 0.3,0.58 -0.1,0.2 -0.39,0.39 -0.59,0.29 -1.03,-0.45 -2.04,-0.49 -3.01,-0.09 -2.14,0.96 -3.31,4.07 -3.31,4.07 -0.09,0.2 -0.19,0.29 -0.38,0.29l-0.2 0z"/>
  <path class="fil19" d="M1139.23 2239.61c1.1,14.5 2.91,24.21 5.44,29.13 3.69,7.28 39.26,8.44 47.43,23.78l-75.81 0.01c-1.1,-8.61 -0.35,-16.32 2.24,-23.11l-3.11 -18.54 23.81 -11.27 0 0z"/>
  <path class="fil18" d="M1132.42 2270.39c-0.09,-2.63 1.85,-12.14 8.75,-15.05 0.88,5.24 1.95,10.48 3.5,13.4 3.69,7.28 39.26,8.44 47.43,23.78l-75.81 0.01c-1.1,-8.61 -0.36,-16.32 2.24,-23.11 9.13,3.82 13.77,4.14 13.89,0.97l0 0z"/>
  <path class="fil34" d="M1190.06 2289.61c0.81,0.87 1.5,1.85 2.04,2.91l-75.81 0.01c-0.06,-0.78 -0.13,-1.79 -0.19,-3.01l73.96 0.09zm-51.12 -17.28c-0.2,-0.1 -0.29,-0.29 -0.29,-0.58 0.09,-0.1 1.26,-3.4 3.88,-4.57 1.1,-0.51 2.3,-0.48 3.6,0.1 0.19,0.1 0.29,0.29 0.19,0.48 -0.1,0.3 -0.29,0.4 -0.48,0.3 -1.1,-0.45 -2.11,-0.49 -3.02,-0.1 -2.13,0.97 -3.3,4.08 -3.3,4.08 -0.1,0.19 -0.2,0.29 -0.39,0.29l-0.19 0zm7.19 5.05c-0.2,-0.1 -0.39,-0.39 -0.29,-0.58 0.09,-0.1 1.26,-3.5 3.79,-4.57 1.16,-0.51 2.39,-0.51 3.69,0 0.19,0.1 0.29,0.39 0.19,0.59 -0.09,0.29 -0.29,0.38 -0.58,0.29 -1.04,-0.46 -2.01,-0.49 -2.92,-0.1 -2.23,0.97 -3.3,4.08 -3.3,4.08 -0.1,0.19 -0.29,0.29 -0.39,0.29l-0.19 0zm11.76 3.3c-0.2,-0.1 -0.39,-0.29 -0.29,-0.49 0.09,-0.19 1.26,-3.49 3.79,-4.66 1.16,-0.45 2.39,-0.42 3.69,0.1 0.19,0.1 0.29,0.29 0.19,0.58 -0.09,0.2 -0.29,0.29 -0.58,0.2 -1.03,-0.46 -2.01,-0.46 -2.92,0 -2.23,0.97 -3.3,3.98 -3.3,4.07 -0.1,0.1 -0.29,0.29 -0.39,0.29 -0.06,0 -0.13,-0.03 -0.19,-0.09l0 0z"/>
  <path class="fil26" d="M1149.63 2266.7l-38.2 0 -22.45 -177.58 -25.27 177.58 -38.58 0c-1.07,-55.92 -12.54,-266.6 7,-318.35l101.75 0c7.71,77.54 12.96,183.66 15.75,318.35z"/>
  <path class="fil35" d="M1088.98 2083.49c-0.19,0 -0.39,-0.29 -0.39,-0.48l5.06 -90.68c0.07,-0.17 0.21,-0.31 0.39,-0.39l7.48 -1.94 -1.65 -23.49c-0.1,-0.2 0.1,-0.39 0.39,-0.49 0.19,0 0.38,0.19 0.48,0.49l1.65 23.78c0,0 0,0.01 0,0.01 0,0.2 -0.11,0.38 -0.29,0.48l-7.58 1.94 -5.05 90.29c0,0.29 -0.19,0.48 -0.49,0.48l0 0zm37.42 82.92c0,-0.19 0.19,-0.39 0.49,-0.39l33.62 0c0.3,0 0.49,0.2 0.49,0.39 0,0.29 -0.19,0.48 -0.49,0.48l-33.62 0c-0.3,0 -0.49,-0.19 -0.49,-0.48zm-84.55 0.68c0,-0.2 0.19,-0.39 0.48,-0.39l32.75 0c0.2,0 0.4,0.19 0.4,0.39 0,0.29 -0.2,0.49 -0.4,0.49l-32.75 0c-0.29,0 -0.48,-0.2 -0.48,-0.49zm10.1 -277.67c0,-0.19 0.2,-0.39 0.39,-0.39 11.28,-1.16 18.37,-11.46 18.95,-27.57 0,-0.2 0.2,-0.39 0.49,-0.39 0.2,0 0.39,0.19 0.39,0.39 -0.88,24.66 -15.35,27.96 -19.73,28.35 -0.29,0 -0.49,-0.1 -0.49,-0.39zm-9.23 272.72c0,-2.14 1.85,-261.17 8.56,-297.38 0.09,-0.2 0.29,-0.39 0.48,-0.29 0.29,0 0.39,0.29 0.39,0.48 -6.71,36.12 -8.55,294.95 -8.55,297.19 0.09,0.19 -0.1,0.39 -0.39,0.39 -0.2,0 -0.39,-0.1 -0.49,-0.39z"/>
  <path class="fil19" d="M1019.2 1984.95c-0.77,3.79 -5.83,16.31 -2.04,19.91 3.89,3.59 8.07,9.12 7.87,15.53 -0.19,6.5 6.03,12.33 5.45,13.69 -0.49,1.26 -8.07,-2.43 -10.11,-5.83 -2.04,-3.3 -1.36,-5.34 -3.11,-3.98 -1.75,1.36 -4.18,22.33 -4.18,29.23 -0.07,4.52 -1.59,4.2 -4.57,-0.98 -1.94,0.78 -3.59,-0.13 -4.96,-2.71 -4.56,0.97 -6.7,-12.34 -7.87,-11.46 -5.15,1.36 -6.7,-13.2 -4.08,-21.17 2.63,-7.86 6.22,-14.07 6.42,-21.36 0.15,-5.45 0.45,-11.64 0.6,-17.08l20.6 6.21 -0.02 0z"/>
  <path class="fil22" d="M1008.32 2051.26c-0.1,0 -0.2,-0.09 -0.3,-0.29 -0.09,-0.58 -3.2,-14.95 -0.29,-24.08 0.1,-0.19 0.29,-0.29 0.49,-0.19 0.19,0 0.29,0.29 0.29,0.49 -2.91,8.93 0.29,23.49 0.29,23.59 0.1,0.19 -0.09,0.48 -0.29,0.48l-0.19 0zm-5.84 -3.1c-0.12,0 -0.22,-0.07 -0.29,-0.2 -0.19,-0.48 -4.37,-12.13 -2.82,-20.1 0,-0.29 0.29,-0.38 0.49,-0.38 0.18,0.08 0.3,0.27 0.3,0.47 0,0 0,0.01 0,0.01 -1.56,7.77 2.72,19.61 2.81,19.71 0,0 0,0 0,0.01 0,0.2 -0.11,0.38 -0.29,0.47l-0.2 0.01zm-6.11 -12.05c-0.1,0 -0.2,-0.09 -0.3,-0.29 -1.07,-5.33 -0.68,-8.05 -0.68,-8.25 0,-0.19 0.2,-0.29 0.49,-0.29 0.19,0 0.29,0.19 0.29,0.49 0,0 -0.39,2.72 0.68,7.86 0.1,0.29 -0.1,0.48 -0.29,0.48l-0.19 0z"/>
  <path class="fil26" d="M1124.07 1973.4c-2.05,-21.36 -3.7,-72.33 -3.4,-87.28 0.29,-20.2 0.68,-66.6 -21.48,-90.97 4.08,0.58 8.74,1.36 13.99,2.32 21.29,17.39 18.37,64.67 16.81,82.53 -1.03,11.97 1.95,39.97 8.95,83.98 -3.6,3.49 -10.79,6.89 -14.88,9.42l0.01 0zm-99.81 -5.83c-11.08,-24.66 -11.18,-143.78 -5.93,-152.72 3.3,-5.53 18.37,-12.13 29.45,-16.4 13.31,21.07 19.34,41.26 16.81,93.78 -0.55,12.03 -0.91,24.37 -0.91,36.52 0,15.56 0.53,31.29 1.52,46.76 -15.29,-1.17 -28.93,-3.82 -40.92,-7.96l-0.02 0.02z"/>
  <path class="fil26" d="M1023.19 1810.1c11.66,9.03 25.46,28.73 14.38,66.21 -7.39,24.98 -10.46,66.73 -9.23,125.24l-40.24 1.56c-7.96,-59.22 -1.84,-173.01 35.09,-193.01l0 0z"/>
  <path class="fil18" d="M1072.46 1772.43c-8.29,-2.07 -13.09,-5.08 -14.38,-9.03 -1.85,-5.83 -4.38,-22.43 -2.82,-28.93 2.52,-10.58 20.99,-15.34 30.03,-12.92 11.17,2.92 13.7,5.05 14.09,9.91 0.49,4.85 -1.26,9.51 -4.28,13.3l-22.64 27.67 0 0z"/>
  <path class="fil19" d="M1056.23 1795.53c5.44,-2.78 7.36,-11.55 5.74,-26.3l-0.98 -8.74c4.28,2.91 6.22,-2.33 5.64,-5.64 -0.39,-2.26 -0.88,-5.88 -1.46,-10.87 3.69,1.81 5.57,0.32 5.64,-4.46 2.91,1.45 -4.67,-22.04 26.92,-5.05 0.87,5.53 1.94,17.96 1.55,25.14 -0.77,15.05 0.49,25.34 -12.63,27.57 0,5.44 0.19,7.38 5.64,7.38 -3.11,8.55 -28.28,6.12 -36.06,0.97l0 0z"/>
  <path class="fil36" d="M1098.51 1763.01c0,0.07 -0.17,0.13 -0.49,0.19 0,-0.12 -0.09,-0.38 -0.29,-0.77 0.29,0 0.58,0.19 0.58,0.19 0.2,0.2 0.26,0.32 0.2,0.39zm-0.2 -0.39c0,0 -0.29,-0.19 -0.58,-0.19 -0.68,-1.17 -2.53,-3.5 -4.08,-5.05l0.87 0.87c1.56,1.65 3.21,3.5 3.79,4.37zm-0.29 0.58c-1.84,0.2 -7.09,0.59 -7.09,0.59l0 -3.6c0,0 5.05,2.33 6.8,2.24 0.2,0.39 0.29,0.65 0.29,0.77zm-0.29 -0.77c-1.75,0.09 -6.8,-2.24 -6.8,-2.24l0 -5.73c0,0 1.26,1.27 2.72,2.92 1.55,1.55 3.4,3.88 4.08,5.05z"/>
  <path class="fil18" d="M1094.13 1757.18c1.02,0 1.85,-1.52 1.85,-3.39 0,-1.88 -0.83,-3.4 -1.85,-3.4 -1.02,0 -1.84,1.52 -1.84,3.4 0,1.87 0.82,3.39 1.84,3.39zm-14.28 0.59c1.02,0 1.84,-1.53 1.84,-3.4 0,-1.88 -0.82,-3.4 -1.84,-3.4 -1.02,0 -1.85,1.52 -1.85,3.4 0,1.87 0.83,3.4 1.85,3.4z"/>
  <path class="fil22" d="M1076.44 1755.92c0,-0.19 0.1,-0.38 0.3,-0.38 0.19,0 0.39,0.09 0.39,0.29 0.06,1.57 1.36,2.81 2.94,2.81 0.06,0 0.11,0 0.17,0 0.19,0 0.39,0.19 0.39,0.29 0,0.19 -0.2,0.39 -0.3,0.39l-0.19 0c-1.95,0 -3.6,-1.45 -3.7,-3.4l0 0z"/>
  <path class="fil18" d="M1090.73 1763.69c0,-0.1 0.1,-0.29 0.29,-0.29 3.02,-0.1 6.42,-0.29 7.2,-0.49 -0.39,-0.58 -2.14,-2.43 -3.5,-3.88 -2.63,-2.72 -4.38,-4.57 -4.57,-5.34 -0.58,-1.94 -0.49,-3.98 0.29,-6.51 0.13,-0.12 0.31,-0.19 0.49,-0.19 0.1,0.1 0.17,0.24 0.19,0.39 -0.77,2.33 -0.87,4.36 -0.39,6.11 0.2,0.68 2.53,3.11 4.38,5.05 3.01,3.11 3.88,4.08 3.79,4.56 0,0.1 0,0.2 -0.1,0.3 -0.58,0.39 -5.64,0.58 -7.78,0.68 -0.19,0 -0.29,-0.2 -0.29,-0.39l0 0z"/>
  <path class="fil24" d="M1081.11 1760.78c0.19,-0.2 1.07,0.77 2.04,2.04 0.88,1.35 1.46,2.52 1.27,2.71 -0.2,0.2 -1.17,-0.77 -2.04,-2.13 -0.98,-1.26 -1.56,-2.53 -1.27,-2.62zm-2.82 0c0.2,-0.1 1.17,0.77 2.04,2.13 0.98,1.36 1.56,2.53 1.27,2.72 -0.2,0.1 -1.07,-0.87 -2.04,-2.13 -0.88,-1.36 -1.46,-2.53 -1.27,-2.72l0 0zm-2.91 0c0.29,-0.2 1.16,0.77 2.14,2.04 0.87,1.35 1.45,2.52 1.26,2.71 -0.29,0.2 -1.17,-0.77 -2.14,-2.13 -0.87,-1.26 -1.46,-2.53 -1.26,-2.62z"/>
  <path class="fil19" d="M1057.4 1769.32c0.06,0 0.12,0 0.19,0 3.11,0 5.63,-2.52 5.63,-5.63 0,-3.11 -2.52,-5.63 -5.63,-5.63 -0.07,0 -0.13,0 -0.19,0 -0.06,0 -0.13,0 -0.19,0 -3.11,0 -5.63,2.52 -5.63,5.63 0,3.11 2.52,5.63 5.63,5.63 0.06,0 0.13,0 0.19,0l0 0z"/>
  <path class="fil22" d="M1058.47 1766.7c-1.07,-0.39 -1.27,-1.17 -1.27,-1.55 -0.09,-0.59 0.29,-1.36 0.88,-1.75 0.34,-0.22 0.74,-0.33 1.15,-0.33 0.13,0 0.27,0.01 0.4,0.04 -0.3,-0.83 -0.99,-1.45 -1.84,-1.66 -0.88,-0.29 -2.24,-0.29 -3.02,0.88 -0.09,0.1 -0.38,0.19 -0.48,0 -0.2,-0.1 -0.3,-0.3 -0.1,-0.49 0.78,-1.16 2.33,-1.55 3.79,-1.16 1.46,0.48 2.43,1.55 2.43,2.91 0,0.2 -0.07,0.32 -0.19,0.39 -0.07,0.06 -0.17,0.06 -0.3,0 -0.48,-0.19 -0.97,-0.19 -1.36,0.1 -0.39,0.21 -0.65,0.62 -0.68,1.07 0.07,0.38 0.36,0.67 0.88,0.87 0.19,0.09 0.29,0.29 0.19,0.49 -0.1,0.09 -0.19,0.19 -0.39,0.19l-0.09 0z"/>
  <path class="fil18" d="M1073.92 1748.25c-0.1,-0.09 0,-0.19 0.1,-0.19 0.09,0 4.27,-4.66 9.81,-1.26 0.1,0.09 0.2,0.09 0.2,0.29 -0.01,0.1 -0.09,0.18 -0.2,0.19 -4.66,0 -9.62,1.17 -9.72,1.17 -0.12,0 -0.19,-0.07 -0.19,-0.2l0 0zm20.8 41.07c-19.25,-1.07 -21.97,-16.89 -22.94,-23.11 -0.1,-1.26 2.04,-2.03 0.87,-6.11l3.6 -6.22c0.45,3.5 3.53,6.51 9.23,9.03 8.46,3.69 22.84,2.23 23.72,0.49 4.76,13.1 4.76,26.99 -14.48,25.92l0 0zm14.38 -42.43c-2.53,-0.58 -6.13,-0.77 -6.13,-0.77 -0.1,-0.01 -0.18,-0.1 -0.19,-0.2 0,-0.1 0.2,-0.1 0.2,-0.19 0.87,-2.04 4.96,-2.82 6.22,0.77 0,0.1 0.19,0.1 0.09,0.2 0,0.1 -0.09,0.19 -0.19,0.19l0 0z"/>
  <path class="fil19" d="M1089.86 1769.32c4.37,-0.97 7.38,-2.23 6.9,0.87 -0.49,3.21 -2.72,5.93 -6.71,6.41 -3.98,0.58 -10.59,-0.58 -13.31,-4.27 -2.63,-3.69 0.29,-6.21 4.27,-4.47 4.09,1.66 7.2,1.85 8.85,1.46z"/>
  <path class="fil18" d="M1078.68 1770.1c-0.05,-0.06 -0.07,-0.13 -0.07,-0.2 0,-0.07 0.02,-0.14 0.07,-0.19 0.1,-0.2 0.29,-0.2 0.39,-0.1 1.17,0.87 9.33,3.11 16.13,1.26 0.1,-0.09 0.29,0 0.29,0.2 0.1,0.09 0,0.29 -0.19,0.29 -1.94,0.58 -4.08,0.78 -6.02,0.78 -5.06,0 -9.63,-1.36 -10.6,-2.04l0 0z"/>
  <path class="fil22" d="M1085.48 1774.85c-0.19,0 -0.19,-0.19 -0.19,-0.38 0.11,-0.11 0.24,-0.17 0.39,-0.2 0.1,0 2.43,0.88 5.05,0.29 0.2,0 0.39,0.1 0.39,0.2 0.1,0.19 0,0.39 -0.19,0.39 -0.76,0.16 -1.53,0.25 -2.3,0.25 -0.37,0 -0.74,-0.02 -1.1,-0.06 -1.17,-0.19 -1.95,-0.39 -2.04,-0.49l-0.01 0z"/>
  <path class="fil37" d="M1074.02 1818.64c-10.6,-5.14 -16.14,-13.98 -16.14,-13.98 -0.1,-0.19 -0.1,-0.48 0.1,-0.58 0.2,-0.1 0.39,0 0.49,0.19 0.09,0 5.34,8.55 15.55,13.6l9.81 -15.54 0.2 -0.19c0.13,0 0.22,0.03 0.29,0.09l15.26 10.49c0.19,0.1 0.19,0.29 0.09,0.48 -0.09,0.2 -0.38,0.2 -0.48,0.1l-14.97 -10.29 -9.72 15.53c-0.06,0.13 -0.16,0.2 -0.29,0.2 -0.07,0 -0.13,-0.03 -0.19,-0.1l0 0z"/>
  <path class="fil38" d="M1084.22 1803.11c6.93,4.53 10.43,6.89 10.5,7.08 1.36,5.64 -0.58,15.73 -0.88,15.54 -4.21,-0.52 -7.35,-0.07 -9.42,1.36 -3.63,-2.33 -6.03,-6.61 -7.2,-12.82l7 -11.16 0 0z"/>
  <path class="fil38" d="M1093.84 1825.73c9.14,11.26 14,41.26 11.76,58.74 -1.55,11.65 1.3,24.04 8.55,37.18l-13.21 33.98c-16.4,-18.9 -24.95,-28.8 -25.66,-29.71 -6.61,-16.89 8.55,-36.02 11.37,-52.62 1.94,-11.07 1.2,-26.47 -2.24,-46.21 1.88,-2.14 5.03,-2.59 9.43,-1.36z"/>
  <path class="fil5" d="M1027.07 1230.78c0,54.75 -44.41,178.93 -99.23,178.93 -54.9,0 -99.32,-124.18 -99.32,-178.93 0,-54.76 44.42,-99.23 99.32,-99.23 54.82,0 99.23,44.47 99.23,99.23z"/>
  <path class="fil39" d="M1010.65 1198.45c0,67.67 -54.91,221.16 -122.65,221.16 -67.84,0 -122.75,-153.49 -122.75,-221.16 0,-67.67 54.91,-122.63 122.75,-122.63 67.74,0 122.65,54.96 122.65,122.63z"/>
  <path class="fil12" d="M888 1273.88c41.7,0 75.51,-33.77 75.51,-75.43 0,-41.67 -33.81,-75.44 -75.51,-75.44 -41.71,0 -75.52,33.77 -75.52,75.44 0,41.66 33.81,75.43 75.52,75.43z"/>
  <path class="fil5" d="M1327.09 1723.59c0,21.65 -17.59,70.58 -39.17,70.58 -21.57,0 -39.16,-48.93 -39.16,-70.58 0,-21.55 17.59,-39.03 39.16,-39.03 21.58,0 39.17,17.48 39.17,39.03z"/>
  <path class="fil39" d="M1320.58 1710.88c0,26.69 -21.67,87.18 -48.4,87.18 -26.63,0 -48.3,-60.49 -48.3,-87.18 0,-26.7 21.67,-48.35 48.3,-48.35 26.73,0 48.4,21.65 48.4,48.35z"/>
  <path class="fil12" d="M1272.18 1740.58c16.43,0 29.74,-13.3 29.74,-29.7 0,-16.41 -13.31,-29.71 -29.74,-29.71 -16.42,0 -29.74,13.3 -29.74,29.71 0,16.4 13.32,29.7 29.74,29.7z"/>
  <path class="fil5" d="M1715.45 1396.99c0,30.58 -24.78,99.81 -55.39,99.81 -30.62,0 -55.4,-69.23 -55.4,-99.81 0,-30.58 24.78,-55.34 55.4,-55.34 30.61,0 55.39,24.76 55.39,55.34z"/>
  <path class="fil39" d="M1706.22 1378.93c0,37.77 -30.61,123.3 -68.42,123.3 -37.71,0 -68.42,-85.53 -68.42,-123.3 0,-37.76 30.71,-68.35 68.42,-68.35 37.81,0 68.42,30.59 68.42,68.35z"/>
  <path class="fil12" d="M1637.8 1420.97c23.24,0 42.08,-18.82 42.08,-42.04 0,-23.21 -18.84,-42.04 -42.08,-42.04 -23.24,0 -42.08,18.83 -42.08,42.04 0,23.22 18.84,42.04 42.08,42.04z"/>
 </g>
</svg>
