<svg xmlns="http://www.w3.org/2000/svg" width="752" height="449" fill="none" viewBox="0 0 752 449">
  <g clip-path="url(#a)">
    <path fill="url(#b)" d="M49.356 243.513c4.23-4.629 11.227-6.12 17.012-2.951 6.002 3.324 10.76 9.072 15.332 12.738a86.61 86.61 0 0 0-.498 4.753c-1.12 12.862-.155 26.532 5.256 33.15.166.186.322.373.467.559 6.718 8.264 7.215 20.443 5.131 34.081.063.373.104.746.125 1.119-2.675 14.105-2.053 32.404 8.272 43.899.85.932 1.68 1.802 2.488 2.61 6.78 7.518 3.173 13.856-.124 26.345-3.079 11.309-5.847 23.705-5.878 37.22l-.124-.062c-10.668-6.742 5.94-11.464-8.677-22.152-3.266-2.361-6.065-4.815-8.397-7.332-8.21-8.854-11.04-18.641-9.797-29.421 1.555-13.825 8.304-16.187-4.354-27.651-12.658-11.464-20.961-27.277-17.012-37.934 3.95-10.656 7.9-20.94 1.96-32.807-4.82-9.632-9.112-19.791-3.732-32.187a15.024 15.024 0 0 1 2.55-3.977ZM81.7 253.3c.29.248.591.487.902.714 7.9 5.903 9.89 2.765 20.153 13.422a21.802 21.802 0 0 1 3.048 4.039c6.966 11.681 6.468 30.664 15.954 33.118 10.667 2.765 17.789 15.783 19.375 31.192 1.586 15.41-1.99 34.796 12.658 42.688 14.648 7.891 2.768 27.65-7.526 59.681 0 0-38.471 5.499-49.325-1.118.031-13.515 2.8-25.911 5.878-37.22 3.297-12.489 6.904-18.827.124-26.345a78.538 78.538 0 0 1-2.488-2.61c-10.325-11.495-10.947-29.794-8.272-43.899a9.897 9.897 0 0 0-.125-1.119c2.084-13.638 1.587-25.817-5.131-34.081-.145-.186-.3-.373-.467-.559-5.411-6.618-6.375-20.288-5.255-33.15a86.61 86.61 0 0 1 .497-4.753Z"/>
    <path fill="#DEDEDE" d="m132.611 371.918-6.251 18.299c5.318 26.003 5.256 42.594 5.256 42.811 0 .404-.342.746-.778.746-.404 0-.746-.342-.746-.777 0-.186.062-16.621-5.194-42.377-.062-.155-.124-.31-.093-.497a370.411 370.411 0 0 0-3.048-13.39c-1.586-6.213-3.483-13.08-5.878-20.443a.8.8 0 0 1-.249.031h-.155l-20.184-4.753a.75.75 0 0 1-.56-.901.747.747 0 0 1 .902-.59l19.748 4.66c-6.344-19.511-15.798-42.563-29.762-67.045h-.031l-15.022-4.753a.734.734 0 0 1-.497-.932.768.768 0 0 1 .964-.497l13.466 4.256A374.715 374.715 0 0 0 61.02 250.1a.747.747 0 0 1 .155-1.056.749.749 0 0 1 1.057.155A370.18 370.18 0 0 1 98.34 308.57l5.94-17.367a.728.728 0 0 1 .964-.466c.373.124.591.559.466.963l-6.344 18.548a.693.693 0 0 1-.093.217c12.16 25.383 19.53 48.28 23.947 65.957.953 3.77 1.803 7.395 2.55 10.874l5.411-15.876a.73.73 0 0 1 .964-.466c.374.125.591.56.467.964Z" style="mix-blend-mode:multiply"/>
    <path fill="url(#c)" d="M.31 354.084c.872-3.666 4.106-6.493 8.087-6.493 4.385-.031 8.832 1.833 12.44 2.33 5.909.808 6.033-1.429 14.555 1.212.964.28 1.866.715 2.768 1.243 7.09 4.132 12.346 14.229 18.069 12.769 6.406-1.647 13.964 3.138 19.282 10.78 5.35 7.674 9.112 18.89 19.126 18.796 10.015-.093 14.369 22.307 18.318 42.129 0 0-23.667 5.654-31.255 5.25-1.369-.093-2.24-.404-2.83-.839-2.675-2.081.653-7.177-8.18-8.295-10.822-1.336-17.105-6.307-20.308-14.043-3.203-7.736-.342-10.936-10.356-13.297-10.015-2.33-19.003-8.233-20.029-15.006-1.026-6.772-1.96-13.328-8.521-17.833C6.126 369.09.87 364.989.093 356.912c-.093-.964 0-1.927.218-2.828Z"/>
    <path fill="#DEDEDE" d="M98.68 430.512c-.217.124-.497.031-.621-.187-.063-.124-6.563-11.961-20.806-27.184a176.355 176.355 0 0 0-9.05-9.072.206.206 0 0 1-.094.093.272.272 0 0 1-.124.031L55.98 397.58c-.217.062-.466-.063-.56-.311a.463.463 0 0 1 .343-.559l11.724-3.325a216.215 216.215 0 0 0-35.236-26.594l-9.3 1.864c-.248.062-.466-.093-.528-.341-.062-.249.125-.498.373-.56l8.335-1.677a228.527 228.527 0 0 0-22.765-11.93c-.249-.094-.342-.373-.249-.591.125-.248.373-.342.622-.217a224.443 224.443 0 0 1 36.325 20.722l-1.96-10.874a.478.478 0 0 1 .374-.528c.249-.031.498.124.529.373l2.083 11.619c.021.042.021.094 0 .156 13.809 9.817 24.352 19.697 31.847 27.712 14.337 15.317 20.868 27.247 20.93 27.371.125.218.031.497-.186.622Z" style="mix-blend-mode:multiply"/>
    <path fill="url(#d)" d="M694.372 201.665c6.624 15.285 1.337 27.806-4.603 39.674-7.309 14.602-2.426 27.246 2.426 40.388 4.882 13.142-5.35 32.621-20.931 46.726-15.612 14.105-7.308 17.026-5.38 34.051 1.524 13.266-1.959 25.32-12.067 36.225-2.892 3.107-6.313 6.12-10.325 9.041-18.038 13.142 2.426 18.982-10.73 27.246a.385.385 0 0 1-.155.094c-.031-16.622-3.421-31.907-7.215-45.826-4.075-15.378-8.522-23.176-.156-32.435a157.868 157.868 0 0 0 3.079-3.231c12.689-14.167 13.497-36.691 10.17-54.058.041-.456.093-.911.155-1.367-2.55-16.808-1.959-31.813 6.314-42.004.207-.207.404-.424.59-.652 6.656-8.171 7.869-25.01 6.469-40.855a89.85 89.85 0 0 0-.622-5.809c5.629-4.567 11.476-11.62 18.878-15.69 7.122-3.945 15.737-2.081 20.961 3.604a17.274 17.274 0 0 1 3.142 4.878Zm-42.359 13.017c1.4 15.845.187 32.684-6.469 40.855a8.695 8.695 0 0 1-.59.652c-8.273 10.191-8.864 25.196-6.314 42.004a30.24 30.24 0 0 0-.155 1.367c3.327 17.367 2.519 39.891-10.17 54.058a157.868 157.868 0 0 1-3.079 3.231c-8.366 9.259-3.919 17.057.156 32.435 3.794 13.919 7.184 29.204 7.215 45.826-13.342 8.139-60.739 1.367-60.739 1.367-12.657-39.395-27.275-63.752-9.236-73.476 18.007-9.724 13.621-33.585 15.581-52.567 1.928-18.983 10.698-35.014 23.853-38.431 11.694-3.014 11.072-26.377 19.656-40.761 1.088-1.833 2.301-3.511 3.732-5.002 12.657-13.111 15.114-9.227 24.849-16.528.373-.27.736-.549 1.088-.839a89.85 89.85 0 0 1 .622 5.809Z"/>
    <path fill="#DEDEDE" d="M589.284 353.712c.498-.156 1.027.093 1.182.59l6.687 19.573a335.355 335.355 0 0 1 3.11-13.421c5.442-21.748 14.523-49.958 29.514-81.212a.723.723 0 0 1-.156-.249l-7.775-22.866a.91.91 0 0 1 .56-1.18.912.912 0 0 1 1.182.559l7.308 21.406c11.258-23.177 25.782-48 44.473-73.103.311-.435.902-.497 1.307-.218.404.311.497.901.186 1.305a458.5 458.5 0 0 0-28.923 43.93l16.608-5.25a.944.944 0 0 1 .559 1.802l-18.504 5.81-.031.031c-17.199 30.135-28.83 58.532-36.667 82.547l24.32-5.716a.927.927 0 0 1 1.12.683c.124.497-.187 1.025-.685 1.119l-24.849 5.84a.818.818 0 0 1-.528-.031c-2.893 9.103-5.287 17.554-7.184 25.196a412.799 412.799 0 0 0-3.795 16.498.959.959 0 0 1-.093.59c-6.5 31.72-6.407 51.977-6.407 52.194 0 .528-.404.963-.933.963a.957.957 0 0 1-.933-.932c0-.249-.093-20.691 6.438-52.722l-7.682-22.525c-.155-.497.125-1.025.591-1.211Z" style="mix-blend-mode:multiply"/>
    <path fill="url(#e)" d="M518.221 393.292c.466-1.926 2.177-3.448 4.291-3.448 2.333 0 4.697.994 6.594 1.242 3.11.435 3.172-.745 7.681.653a5.938 5.938 0 0 1 1.493.652c3.732 2.175 6.531 7.55 9.548 6.773 3.39-.87 7.402 1.647 10.201 5.717 2.83 4.038 4.82 9.972 10.138 9.91 5.287-.031 7.62 11.806 9.673 22.307 0 0-12.503 3.014-16.515 2.765-.746-.031-1.213-.186-1.524-.435-1.399-1.087.374-3.79-4.322-4.38-5.723-.715-9.051-3.325-10.73-7.426-1.711-4.101-.187-5.809-5.505-7.052-5.287-1.243-10.045-4.35-10.605-7.922-.529-3.604-1.026-7.084-4.509-9.445-2.83-1.957-5.598-4.132-6.003-8.419a3.984 3.984 0 0 1 .094-1.492Z"/>
    <path fill="#DEDEDE" d="M570.313 433.743c-.124.062-.28.031-.342-.093-.031-.063-3.483-6.338-11.009-14.385a115.042 115.042 0 0 0-4.79-4.815l-.062.062c-.021 0-.041.01-.062.031l-6.345 1.771c-.124.031-.248-.031-.279-.156-.063-.124.031-.279.155-.31l6.22-1.74a115.656 115.656 0 0 0-18.66-14.074l-4.914.994c-.124 0-.249-.062-.28-.217-.031-.125.063-.249.187-.28l4.416-.87a124.923 124.923 0 0 0-12.067-6.338c-.124-.031-.155-.186-.124-.31.062-.125.218-.187.342-.125 7.371 3.356 13.777 7.146 19.22 10.998l-1.026-5.778c-.032-.124.062-.249.186-.28.125 0 .249.062.28.218l1.12 6.151v.062a111.451 111.451 0 0 1 16.856 14.695c7.557 8.109 11.04 14.416 11.072 14.478.062.093 0 .249-.094.311Z" style="mix-blend-mode:multiply"/>
    <path fill="#BFBFD9" d="M580.328 156.865a3.356 3.356 0 1 0 0-6.711 3.358 3.358 0 0 0-3.359 3.356 3.357 3.357 0 0 0 3.359 3.355Zm15.736 0a3.357 3.357 0 0 0 3.359-3.355 3.358 3.358 0 0 0-3.359-3.356 3.358 3.358 0 0 0-3.359 3.356 3.357 3.357 0 0 0 3.359 3.355Zm15.706 0a3.357 3.357 0 0 0 3.359-3.355 3.358 3.358 0 0 0-3.359-3.356 3.358 3.358 0 0 0-3.359 3.356 3.357 3.357 0 0 0 3.359 3.355Zm15.705 0a3.357 3.357 0 0 0 3.359-3.355 3.358 3.358 0 0 0-3.359-3.356 3.358 3.358 0 0 0-3.359 3.356 3.357 3.357 0 0 0 3.359 3.355Zm-47.147 15.689a3.356 3.356 0 1 0 0-6.71 3.357 3.357 0 0 0-3.359 3.355 3.357 3.357 0 0 0 3.359 3.355Zm15.736 0a3.357 3.357 0 0 0 3.359-3.355 3.357 3.357 0 0 0-3.359-3.355 3.357 3.357 0 0 0-3.359 3.355 3.357 3.357 0 0 0 3.359 3.355Zm15.706 0a3.357 3.357 0 0 0 3.359-3.355 3.357 3.357 0 0 0-3.359-3.355 3.357 3.357 0 0 0-3.359 3.355 3.357 3.357 0 0 0 3.359 3.355Zm15.705 0a3.357 3.357 0 0 0 3.359-3.355 3.357 3.357 0 0 0-3.359-3.355 3.357 3.357 0 0 0-3.359 3.355 3.357 3.357 0 0 0 3.359 3.355Z" style="mix-blend-mode:multiply"/>
    <path fill="#FFE580" d="M605.363 82.333h-35.019l16.919-34.02 18.1 34.02Z"/>
    <path fill="#BFBFD9" d="m471.197 87.77 4.883 4.878-3.39 3.386-4.883-4.878-4.882 4.878-3.39-3.386 4.882-4.878-4.882-4.878 3.39-3.386 4.882 4.877 4.883-4.877 3.39 3.386-4.883 4.878Zm-309.228 5.499 4.883 4.878-3.39 3.386-4.883-4.878-4.882 4.878-3.39-3.386 4.882-4.878-4.882-4.878 3.39-3.417 4.882 4.878 4.883-4.878 3.39 3.417-4.883 4.878ZM349.72 69.284c6.63 0 12.005-5.369 12.005-11.992 0-6.623-5.375-11.992-12.005-11.992-6.63 0-12.004 5.37-12.004 11.992 0 6.623 5.374 11.992 12.004 11.992Z" style="mix-blend-mode:multiply"/>
    <path fill="#FFE580" d="m107.513 164.011 2.581 7.953a1.14 1.14 0 0 0 1.089.777h8.366c1.119 0 1.555 1.429.684 2.081l-6.78 4.909c-.404.28-.591.808-.435 1.274l2.612 7.953c.342 1.057-.871 1.927-1.773 1.274l-6.779-4.909a1.174 1.174 0 0 0-1.338 0l-6.78 4.909c-.901.653-2.083-.217-1.741-1.274l2.581-7.953a1.168 1.168 0 0 0-.404-1.274l-6.78-4.909c-.902-.652-.435-2.081.653-2.081h8.397a1.17 1.17 0 0 0 1.089-.777l2.581-7.953c.342-1.057 1.835-1.057 2.177 0Z"/>
    <path fill="#D8D8D8" d="M474.867 426.224a3.76 3.76 0 0 1-3.763 3.79h-86.147l-23.947-3.044-5.442-6.897c-1.473-3.294-2.209-5.51-2.209-6.649 0-1.16 5.671-12.593 17.012-34.299l83.473-2.237-1.897 5.126c.466 0 .933.094 1.399.311 1.897.808 2.799 3.045 1.959 4.971l-11.538 26.625c-.839 1.926-.653 4.039.498 5.779 1.151 1.74 3.017 2.765 5.1 2.765h21.739a3.754 3.754 0 0 1 3.763 3.759Z"/>
    <path fill="#E9E9E9" d="M474.867 426.224a3.761 3.761 0 0 1-3.763 3.791h-86.147l-.218-.032c.062-2.671.135-5.177.218-7.518h86.147a3.754 3.754 0 0 1 3.763 3.759Z"/>
    <path fill="#D3D3D3" d="M384.957 430.014h-21.739a13.616 13.616 0 0 1-11.414-6.151c-2.55-3.852-2.954-8.699-1.12-12.955l11.539-26.626a3.764 3.764 0 0 1 4.976-1.957c1.928.808 2.799 3.045 1.959 4.971l-11.538 26.625c-.84 1.926-.653 4.039.497 5.779 1.151 1.74 3.017 2.765 5.101 2.765h21.739c2.083 0 3.794 1.678 3.794 3.759a3.787 3.787 0 0 1-3.794 3.79Z"/>
    <path fill="#B9B9B9" d="M558.309 388.011H239.813c-11.756 0-21.801-8.482-23.761-20.039L178.919 149.16c-1.648-9.786 5.878-18.703 15.799-18.703h318.496c11.755 0 21.801 8.482 23.76 20.039l37.134 218.812c1.648 9.786-5.878 18.703-15.799 18.703Z"/>
    <path fill="#D3D3D3" d="M568.727 388.011H250.231c-11.756 0-21.801-8.482-23.76-20.039L189.337 149.16c-1.648-9.786 5.878-18.703 15.799-18.703h318.496c11.756 0 21.801 8.482 23.76 20.039l37.134 218.812c1.648 9.786-5.878 18.703-15.799 18.703Z"/>
    <path fill="#E9E9E9" d="M250.231 384.22c-9.952 0-18.349-7.114-20.028-16.901l-37.134-218.78c-.591-3.573.404-7.208 2.737-9.942a12.123 12.123 0 0 1 9.33-4.349h318.496c9.952 0 18.349 7.114 20.028 16.901l37.134 218.811a12.185 12.185 0 0 1-2.737 9.911 12.17 12.17 0 0 1-9.33 4.349H250.231Z"/>
    <path fill="url(#f)" d="M198.698 141.02c1.586-1.895 3.95-2.982 6.438-2.982h18.1c-.528.714-.933 1.522-1.244 2.392a9.896 9.896 0 0 0-.56 5.033c8.957 66.196 17.914 132.401 26.871 198.618.218 1.739.435 3.448.591 5.188.093.932.249 1.833.435 2.703h-3.763c-7.215 0-13.435-4.567-15.643-11.185a15.204 15.204 0 0 1-.653-2.547c-10.823-63.441-21.646-126.892-32.469-190.354a8.49 8.49 0 0 1 1.897-6.866Zm24.538-2.982h300.396a16.473 16.473 0 0 1 15.643 11.184c.27.829.488 1.678.653 2.548a516547.897 516547.897 0 0 1 32.438 190.353 8.332 8.332 0 0 1-1.866 6.866 8.454 8.454 0 0 1-6.469 2.983H249.329a24.59 24.59 0 0 1-.435-2.703c-.156-1.74-.373-3.449-.591-5.188-8.957-66.217-17.914-132.422-26.871-198.618a9.896 9.896 0 0 1 .56-5.033c.311-.87.716-1.678 1.244-2.392Z"/>
    <path fill="#fff" d="M426.196 366.046h-34.584a3.198 3.198 0 0 1-3.203-3.2c0-1.771 1.431-3.2 3.203-3.2h34.584a3.197 3.197 0 0 1 3.203 3.2c0 1.77-1.431 3.2-3.203 3.2Z"/>
    <path fill="#A3B8F2" d="M436.614 366.046h-.311a3.197 3.197 0 0 1-3.203-3.2c0-1.771 1.43-3.2 3.203-3.2h.311a3.197 3.197 0 0 1 3.203 3.2c0 1.77-1.43 3.2-3.203 3.2Z"/>
    <g style="mix-blend-mode:multiply">
      <path fill="#F0CFCF" d="M468.927 150.9c4.541.249 3.11 3.821 6.22 10.75 3.11 6.928 9.797 1.677 13.404 4.535 3.577 2.89 9.548 3.822 13.871 2.89 4.292-.963 6.469.932 15.55 5.25 9.081 4.288 9.548.963 17.945 3.822 8.366 2.858 1.182 5.25-.747 8.357-1.897 3.107-5.256 2.392-9.796 4.287-4.541 1.926-3.359 8.855-4.292 13.639-.964 4.785-5.505 2.858-10.045 3.573-3.027.476-2.468-1.916 1.679-7.177v-5.965c0-1.429-3.825-.248-4.572.715-.477.642-1.907 1.605-4.291 2.889l-2.146-2.889-3.608-1.895c-4.769 2.692-7.236 4.287-7.402 4.784-.249.715-.715 4.753-.715 6.68 0 1.895 1.43 2.143 2.146 4.536.715 2.392-1.431 5.002-1.68 9.071-.217 4.07-3.825 2.641-5.504 2.641-1.649 0-5.723 0-8.833.963-3.11.932-.964 8.575-.249 12.179.716 3.573-.248 5.965-5.255 8.357-5.039 2.392-5.972 2.392-6.687 3.356-.715.932-9.112 3.821-11.009 2.143-1.929-1.677-5.754-2.143-9.082-3.107-3.358-.963-3.358 0-6.935 6.463-3.608 6.431-2.177 1.895-3.825 1.646-1.68-.217-1.462-3.324-1.462-5.25 0-1.895-2.612-1.678-5.007-3.325-2.395-1.677-2.395-2.889-3.11-3.603-.715-.715-10.294-5.499-13.404-1.896-3.11 3.573 4.074 3.822 8.863 6.929 4.79 3.106-3.825 3.572-5.753 5.002-1.897 1.429-9.33.714-9.33-1.181 0-1.926-1.897-5.251-5.256-8.14-3.359-2.858-3.826-3.107-3.11-6.213.715-3.107.715-2.393-.467-4.536-1.213-2.144-4.54-1.678-6.22-3.822-1.679-2.143 2.613-1.429 8.615-1.677 5.971-.218 3.825-2.61 3.328-4.536-.467-1.895-2.613-4.07-4.292-4.288-1.679-.248-4.323 4.039-8.148 5.002-3.826.963-.716 4.07-2.395 7.177-1.648 3.107-1.897-.249-2.861-2.392-.964-2.144.249-3.356.249-8.109 0-3.19-1.597-2.952-4.79.715-1.762 2.692-3.12 3.489-4.074 2.392-1.431-1.678-5.256.466-6.22 1.429-.933.932-5.722 4.753-7.402 4.536-1.679-.249-7.184-3.822-6.469-5.251.716-1.46 5.505.466 8.149-1.46 2.612-1.895-2.644-5.002-3.11-7.394-.498-2.392 4.074-.963 6.935-4.536 2.861-3.573 2.146-2.392 4.789-4.318 2.613-1.896 5.007.248 6.936 2.174 1.897 1.895 5.504-2.889 4.789-5.996-.746-3.107.218-4.039 1.648-8.109 1.431-4.069-3.11-4.784-4.291-1.926-1.213 2.89.248 6.711-1.431 10.284-1.679 3.573-5.038-2.144-7.184-2.61-2.146-.497-5.505-3.852-4.79-7.425.716-3.573 5.256-6.462 6.469-12.676 1.182-6.182 7.184-7.394 13.156-7.643 5.971-.217 9.578 5.033 14.337 8.14 4.789 3.107 5.287.249 10.294-4.536 5.038-4.784 5.505-1.677 9.796-.963 4.323.715 3.359-2.144 6.003-5.747 2.612-3.573 5.722-1.647 8.583-3.573 2.893-1.895 2.644-5.499 4.79-8.358 2.146-2.858 7.65-1.211 12.689-1.429 5.007-.248 1.679-5.499 6.468-5.25 3.338 1.098 6.521 1.729 9.548 1.895Zm-85.09 98.951c1.089 1.088 12.16 3.232 15.581 7.177 3.421 3.977 5.132 8.264 6.656 12.023 1.523 3.76 5.131 5.841 8.365 7.146 3.235 1.305 1.524 5.934-5.411 10.004-6.904 4.039-4.261 6.245-4.696 10.284-.435 4.038-9.952 16.497-14.928 20.287-4.976 3.79-6.687-.466-6.811-8.171-.155-7.705-6.344-8.14-6.376-12.458 0-4.35 4.728-5.996 1.68-8.948-3.048-2.982 0-15.627-.871-16.435-.871-.839-17.82 4.567-23.947 1.274-6.158-3.293 1.804-7.984.84-14.819-.933-6.804 6.531-6.991 10.138-9.228 3.608-2.268 13.933-2.112 16.577.311 1.41.311 2.477.829 3.203 1.553Zm53.897 47.845c0 4.288-1.68 5.717-6.687 8.357-5.038 2.61.467-5.747-1.679-8.854-2.146-3.107 5.256-5.157 5.971-5.25 4.323-.466 2.395 1.429 2.395 5.747Zm83.379-14.509c2.364 7.861 4.323 8.265 11.787 16.498 7.495 8.264-3.141 7.86-3.545 16.901-.374 9.04-3.919 16.124-10.606 15.72-6.686-.404-7.464-9.818-12.968-18.858-5.536-9.041-16.919 1.18-28.737-2.362-11.787-3.541-3.141-7.083-7.06-13.763-3.949-6.679 5.505-5.095 10.201-12.955 4.727-7.86 4.727-4.318 20.868-.404 16.11 3.946 8.242-5.499 10.606-12.955 6.686 0 7.09 4.318 9.454 12.178Zm-31.131-24.264c-4.541-.714-3.826-2.64-7.651-3.821-3.825-1.212.249-5.965 4.541-6.928 14.834 1.429 7.65 11.464 3.11 10.749Zm6.935-25.103c-4.789 0-3.11 8.855 0 9.321 3.11.497 2.643-9.321 0-9.321Zm18.66 23.674c0 3.635 6.935 6.68 4.541 2.859-2.395-3.822-4.541-4.785-4.541-2.859ZM341.479 149.782c1.68 1.677 1.182 5.002 1.182 5.716 0 .715 9.828 2.889 15.083 3.821 5.256.964-3.576 5.282-6.22 7.674-2.643 2.361-3.358 2.858-3.358 10.253 0 7.425 2.177 8.357-5.505 21.996-7.651 13.608.249 8.823-3.577 12.427-3.825 3.573-9.578 5.002-11.009 7.146-1.431 2.174-1.648 7.425-2.861 12.675-1.182 5.251-4.074-3.106-10.294-14.105-6.22-10.998 3.607-7.394 5.504-10.749 1.929-3.355-9.796-10.284-10.76-13.39-.964-3.076-4.074-7.146-11.227-7.861-7.184-.714-3.359-6.71-2.644-9.102.715-2.362 8.864-7.395 10.512-11.216 1.679-3.821 1.928-7.177 5.753-8.14 3.826-.932 8.864-1.429 12.192-5.965 3.359-4.536 7.899-4.287 12.937-4.287 1.742.953 3.173 1.988 4.292 3.107Z" style="mix-blend-mode:multiply"/>
      <path fill="#F0CFCF" d="M398.765 150.465c0-2.392 4.043-3.107 4.759-3.107.746 0 4.074 8.14 1.928 8.606-2.146.497-1.68 4.07-1.431 4.785.249.714 2.395 5.747 0 5.499-1.596-.166-2.633-1.119-3.11-2.859-1.907 4.143-3.587 6.048-5.038 5.717-2.146-.466-1.648-5.717-2.146-6.462-.467-.715-3.825-3.076-.964-7.643 2.892-4.536 2.177-3.107 7.184 0a9.256 9.256 0 0 1-1.182-4.536Zm-105.18 2.05c2.488 1.026 6.22 4.567 2.705 6.432-3.545 1.864-1.461 5.592-4.789 9.134-3.328 3.51-6.22 9.537-6.438 12.023-.217 2.485-4.167 4.38-5.815 3.542-1.649-.839-2.924-3.729-3.546-1.461-.622 2.299 6.438 2.703 3.546 5.81-2.924 3.107-2.488 3.946-5.412 2.92-1.928-.704-4.561-.497-7.899.622a112.503 112.503 0 0 1 4.789 4.567c2.302 2.268 6.034 1.243 8.739-1.46 2.675-2.703 5.816-2.921 7.682 1.242 1.866 4.163 8.521 5.406 9.33 8.109.84 2.672-.809 6.431-1.026 7.053-.218.621 3.11 4.349-.405 4.349-3.545 0-5.815.621-6.655-1.864-.84-2.485-.404-9.134-1.679-9.538-1.244-.435-4.976-.435-4.976 1.647 0 2.081.217 4.349-1.027 5.188-1.244.839-.622 1.243-.622 1.864s-3.545.404-4.385 1.243c-.808.839-13.062 3.728-3.949 7.891 9.143 4.163 8.521 7.674 9.983 8.73 1.461 1.025 5.411 6.618 4.789 1.025-.622-5.592-6.033-9.972-1.462-11.836 4.572-1.865 6.034 4.784 8.522 4.784 2.488 0 7.681-2.082 8.086 2.485.435 4.567-3.11 7.892-3.732 8.513-.622.621-2.271 3.324-1.027 3.946 1.244.621-1.866 2.889-2.488 3.107-.622.217-6.655 1.677-7.712 3.541-1.027 1.864-2.675-.621-3.919 6.214-1.275 6.866 1.026 10.377-1.057 8.916-2.084-1.429.217-5.374-5.598-4.567-5.816.839-9.144 2.921-3.732 5.81 5.38 2.92 9.547 5.841 10.169 6.245.622.404 2.706 5.406 5.194 4.971 2.488-.404 6.842-2.486 8.304-2.486 1.461 0 9.143 2.082 10.791 4.785 1.68 2.703 3.328 4.132 6.656 5.374 3.328 1.243 7.899 2.299 6.251 4.163-1.679 1.865-5.629 6.214-4.572 9.134 1.027 2.89.187 3.325-2.705 4.35-2.924 1.056-2.924 4.567-4.354 7.487-1.462 2.89-4.572 4.132-6.656 4.971-2.084.839-1.679 3.542-3.328 6.027-1.119 1.657-2.643 4.557-4.571 8.699l-1.68 5.002c-1.513 2.755-2.612 3.718-3.296 2.89-1.058-1.243-3.141-5.189-3.546-7.457-.404-2.299 0-6.648.84-8.916.809-2.299 3.514-7.487 2.27-11.029-1.244-3.511-.404-7.457-2.705-11.62-2.271-4.132-4.572-6.835-3.95-9.538.622-2.702 3.763-7.269 2.923-9.537-.839-2.299-1.461-3.946-2.923-4.567-1.431-.622-4.976-.218-6.842-1.057-1.866-.807-7.899-1.864-9.983-3.106-2.053-1.243-5.381-7.053-6.003-7.674-.622-.622-2.519-2.082-4.167-2.486-1.648-.435-7.682-9.755-7.682-11.837 0-2.081.622-13.079-.839-13.483-1.462-.435-9.766-15.161-13.933-13.297-4.136 1.864-7.868 2.92-8.304 3.728-.269.559-2.063 2.082-5.38 4.567-1.534-3.583-2.374-5.861-2.519-6.835-.125-.973.29-2.423 1.244-4.349l-1.866-4.381-.187-5.188 3.514-6.618 7.496-.435 7.464 3.107 6.033 1.895 6.438-2.516c4.851 2.092 8.034 3.272 9.547 3.541 2.302.404 9.144 1.026 9.362-1.025.217-2.081-3.546-9.755-3.95-10.408-.405-.621-5.412-1.864-5.598-3.51-.218-1.678-7.682-4.971-6.873-7.053.839-2.081 3.327-5.002 4.571-5.002 1.244 0 4.168.435 5.816 1.678 1.68 1.243 2.084 2.268 3.11.839 1.058-1.46 1.462-3.542 3.141-3.759 1.649-.187 2.053-7.239 2.893-7.239.839 0 9.765-14.54 10.822-16 1.027-1.46 5.381-5.189 8.708-4.132a18.97 18.97 0 0 1 6.034 3.106Z" style="mix-blend-mode:multiply"/>
    </g>
    <path fill="#fff" d="M251.724 162.582c-.466 0-.933-.218-1.182-.653-.435-.652-.248-1.522.436-1.957a33.662 33.662 0 0 1 5.287-2.672c.715-.279 1.555.062 1.835.808.311.714-.063 1.553-.778 1.833-1.773.714-3.39 1.522-4.82 2.423a1.402 1.402 0 0 1-.778.218Zm117.994 66.174a1.47 1.47 0 0 1-1.369-.963 111.93 111.93 0 0 0-4.416-11.122c-.311-.715 0-1.554.715-1.864a1.376 1.376 0 0 1 1.866.683 109.532 109.532 0 0 1 4.541 11.371 1.424 1.424 0 0 1-.902 1.802c-.145.062-.29.093-.435.093Zm-10.139-21.934a1.46 1.46 0 0 1-1.213-.683 108.15 108.15 0 0 0-6.717-9.88 1.395 1.395 0 0 1 .248-1.988c.622-.466 1.524-.373 1.991.248 2.488 3.232 4.789 6.649 6.904 10.129a1.44 1.44 0 0 1-.466 1.957 1.38 1.38 0 0 1-.747.217Zm-14.741-19.169c-.373 0-.747-.124-1.027-.403a102.833 102.833 0 0 0-8.801-8.078 1.452 1.452 0 0 1-.218-1.988c.498-.622 1.4-.684 2.022-.218a114.108 114.108 0 0 1 9.05 8.295c.56.559.529 1.46-.031 1.989-.28.279-.622.403-.995.403Zm-18.754-15.223c-.248 0-.528-.093-.746-.217a104.164 104.164 0 0 0-10.45-5.841c-.715-.342-.995-1.181-.653-1.895a1.435 1.435 0 0 1 1.897-.653 103.886 103.886 0 0 1 10.73 5.996c.653.404.84 1.274.435 1.958-.28.404-.746.652-1.213.652Zm-21.77-10.532c-.145 0-.3-.031-.466-.093a97.513 97.513 0 0 0-11.507-3.169c-.747-.155-1.244-.932-1.089-1.678a1.422 1.422 0 0 1 1.68-1.118c3.949.839 7.93 1.957 11.849 3.293.746.249 1.119 1.056.871 1.802-.187.59-.747.963-1.338.963Zm-35.765-4.66c-.715 0-1.337-.559-1.43-1.274a1.385 1.385 0 0 1 1.275-1.553c3.856-.466 8.055-.528 12.346-.249a1.378 1.378 0 0 1 1.307 1.491 1.383 1.383 0 0 1-1.493 1.336c-4.105-.279-8.148-.186-11.849.218a.507.507 0 0 1-.156.031Zm105.678 88.73h-.186a1.353 1.353 0 0 1-1.213-1.15c-.373-1.833-.747-3.666-1.182-5.499-.155-.745.311-1.522 1.057-1.708a1.452 1.452 0 0 1 1.711 1.056c.104.456.207.922.311 1.398.207-.435.415-.86.622-1.274.342-.714 1.182-.994 1.897-.652.684.342.995 1.18.653 1.895a156.246 156.246 0 0 0-2.394 5.095 1.385 1.385 0 0 1-1.276.839Zm7.247-14.509c-.218 0-.467-.062-.685-.186a1.386 1.386 0 0 1-.528-1.926 149.8 149.8 0 0 1 5.504-9.103c.405-.653 1.307-.839 1.96-.404.653.404.839 1.305.404 1.957a161.772 161.772 0 0 0-5.411 8.948c-.249.466-.747.714-1.244.714Zm11.569-17.646a1.53 1.53 0 0 1-.871-.28 1.427 1.427 0 0 1-.249-1.988 120.713 120.713 0 0 1 6.904-8.171c.529-.56 1.431-.591 2.022-.062.56.528.591 1.429.062 2.019a108.011 108.011 0 0 0-6.749 7.953 1.43 1.43 0 0 1-1.119.529Zm14.43-15.348c-.404 0-.777-.186-1.057-.497a1.428 1.428 0 0 1 .124-2.02 90.914 90.914 0 0 1 8.553-6.462c.653-.435 1.555-.279 1.959.404.435.653.28 1.523-.373 1.957-2.83 1.865-5.598 3.977-8.273 6.276-.28.218-.591.342-.933.342Zm17.603-11.588a1.486 1.486 0 0 1-1.306-.808c-.311-.715-.031-1.554.684-1.895a71.898 71.898 0 0 1 10.045-3.884 1.442 1.442 0 0 1 1.773.963c.218.746-.218 1.523-.964 1.771-3.266.963-6.5 2.237-9.641 3.728a1.441 1.441 0 0 1-.591.125Zm51.502-3.511c-.125 0-.259-.021-.405-.062-3.358-.963-6.779-1.74-10.107-2.237a1.439 1.439 0 0 1-1.182-1.647c.093-.776.84-1.305 1.617-1.18a92.022 92.022 0 0 1 10.481 2.33 1.439 1.439 0 0 1 .964 1.771 1.426 1.426 0 0 1-1.368 1.025Zm-31.349-2.548a1.438 1.438 0 0 1-1.431-1.211 1.455 1.455 0 0 1 1.213-1.616c3.546-.466 7.153-.714 10.761-.652.777 0 1.399.652 1.399 1.429a1.38 1.38 0 0 1-1.43 1.398 71.185 71.185 0 0 0-10.326.652h-.186Zm46.525 8.42c-.207 0-.414-.052-.622-.155a105.554 105.554 0 0 0-5.1-2.299 1.415 1.415 0 0 1-.746-1.864c.279-.715 1.119-1.057 1.835-.746 1.772.746 3.514 1.522 5.255 2.361.716.342.996 1.212.654 1.895a1.387 1.387 0 0 1-1.276.808Z"/>
    <path fill="#FF9F9F" d="M670.487 302.139H513.089c-4.5 0-8.148 3.644-8.148 8.14v55.176c0 4.496 3.648 8.14 8.148 8.14h157.398c4.5 0 8.148-3.644 8.148-8.14v-55.176c0-4.496-3.648-8.14-8.148-8.14Z" style="mix-blend-mode:multiply"/>
    <g filter="url(#g)">
      <path fill="#fff" d="M667.719 292.912H499.374a2.673 2.673 0 0 0-2.675 2.671v66.113a2.674 2.674 0 0 0 2.675 2.672h168.345a2.673 2.673 0 0 0 2.674-2.672v-66.113a2.672 2.672 0 0 0-2.674-2.671Z"/>
    </g>
    <path fill="#F99B9B" d="M528.981 351.847c13.466 0 24.383-10.905 24.383-24.357s-10.917-24.357-24.383-24.357-24.382 10.905-24.382 24.357 10.916 24.357 24.382 24.357Z"/>
    <path fill="#FB9696" d="M621.94 320.562h-50.756c-3.452 0-6.282-2.796-6.282-6.245 0-3.479 2.83-6.275 6.282-6.275h50.756c3.452 0 6.251 2.796 6.251 6.275a6.248 6.248 0 0 1-6.251 6.245Zm30.322 13.577h-81.109a6.248 6.248 0 0 0-6.251 6.245v.031a6.248 6.248 0 0 0 6.251 6.244h81.109a6.248 6.248 0 0 0 6.251-6.244v-.031a6.248 6.248 0 0 0-6.251-6.245Z"/>
    <path fill="#2B1710" d="M625.298 253.673c-.062-.125 0-.249.094-.311.746-.311 1.15-.715 1.306-1.181.28-.932-.498-2.112-1.151-3.169-.653-1.025-1.244-1.895-.902-2.578.28-.559.28-1.429-.031-2.268-.466-1.274-1.462-2.299-2.737-2.858-2.737-1.181-3.576-3.604-2.985-5.282.497-1.367.622-4.349-2.302-5.81-3.11-1.553-4.976-4.163-5.536-7.736l-16.172.839c.56 2.672-.186 4.878-2.083 6.121-1.649 1.087-2.706 3.945-1.617 5.996 1.275 2.392-.343 4.225-2.613 6.338-1.43 1.367-1.71 4.349-1.151 6.431.343 1.149.871 1.926 1.462 2.05.125.031.218.156.187.28-.031.124-.156.217-.28.186-.809-.186-1.431-1.025-1.804-2.392-.622-2.175-.373-5.344 1.275-6.897 2.519-2.361 3.514-3.821 2.488-5.779-1.213-2.299-.062-5.374 1.804-6.586 1.773-1.181 2.426-3.324 1.804-5.903-.031-.062 0-.155.031-.186.031-.063.093-.094.186-.125l16.67-.87c.093 0 .218.094.249.218.497 3.511 2.301 6.089 5.318 7.58 3.234 1.616 3.048 4.878 2.519 6.4-.529 1.492.342 3.666 2.737 4.692 1.399.59 2.488 1.739 2.986 3.106.373.995.373 1.989.031 2.672-.218.435.311 1.274.839 2.113.747 1.118 1.555 2.423 1.213 3.542-.186.621-.684 1.118-1.524 1.491a.23.23 0 0 1-.093.031.234.234 0 0 1-.218-.155Z"/>
    <path fill="#2B1710" d="M590.217 241.836c2.146-2.672 2.861-3.418 2.146-5.561-.746-2.113-1.119-4.07 1.275-6.369 2.426-2.299 1.586-4.163 1.12-6.027l12.782-5.81c2.675.466 4.261 2.765 4.261 5.81 0 3.075.56 5.188 3.141 6.586 2.612 1.367 3.421 4.163 2.674 6.369-.715 2.237 1.587 4.443 3.453 5.375 1.834.932 2.674 3.231 2.114 5.002-.559 1.739 2.146 1.926 2.146 4.349 0 1.595-1.482 2.237-4.447 1.926-3.079 1.119-31.784-2.205-32.406-4.349-.653-2.113-.373-4.629 1.741-7.301Z"/>
    <path fill="#FF8762" d="M574.667 360.298c-.083.58-.238 1.823-.466 3.728h-2.892c0-2.154-.042-3.241-.125-3.262-1.99.404-3.763 2.206-4.541 2.92-.746.715-7.432.187-7.775 0-.59-.869 3.266-1.491 3.421-1.864 1.68-3.106 5.412-6.71 5.941-7.736.124-.31.248-.838.373-1.46.373-2.112.435-4.256.249-6.4-.094-.994-.218-2.081-.311-3.231l6.468-1.74a510.003 510.003 0 0 0-.404 3.076c-.249 1.957-.497 3.666-.684 5.002-.156 3.635.529 6.152 1.213 7.456.653 1.336-.342 2.641-.467 3.511Z"/>
    <path fill="#2B1710" d="M562.258 361.852c1.213.155 2.551.403 3.017.217.622-.28 4.758-5.406 9.299-6.68.187.56.373 1.026.56 1.398.653 1.336-.342 2.641-.467 3.511-.083.58-.238 1.823-.466 3.728h-2.892c0-2.154-.042-3.241-.125-3.262-1.99.404-3.763 2.206-4.54 2.921-.747.714-7.433.186-7.775 0-.56-.839 3.047-1.43 3.389-1.833Z"/>
    <path fill="#FF8762" d="M571.153 318.449c.083.58.28 1.813.591 3.697l-2.768.808c-.601-2.05-.943-3.075-1.026-3.075-1.804.932-3.017 3.168-3.546 4.069-.497.901-7.09 2.299-7.464 2.206-.808-.683 2.706-2.361 2.737-2.765.778-3.448 3.328-7.953 3.514-9.103.063-.31.032-.87-.031-1.522-.217-2.113-.777-4.194-1.555-6.183-.373-.932-.777-1.957-1.213-3.044l5.723-3.48c.166 1.077.321 2.102.466 3.076.311 1.957.56 3.666.778 5.002.84 3.51 2.239 5.747 3.234 6.804 1.027 1.087.436 2.64.56 3.51Z"/>
    <path fill="#2B1710" d="M559.677 323.452c1.213-.218 2.55-.342 2.955-.653.528-.466 3.047-6.524 7.059-9.041.311.497.622.901.902 1.181 1.026 1.087.436 2.641.56 3.511.083.58.28 1.812.591 3.697l-2.768.807c-.601-2.05-.943-3.075-1.026-3.075-1.804.932-3.017 3.169-3.546 4.07-.497.901-7.091 2.299-7.464 2.205-.777-.683 2.519-2.236 2.737-2.702Z"/>
    <path fill="#A9897A" d="M602.533 258.115c-4.022 4.723-9.911 7.229-17.665 7.519-11.631.466-21.335-10.253-25.44-18.206l2.737-3.883c25.782 20.504 24.196-.342 33.277-4.474l7.091 19.044Z"/>
    <path fill="#99715F" d="M610.681 238.76c4.043 1.181 6.231 3.335 6.562 6.462.529 4.692-3.576 23.736-3.576 24.513h-17.012c0-1.698-.549-3.521-1.648-5.468-1.617-2.889-5.629-7.519-5.381-10.594.249-3.076 5.319-9.041 5.816-14.602l4.043-.622c3.4.539 7.132.643 11.196.311Z"/>
    <path fill="#2B1710" d="M596.375 225.587c-3.763-1.553-2.021-7.611 2.55-8.171 9.206-3.293 11.818 2.765 11.476 8.886 1.213 3.013-1.182 6.804-5.287 6.089-2.508-1.574-5.421-3.842-8.739-6.804Z"/>
    <path fill="#FF8762" d="M596.407 231.055c-.342-1.336-.031-3.293-.156-6.089-.155-2.765.778-4.132 2.519-6.276 4.665-.59 5.785 3.2 5.847 5.592.031 2.393.622 3.791 2.395 3.325-.311 4.505.062 7.86.808 9.165.747 1.336 2.83 1.802 2.83 1.926.032 1.149-11.164 7.487-11.227-.217 2.426-1.647 2.333-2.02 2.053-3.729-3.297.062-4.727-2.361-5.069-3.697Z"/>
    <path fill="#E0B3A8" d="M601.818 230.62c-2.115-.901-4.136-.87-3.981-.124-.124 1.833 2.146 3.759 3.981.124Z" style="mix-blend-mode:multiply"/>
    <path fill="url(#h)" d="M598.801 229.409s-.187-.156-.436-.373c-.093-.218-.373-.559-.528-.746.28.031 1.057.156 1.337.062a.81.81 0 0 1-.373 1.057Zm.373-1.057c-.28.094-1.057-.031-1.337-.062a.958.958 0 0 0-.094-.124c.28 0 .871.031 1.213-.093a.492.492 0 0 1 .218.279Zm-.809.684a1.093 1.093 0 0 0-.217-.218c-.218-.217-.436-.435-.498-.528 0-.031.093 0 .187 0 .155.187.435.528.528.746Zm-.528-.746c-.094 0-.187-.031-.187 0-.041-.041-.062-.072-.062-.093 0 0 .062-.031.155-.031a.958.958 0 0 1 .094.124Z"/>
    <path fill="#FF8762" d="M607.882 229.999c.79 0 1.431-.64 1.431-1.429a1.43 1.43 0 0 0-2.861 0c0 .789.64 1.429 1.43 1.429Z"/>
    <path fill="#E0B3A8" d="M607.602 229.316c-.041 0-.072-.021-.093-.063-.031-.062 0-.124.031-.124.124-.062.197-.134.218-.217a.368.368 0 0 0-.156-.28c-.093-.062-.217-.062-.342 0-.021.021-.052.021-.093 0-.021-.021-.031-.052-.031-.093 0-.342.249-.621.591-.715a.86.86 0 0 1 .964.28c.031.031 0 .093-.031.124s-.094.031-.125-.031a.727.727 0 0 0-.746-.217.675.675 0 0 0-.436.435.435.435 0 0 1 .343.062.535.535 0 0 1 .248.435c-.031.093-.062.279-.311.373l-.031.031Zm-5.94 5.374c-.031-.062 0-.093.063-.124 2.301-.653 4.136-2.579 4.696-4.94 0-.031.062-.062.124-.062.031.031.062.062.062.124-.591 2.392-2.457 4.381-4.82 5.064h-.031c-.063 0-.094-.031-.094-.062Z" style="mix-blend-mode:multiply"/>
    <path fill="#2B1710" d="M604.026 224.469c-1.213-.653-2.581-.684-3.048-.528-.062.031-.124 0-.124-.062-.031-.031.031-.063.062-.125.715-1.429 2.395-.559 3.172.56.031.062.062.093.062.124-.02.041-.051.062-.093.062-.021 0-.031-.01-.031-.031Zm-7.464.093c-.062-.031-.062-.093-.031-.124.031-.062 1.088-1.833 1.741-.404 0 .031.062.031.062.093s-.062.093-.093.093c-1.182-.155-1.555.311-1.555.342-.021.021-.052.031-.093.031-.021 0-.031-.01-.031-.031Zm2.115 4.847c-.56-.435-1.213-.963-1.213-1.15 0-.155.217-.186.591-.186.28 0 .653 0 .839-.124.28-.156 0-1.927-.497-3.045-.031-.062 0-.124.062-.124.031-.031.093 0 .093.031.436.963.902 3.044.436 3.324-.218.124-.591.124-.933.124-.125 0-.311 0-.405.031.125.156.653.622 1.12.995.062.031.062.093.031.124-.021.021-.052.031-.093.031-.021 0-.031-.01-.031-.031Zm3.358-2.02c.31 0 .56-.445.56-.994 0-.549-.25-.994-.56-.994-.309 0-.559.445-.559.994 0 .549.25.994.559.994Z"/>
    <path fill="#E0B3A8" d="M602.129 227.7c-.032 0-.063-.031-.063-.062.032-.031.031-.031.063-.031.155 0 .559-.031.715-.715l.031-.031c.031 0 .062.031.062.062-.155.684-.56.777-.746.777h-.062Z" style="mix-blend-mode:multiply"/>
    <path fill="#2B1710" d="M597.868 227.482c.309 0 .56-.445.56-.994 0-.549-.251-.994-.56-.994-.309 0-.56.445-.56.994 0 .549.251.994.56.994Z"/>
    <path fill="#E0B3A8" d="M597.93 227.824c-.031 0-.031-.031-.031-.062s0-.031.031-.031c.187 0 .591-.031.716-.715 0-.031.031-.031.062-.031 0 0 .031.031.031.062-.156.684-.56.777-.747.777h-.062Z" style="mix-blend-mode:multiply"/>
    <path fill="#FF7E57" d="M602.782 228.57c.218.311.373.559.342.59-.031.031-.249-.186-.467-.466-.217-.311-.373-.559-.311-.59.031-.031.218.186.436.466Zm-.56.062c.249.311.373.559.342.59-.031.031-.249-.186-.466-.466-.218-.279-.374-.559-.311-.59.031-.031.217.186.435.466Zm-.591.062c.218.311.342.56.311.591-.031.031-.249-.187-.466-.466-.218-.311-.373-.56-.311-.591.031-.031.248.187.466.466Z"/>
    <path fill="#fff" d="M607.571 231.18a.653.653 0 1 0 0-1.305.653.653 0 0 0 0 1.305Z"/>
    <path fill="#E0B3A8" d="M599.672 233.447c-.218 0-.498-.031-.778-.155-.031 0-.062-.031-.062-.093.031-.031.062-.062.094-.031.59.217 1.181.093 1.181.093.031-.031.094 0 .094.031 0 .062-.032.093-.063.093 0 0-.186.062-.466.062Z" style="mix-blend-mode:multiply"/>
    <path fill="#2B1710" d="m601.818 230.62-3.981-.124c0 1.802 2.612 2.641 3.981.124Z"/>
    <path fill="#7D2727" d="M598.583 231.863a3.133 3.133 0 0 1 1.306-1.087l1.213-.187.715.031c-.902 1.678-2.363 1.833-3.234 1.243Z"/>
    <path fill="#fff" d="m597.837 230.496 3.981.124c-.902.653-3.359.839-3.981-.124Z"/>
    <path fill="#433129" d="m599.827 270.294 4.665 2.175.902 18.237-20.059 2.734c-9.268-7.291-14.441-11.247-15.519-11.868-1.058-.601.539 8.968 4.789 28.707l-13.777 3.759c-3.276-17.232-5.443-29.111-6.5-35.635-1.617-9.818 1.119-17.553 7.961-18.237 6.842-.683 26.684 15.503 27.617 15.503.602 0 2.675-1.564 6.22-4.691l3.701-.684Z"/>
    <path fill="#D4D4D4" d="M560.703 309.595a.233.233 0 0 1-.217-.155c-.031-.124.031-.249.155-.28l10.481-3.075c.124-.031.249.031.28.155.031.124-.031.217-.156.28l-10.48 3.075h-.063Z" style="mix-blend-mode:multiply"/>
    <path fill="#433129" d="M613.138 270.884c5.018 8.492 6.241 15.855 3.67 22.09-3.888 9.32-28.052 10.47-30.323 15.938-1.534 3.645-4.613 17.771-9.236 42.376h-15.861c1.907-26.2 4.799-42.832 8.677-49.895 5.815-10.594 22.578-18.454 24.973-20.163 1.596-1.139 3.193-4.784 4.789-10.936l13.311.59Z"/>
    <path fill="#2B1710" d="M613.947 270.978h-17.821v-1.616h17.821v1.616Z"/>
    <path fill="#5D6ACF" d="M605.985 271.351h-.839v-2.548h.839v2.548Zm6.065 0h-.871v-2.548h.871v2.548Z"/>
    <path fill="#D4D4D4" d="M611.676 282.814h-.062c-3.918-.963-5.878-5.219-4.945-10.842.031-.124.125-.187.249-.187.124.031.187.156.187.249-.902 5.406.933 9.476 4.603 10.346.124.031.217.155.186.279a.233.233 0 0 1-.218.155Z" style="mix-blend-mode:multiply"/>
    <path fill="#D4D4D4" d="M572.801 347.187h-.062c-.093-.031-.186-.155-.155-.279.248-1.429 6.655-35.076 9.921-41.631 2.145-4.288 10.791-6.494 17.695-8.264 4.012-1.026 7.464-1.927 8.957-2.983 4.292-2.982 3.763-13.266 1.835-21.872-.031-.093.062-.217.187-.248.093-.031.217.062.249.155 1.959 8.761 2.425 19.2-2.022 22.338-1.555 1.087-5.038 1.988-9.081 3.013-6.842 1.771-15.364 3.946-17.416 8.078-3.266 6.493-9.828 41.165-9.89 41.507-.031.093-.124.186-.218.186Zm-10.512.777c-.093 0-.217-.093-.217-.217 0-.125.093-.218.217-.218l14.711-.062c.124 0 .218.124.218.217a.213.213 0 0 1-.218.218l-14.711.062Z" style="mix-blend-mode:multiply"/>
    <path fill="#2B1710" d="m600.418 217.789 5.349.466 1.213 5.53c-4.872-.414-7.609-2.112-8.21-5.095l1.648-.901Zm-13.28 22.463c-.062-.125 0-.249.125-.311.031 0 1.804-.684 2.208-1.864.155-.466.062-.963-.28-1.492-1.648-2.516-.653-6.648 2.053-8.481 2.519-1.74 3.172-3.635 3.607-6.773 0-.155.125-.248.249-.217.155.031.249.124.218.279-.436 3.262-1.151 5.282-3.795 7.084-2.456 1.677-3.42 5.592-1.928 7.86.415.642.519 1.274.311 1.895-.466 1.398-2.394 2.144-2.457 2.175h-.093a.235.235 0 0 1-.218-.155Z"/>
    <path fill="#FF8762" d="M624.738 258.923c1.617 5.365 2.385 10.398 2.302 15.099-.156 7.084-3.421 16.839-3.421 17.864-.125 2.952-2.582 4.505-4.354 4.288-1.773-.218-2.893-.466-3.079-.062-.218.652-1.4 1.615-1.96 1.46-.456.269-.829.331-1.119.186-.311.207-.622.156-.933-.155 0-1.015.052-1.616.155-1.802.104-.207.27-.632.498-1.274-.519.477-.788.839-.809 1.088-.062.372.062 1.553-.466 1.646-.374-1.087-.249-2.05-.218-2.578.031-.498 1.213-2.362 2.208-2.548.995-.186 5.038-.093 5.318-.466.311-.373-.902-18.237-1.244-19.884-.228-1.097-1.451-4.825-3.67-11.184l10.792-1.678Z"/>
    <path fill="#E0B3A8" d="M612.983 294.123c-.063-.031-.063-.093 0-.155l.559-.621c.063-.031.125-.062.156 0 .031.031.062.093 0 .155l-.56.621c-.021.021-.052.031-.093.031-.021 0-.042-.01-.062-.031Zm.031 3.107c.145-.932.228-1.45.248-1.553.032-.187.623-1.025.902-1.367.032-.062.094-.062.125-.031.062.031.062.093.031.124-.404.559-.809 1.212-.84 1.305-.021.103-.103.621-.249 1.553l-.217-.031Zm1.182-.093c-.063 0-.063-.062-.063-.124 0-.031.28-.839.342-.995.063-.124.716-.901.902-1.149.031-.031.094-.062.156 0a.094.094 0 0 1 0 .124c-.404.497-.84 1.025-.871 1.119-.062.124-.311.963-.311.963-.031.031-.062.062-.124.062h-.031Z" style="mix-blend-mode:multiply"/>
    <path fill="#A9897A" d="M626.822 263.459c1.597 7.747 1.027 15.555-1.71 23.425-1.369.456-3.815.342-7.34-.341 0-12.987-2.239-19.822-4.976-26.501-2.705-6.649-3.39-15.037 2.053-18.952 4.447 0 9.579 10.75 11.973 22.369Z"/>
    <path fill="#FF8762" d="M559.428 247.428c-1.223-2.796-1.835-4.432-1.835-4.909 0-.683.436-1.926 1.649-2.982 1.213-1.088 3.327-1.802 3.701-2.734.373-.932 2.177-1.864 2.799-1.429-.156.373-.933 1.646-1.276 2.547-.311.87-1.648 2.393-2.145 3.045-.498.652-.778 1.025-.218 2.579l-2.675 3.883Z"/>
    <path fill="#FF8762" d="M561.03 239.598c.498 0 .902-1.029.902-2.299s-.404-2.299-.902-2.299-.902 1.029-.902 2.299.404 2.299.902 2.299Z"/>
    <path fill="#FF8762" d="M559.63 240.25c.498 0 .902-1.029.902-2.299 0-1.269-.404-2.299-.902-2.299s-.901 1.03-.901 2.299c0 1.27.403 2.299.901 2.299Z"/>
    <path fill="#FF8762" d="M558.386 241.307c.498 0 .902-1.029.902-2.299s-.404-2.299-.902-2.299-.902 1.029-.902 2.299.404 2.299.902 2.299Z"/>
    <path fill="#FF8762" d="M556.709 239.511c.342-.125.933.59 1.338 1.615.373 1.025.435 1.989.093 2.113-.342.124-.933-.622-1.306-1.647-.405-1.025-.436-1.957-.125-2.081Z"/>
    <path fill="#FFB17B" d="M257.851 430.263h-133.14V297.479h133.14v132.784Z"/>
    <path fill="#F79D5E" d="M204.794 430.263h-80.083V297.479h80.083v132.784Z"/>
    <path fill="#FFD9BF" d="M173.787 363.653h-18.722v-66.392h18.722v66.392Zm74.05-45.235h-14.96v-9.568h14.96v9.568Zm-3.359 14.509c2.593 0 4.696-2.1 4.696-4.691a4.694 4.694 0 0 0-4.696-4.691 4.693 4.693 0 0 0-4.696 4.691 4.693 4.693 0 0 0 4.696 4.691Z" style="mix-blend-mode:multiply"/>
    <path fill="#FFB17B" d="M190.923 297.355h-85.929v-77.329h85.929v77.329Z"/>
    <path fill="#FFCEB3" d="M126.36 236.492h-3.67v14.198h-7.184v-14.198h-3.67l7.277-10.936 7.247 10.936Zm19.313-4.256h-13.84v-6.307h13.84v6.307Zm-10.979 12.8a3.45 3.45 0 0 0 3.452-3.449 3.45 3.45 0 0 0-3.452-3.448 3.45 3.45 0 0 0-3.452 3.448 3.45 3.45 0 0 0 3.452 3.449Z" style="mix-blend-mode:multiply"/>
    <path fill="#BED1EB" d="M679.008 448.5H58.935v-2.206c0-8.854 7.215-16.062 16.11-16.062h587.884c8.895 0 16.079 7.208 16.079 16.062v2.206Z"/>
    <path fill="#FF8762" d="M354.168 274.551c8.552-.995 14.244-5.158 14.119-5.997-.093-.838-.746-6.648-.466-7.269.28-.653 3.079-1.088 3.39-1.367.207-.187.425-.653.653-1.398.715.062 1.804.9 1.399 2.05-.269.766-.87 1.46-1.803 2.082l1.181 8.139c.871 3.791-10.418 14.727-16.483 15.969-3.359-.58-4.022-4.65-1.99-12.209Z"/>
    <path fill="#433129" d="M324.156 271.692c9.165 4.743 23.367 3.894 42.607-2.547l3.795 7.829c-8.802 10.004-37.32 22.431-43.447 16.963-4.085-3.625-5.069-11.04-2.955-22.245Z"/>
    <path fill="#fff" d="M317.501 270.76c.435-.103 2.674.207 6.717.932 6.811 5.561 5.878 20.691 5.381 26.408-.332 3.832.477 11.764 2.426 23.798-8.294 8.305-20.381 9.714-36.263 4.225-3.546-7.891-3.577-46.011-1.897-48.87 1.119-1.926 5.587-4.142 13.404-6.648l10.232.155Z"/>
    <path fill="#2B1710" d="M303.786 317.486h24.88v2.579h-24.88v-2.579Z"/>
    <path fill="#FF8762" d="M303.475 413.207c.332 4.639.891 7.746 1.679 9.32 1.213 2.33 12.565 2.734 15.177 7.674l-24.258-.093c-.352-2.755-.114-5.22.715-7.394l-.964-5.934 7.651-3.573Z"/>
    <path fill="#2B1710" d="M301.267 423.055c-.032-.87.59-3.914 2.799-4.815.248 1.677.622 3.355 1.088 4.287 1.213 2.33 12.564 2.734 15.177 7.674l-24.258-.093c-.353-2.755-.114-5.22.715-7.394 2.924 1.242 4.416 1.356 4.479.341Z"/>
    <path fill="#693E2F" d="M319.678 429.238c.269.31.487.631.653.963l-24.258-.093c-.021-.249-.042-.57-.062-.963l23.667.093Zm-16.328-5.561c-.093-.031-.124-.125-.093-.187.031-.031.404-1.118 1.213-1.46.373-.166.767-.166 1.181 0a.148.148 0 0 1 .063.186c-.031.094-.094.125-.187.094-.332-.145-.643-.156-.933-.031-.715.31-1.057 1.304-1.088 1.304 0 .063-.063.094-.125.094h-.031Zm2.27 1.615a.15.15 0 0 1-.062-.186c0-.031.404-1.119 1.213-1.46a1.392 1.392 0 0 1 1.151 0c.093.031.124.124.093.186-.031.093-.124.124-.187.093-.331-.145-.642-.155-.933-.031-.715.311-1.088 1.305-1.088 1.305-.031.062-.062.093-.124.093h-.063Zm3.764 1.088c-.062-.031-.093-.125-.093-.187.031-.062.435-1.118 1.244-1.46a1.39 1.39 0 0 1 1.15 0c.062.031.125.124.094.187-.032.062-.125.124-.187.093-.332-.145-.653-.156-.964-.031-.684.31-1.058 1.305-1.058 1.305-.031.062-.062.093-.124.093h-.062Z"/>
    <path fill="#FF8762" d="M332.553 413.176c.353 4.639.933 7.746 1.742 9.32 1.182 2.33 12.564 2.703 15.177 7.612h-24.258c-.353-2.755-.114-5.22.715-7.394l-.995-5.934 7.619-3.604Z"/>
    <path fill="#2B1710" d="M330.376 423.024c-.031-.839.591-3.883 2.799-4.815.28 1.677.622 3.355 1.12 4.287 1.181 2.33 12.564 2.703 15.176 7.612h-24.258c-.352-2.755-.114-5.22.716-7.394 2.923 1.222 4.406 1.325 4.447.31Z"/>
    <path fill="#693E2F" d="M348.819 429.176a4 4 0 0 1 .653.932h-24.258c-.021-.249-.042-.57-.063-.963l23.668.031Zm-16.359-5.53c-.062-.031-.093-.094-.093-.187.031-.031.404-1.087 1.244-1.46.352-.166.736-.155 1.15.031.063.031.094.093.063.155-.032.094-.094.125-.156.094-.352-.145-.674-.156-.964-.031-.684.31-1.057 1.304-1.057 1.304-.032.063-.063.094-.125.094h-.062Zm2.301 1.615c-.062-.031-.124-.124-.093-.186.031-.031.404-1.119 1.213-1.46.373-.166.767-.166 1.182 0 .062.031.093.124.062.186-.031.093-.093.124-.187.093-.331-.145-.642-.155-.933-.031-.715.311-1.057 1.305-1.057 1.305-.031.062-.093.093-.125.093h-.062Zm3.763 1.056c-.062-.031-.124-.093-.093-.155s.404-1.118 1.213-1.491c.373-.145.767-.135 1.182.031.062.031.093.093.062.186-.031.062-.093.093-.187.062-.331-.145-.642-.145-.933 0-.715.311-1.057 1.274-1.057 1.305-.031.031-.093.093-.124.093-.021 0-.042-.01-.063-.031Z"/>
    <path fill="#433129" d="M335.881 421.844h-12.222l-7.185-56.824-8.086 56.824h-12.346c-.342-17.895-4.012-85.313 2.239-101.872h32.562c2.467 24.813 4.146 58.77 5.038 101.872Z"/>
    <path fill="#E0C9C0" d="M316.474 363.218c-.062 0-.124-.093-.124-.155l1.617-29.017a.239.239 0 0 1 .125-.125l2.394-.621-.528-7.518c-.031-.063.031-.125.124-.156.062 0 .124.062.156.156l.528 7.611a.173.173 0 0 1-.093.156l-2.426.621-1.617 28.893c0 .093-.062.155-.156.155Zm7.682 56.358c0-.062.062-.125.156-.125h10.76c.094 0 .156.063.156.125 0 .093-.062.155-.156.155h-10.76c-.094 0-.156-.062-.156-.155Zm-27.057.217c0-.062.062-.124.156-.124h10.48c.063 0 .125.062.125.124 0 .093-.062.156-.125.156h-10.48c-.094 0-.156-.063-.156-.156Zm3.234-88.854c0-.062.063-.125.125-.125 3.608-.372 5.878-3.666 6.064-8.823 0-.062.063-.124.156-.124.062 0 .124.062.124.124-.28 7.891-4.913 8.948-6.313 9.072-.093 0-.156-.031-.156-.124Zm-2.954 87.27c0-.684.591-83.573 2.737-95.162.031-.062.093-.124.155-.093.094 0 .125.094.125.156-2.146 11.557-2.737 94.384-2.737 95.099.031.062-.031.124-.125.124-.062 0-.124-.031-.155-.124Z" style="mix-blend-mode:multiply"/>
    <path fill="#FF8762" d="M294.144 331.685c-.248 1.211-1.866 5.219-.653 6.369 1.244 1.149 2.582 2.92 2.519 4.97-.062 2.082 1.929 3.946 1.742 4.381-.155.404-2.581-.777-3.234-1.864-.653-1.056-.436-1.709-.996-1.274-.559.435-1.337 7.146-1.337 9.352-.021 1.449-.508 1.346-1.462-.311-.622.248-1.15-.042-1.586-.87-1.461.311-2.146-3.946-2.519-3.666-1.648.435-2.146-4.225-1.306-6.773.84-2.516 1.99-4.505 2.053-6.835a396 396 0 0 1 .186-5.468l6.593 1.989Z"/>
    <path fill="#E0B3A8" d="M290.661 352.904c-.031 0-.062-.031-.093-.093-.031-.187-1.026-4.785-.093-7.705.031-.062.093-.093.155-.062.062 0 .094.093.094.155-.933 2.858.093 7.518.093 7.549.031.063-.031.156-.093.156h-.063Zm-1.866-.994c-.041 0-.072-.021-.093-.062-.062-.156-1.399-3.884-.902-6.432 0-.093.093-.124.156-.124a.17.17 0 0 1 .093.156c-.498 2.485.871 6.275.902 6.306a.172.172 0 0 1-.093.156h-.063Zm-2.114-3.698c-.031 0-.062-.031-.094-.093-.342-1.708-.217-2.578-.217-2.641 0-.062.062-.093.155-.093.062 0 .094.062.094.156 0 0-.125.87.217 2.516.031.093-.031.155-.093.155h-.062Z" style="mix-blend-mode:multiply"/>
    <path fill="#433129" d="M327.701 327.988c-.653-6.835-1.181-23.146-1.088-27.931.093-6.462.218-21.312-6.873-29.11 1.306.186 2.799.435 4.478.745 6.811 5.562 5.878 20.692 5.38 26.408-.331 3.832.622 12.79 2.862 26.874-1.151 1.118-3.452 2.206-4.759 3.014Zm-31.939-1.865c-3.546-7.891-3.577-46.011-1.897-48.87 1.057-1.77 5.878-3.883 9.423-5.25 4.261 6.742 6.189 13.204 5.38 30.012a234.32 234.32 0 0 0 .187 26.656c-4.893-.373-9.258-1.222-13.093-2.548Z"/>
    <path fill="#433129" d="M295.42 275.731c3.732 2.889 8.148 9.196 4.603 21.188-2.364 7.995-3.349 21.354-2.955 40.078l-12.875.497c-2.55-18.951-.591-55.363 11.227-61.763Z"/>
    <path fill="#2B1710" d="M311.188 263.677c-2.654-.663-4.189-1.626-4.603-2.89-.591-1.864-1.4-7.176-.902-9.258.808-3.386 6.717-4.909 9.61-4.132 3.576.932 4.385 1.616 4.509 3.169.156 1.554-.404 3.045-1.368 4.256l-7.246 8.855Z"/>
    <path fill="#FF8762" d="M305.994 271.071c1.741-.891 2.353-3.697 1.835-8.419l-.311-2.797c1.368.932 1.99-.745 1.803-1.802-.124-.724-.28-1.884-.466-3.479 1.182.58 1.783.103 1.804-1.429.933.466-1.493-7.053 8.614-1.616.28 1.771.622 5.748.498 8.047-.249 4.815.155 8.109-4.043 8.823 0 1.74.062 2.361 1.804 2.361-.995 2.734-9.05 1.958-11.538.311Z"/>
    <path fill="url(#i)" d="M319.522 260.663c0 .021-.052.042-.155.062 0-.041-.031-.124-.094-.248.094 0 .187.062.187.062.062.062.083.103.062.124Zm-.062-.124s-.093-.062-.187-.062c-.217-.373-.808-1.119-1.306-1.616l.28.28c.498.528 1.026 1.118 1.213 1.398Zm-.093.186c-.591.062-2.271.187-2.271.187v-1.15s1.617.746 2.177.715c.063.124.094.207.094.248Zm-.094-.248c-.56.031-2.177-.715-2.177-.715v-1.833s.405.404.871.932c.498.497 1.089 1.243 1.306 1.616Z"/>
    <path fill="#2B1710" d="M318.123 258.799c.326 0 .591-.487.591-1.087 0-.601-.265-1.088-.591-1.088-.327 0-.591.487-.591 1.088 0 .6.264 1.087.591 1.087Zm-4.572.186c.326 0 .591-.487.591-1.087 0-.601-.265-1.087-.591-1.087-.326 0-.591.486-.591 1.087 0 .6.265 1.087.591 1.087Z"/>
    <path fill="#E0B3A8" d="M312.462 258.395c0-.062.031-.124.094-.124.062 0 .124.031.124.093a.943.943 0 0 0 .995.901c.063 0 .125.062.125.093 0 .062-.062.125-.094.125h-.062c-.622 0-1.15-.466-1.182-1.088Z" style="mix-blend-mode:multiply"/>
    <path fill="#2B1710" d="M317.034 260.881c0-.032.031-.094.093-.094.964-.031 2.053-.093 2.302-.155-.125-.186-.684-.777-1.12-1.243-.84-.87-1.399-1.46-1.462-1.708-.186-.622-.155-1.274.094-2.082a.237.237 0 0 1 .155-.062.235.235 0 0 1 .062.124c-.248.746-.279 1.398-.124 1.957.062.218.809.995 1.4 1.616.964.994 1.244 1.305 1.212 1.46 0 .031 0 .062-.031.093-.186.125-1.803.187-2.488.218-.062 0-.093-.062-.093-.124Z"/>
    <path fill="#FF7E57" d="M313.955 259.949c.062-.063.342.248.653.652.28.435.467.808.405.87-.063.062-.374-.249-.653-.684-.311-.403-.498-.807-.405-.838Zm-.902 0c.063-.031.374.248.654.683.311.435.497.808.404.87-.062.031-.342-.28-.653-.683-.28-.435-.467-.808-.405-.87Zm-.932 0c.093-.063.373.248.684.652.28.435.466.808.404.87-.093.062-.373-.249-.684-.684-.28-.403-.467-.807-.404-.838Z"/>
    <path fill="#FF8762" d="M306.367 262.683a1.803 1.803 0 1 0 0-3.604 1.803 1.803 0 1 0 0 3.604Z"/>
    <path fill="#E0B3A8" d="M306.709 261.844c-.342-.125-.404-.373-.404-.497-.031-.187.093-.435.28-.56a.692.692 0 0 1 .497-.093.837.837 0 0 0-.591-.528c-.28-.093-.715-.093-.964.28-.031.031-.124.062-.155 0-.063-.031-.094-.094-.031-.156.248-.373.746-.497 1.212-.373.467.156.778.498.778.933 0 .062-.021.103-.062.124-.021.021-.052.021-.094 0-.155-.062-.311-.062-.435.031a.422.422 0 0 0-.218.342c.021.124.114.217.28.279.062.031.094.093.062.156-.031.031-.062.062-.124.062h-.031Z" style="mix-blend-mode:multiply"/>
    <path fill="#2B1710" d="M311.654 255.941c-.031-.031 0-.062.031-.062s1.368-1.492 3.141-.404c.031.031.062.031.062.093a.067.067 0 0 1-.062.062c-1.493 0-3.079.373-3.11.373-.041 0-.062-.021-.062-.062Zm3.421 13.514c-6.158-.342-7.029-5.406-7.34-7.394-.031-.404.653-.652.28-1.957l1.151-1.989c.145 1.119 1.13 2.082 2.954 2.89 2.706 1.18 7.309.714 7.589.155 1.524 4.194 1.524 8.637-4.634 8.295Zm4.603-13.576c-.809-.187-1.96-.249-1.96-.249a.067.067 0 0 1-.062-.062c0-.031.062-.031.062-.062.28-.653 1.587-.901 1.991.248 0 .031.062.031.031.062 0 .032-.031.063-.062.063Z"/>
    <path fill="#FF8762" d="M316.755 262.682c1.399-.31 2.363-.714 2.208.28-.156 1.025-.871 1.895-2.146 2.05-1.275.187-3.39-.186-4.261-1.367-.84-1.18.093-1.988 1.368-1.429 1.307.529 2.302.591 2.831.466Z"/>
    <path fill="#2B1710" d="M313.178 262.931a.094.094 0 0 1 0-.124c.031-.062.093-.062.124-.031.373.279 2.986.994 5.163.404.031-.031.093 0 .093.062.031.031 0 .093-.062.093-.622.186-1.306.249-1.928.249-1.618 0-3.079-.435-3.39-.653Z"/>
    <path fill="#E0B3A8" d="M315.355 264.453c-.063 0-.063-.062-.063-.124a.241.241 0 0 1 .125-.062c.031 0 .777.28 1.617.093.062 0 .125.031.125.062.031.063 0 .125-.063.125a3.386 3.386 0 0 1-1.088.062c-.373-.062-.622-.124-.653-.156Z" style="mix-blend-mode:multiply"/>
    <path fill="#D1D1D1" d="M311.685 278.465c-3.39-1.646-5.163-4.474-5.163-4.474-.031-.062-.031-.155.031-.186.063-.031.125 0 .156.062.031 0 1.71 2.734 4.976 4.35l3.141-4.971.062-.062c.042 0 .073.01.094.031l4.882 3.355c.062.031.062.093.031.155s-.124.062-.155.031l-4.79-3.293-3.11 4.971c-.02.041-.051.062-.093.062-.021 0-.041-.01-.062-.031Z" style="mix-blend-mode:multiply"/>
    <path fill="#FC0" d="M314.951 273.494c2.218 1.45 3.338 2.206 3.358 2.268.436 1.802-.186 5.033-.279 4.971-1.348-.166-2.354-.021-3.017.435-1.161-.746-1.928-2.113-2.302-4.101l2.24-3.573Z"/>
    <path fill="#FC0" d="M318.029 280.733c2.924 3.604 4.479 13.204 3.763 18.796-.497 3.728.415 7.695 2.737 11.899l-4.229 10.874c-5.246-6.048-7.983-9.217-8.211-9.507-2.115-5.406 2.737-11.526 3.639-16.839.622-3.541.384-8.471-.715-14.788.601-.684 1.607-.829 3.016-.435Z"/>
    <path fill="#BFBFD9" d="M296.663 90.349c0 17.522-14.212 57.258-31.753 57.258-17.571 0-31.784-39.736-31.784-57.258 0-17.523 14.213-31.752 31.784-31.752 17.541 0 31.753 14.23 31.753 31.752Z" style="mix-blend-mode:multiply"/>
    <path fill="#FE0000" d="M291.408 80.003c0 21.654-17.572 70.773-39.249 70.773-21.708 0-39.279-49.119-39.279-70.773 0-21.654 17.571-39.239 39.279-39.239 21.677 0 39.249 17.585 39.249 39.239Z"/>
    <path fill="#fff" d="M252.16 104.143c13.345 0 24.164-10.808 24.164-24.14s-10.819-24.14-24.164-24.14c-13.346 0-24.165 10.808-24.165 24.14s10.819 24.14 24.165 24.14Z"/>
    <path fill="#BFBFD9" d="M392.67 248.049c0 6.929-5.629 22.587-12.534 22.587-6.904 0-12.533-15.658-12.533-22.587 0-6.897 5.629-12.489 12.533-12.489 6.905 0 12.534 5.592 12.534 12.489Z" style="mix-blend-mode:multiply"/>
    <path fill="#FE0000" d="M390.586 243.98c0 8.543-6.935 27.899-15.488 27.899-8.521 0-15.456-19.356-15.456-27.899 0-8.544 6.935-15.472 15.456-15.472 8.553 0 15.488 6.928 15.488 15.472Z"/>
    <path fill="#fff" d="M375.098 253.486c5.256 0 9.517-4.256 9.517-9.506 0-5.251-4.261-9.507-9.517-9.507-5.256 0-9.517 4.256-9.517 9.507 0 5.25 4.261 9.506 9.517 9.506Z"/>
    <path fill="#BFBFD9" d="M516.945 143.537c0 9.786-7.93 31.938-17.727 31.938-9.796 0-17.727-22.152-17.727-31.938 0-9.787 7.931-17.709 17.727-17.709 9.797 0 17.727 7.922 17.727 17.709Z" style="mix-blend-mode:multiply"/>
    <path fill="#FE0000" d="M513.991 137.758c0 12.086-9.796 39.457-21.894 39.457-12.067 0-21.895-27.371-21.895-39.457 0-12.085 9.828-21.872 21.895-21.872 12.098 0 21.894 9.787 21.894 21.872Z"/>
    <path fill="#fff" d="M492.097 151.211c7.437 0 13.466-6.023 13.466-13.453 0-7.429-6.029-13.452-13.466-13.452-7.438 0-13.467 6.023-13.467 13.452 0 7.43 6.029 13.453 13.467 13.453Z"/>
  </g>
  <defs>
    <linearGradient id="b" x1="29719.2" x2="31880.7" y1="262464" y2="164909" gradientUnits="userSpaceOnUse">
      <stop stop-color="#F9F9F9"/>
      <stop offset="1" stop-color="#FBF0F0"/>
    </linearGradient>
    <linearGradient id="c" x1="28800.4" x2="29291.1" y1="123416" y2="77614.1" gradientUnits="userSpaceOnUse">
      <stop stop-color="#F9F9F9"/>
      <stop offset="1" stop-color="#FBF0F0"/>
    </linearGradient>
    <linearGradient id="d" x1="37096.4" x2="39758.3" y1="323103" y2="202971" gradientUnits="userSpaceOnUse">
      <stop stop-color="#F9F9F9"/>
      <stop offset="1" stop-color="#FBF0F0"/>
    </linearGradient>
    <linearGradient id="e" x1="15758.6" x2="16018.4" y1="65529.1" y2="41286.4" gradientUnits="userSpaceOnUse">
      <stop stop-color="#F9F9F9"/>
      <stop offset="1" stop-color="#FBF0F0"/>
    </linearGradient>
    <linearGradient id="f" x1="278331" x2="275711" y1="234460" y2="94744.2" gradientUnits="userSpaceOnUse">
      <stop stop-color="#C4D4FF"/>
      <stop offset="1" stop-color="#fff"/>
    </linearGradient>
    <linearGradient id="h" x1="3786.72" x2="3782.79" y1="1212.38" y2="1206.73" gradientUnits="userSpaceOnUse">
      <stop stop-color="#FF8762"/>
      <stop offset="1" stop-color="#FF5C47"/>
    </linearGradient>
    <linearGradient id="i" x1="2817.53" x2="2802.47" y1="2755.49" y2="2741.24" gradientUnits="userSpaceOnUse">
      <stop stop-color="#FF6B3D"/>
      <stop offset="1" stop-color="#FF8762"/>
    </linearGradient>
    <clipPath id="a">
      <path fill="#fff" d="M0 0h752v448H0z" transform="translate(0 .5)"/>
    </clipPath>
    <filter id="g" width="221.694" height="119.456" x="472.699" y="272.912" color-interpolation-filters="sRGB" filterUnits="userSpaceOnUse">
      <feFlood flood-opacity="0" result="BackgroundImageFix"/>
      <feColorMatrix in="SourceAlpha" result="hardAlpha" values="0 0 0 0 0 0 0 0 0 0 0 0 0 0 0 0 0 0 127 0"/>
      <feOffset dy="4"/>
      <feGaussianBlur stdDeviation="12"/>
      <feComposite in2="hardAlpha" operator="out"/>
      <feColorMatrix values="0 0 0 0 0 0 0 0 0 0 0 0 0 0 0 0 0 0 0.1 0"/>
      <feBlend in2="BackgroundImageFix" result="effect1_dropShadow_0_605"/>
      <feBlend in="SourceGraphic" in2="effect1_dropShadow_0_605" result="shape"/>
    </filter>
  </defs>
</svg>
