<svg xmlns="http://www.w3.org/2000/svg" width="92" height="85" fill="none" viewBox="0 0 92 80">
  <g filter="url(#a)">
    <circle cx="46" cy="42" r="34.5" stroke="#F0F0F0" shape-rendering="crispEdges"/>
  </g>
  <path fill="#FE0000" d="M46.5 25C40.725 25 36 29.725 36 35.5s10.5 19.25 10.5 19.25S57 41.275 57 35.5 52.275 25 46.5 25Zm0 14a3.51 3.51 0 0 1-3.5-3.5 3.51 3.51 0 0 1 3.5-3.5 3.51 3.51 0 0 1 3.5 3.5 3.51 3.51 0 0 1-3.5 3.5Z"/>
  <path fill="#FC0" d="M57.525 44.425c-.525 1.05-1.05 2.1-1.75 3.15 2.975 1.05 4.725 2.45 4.725 3.675 0 2.1-5.6 5.25-14 5.25s-14-3.15-14-5.25c0-1.225 1.75-2.625 4.725-3.85-.7-1.05-1.225-2.1-1.75-3.15C31.45 46 29 48.45 29 51.25c0 4.9 7.35 8.75 17.15 8.75C54.9 60 64 57.025 64 51.25c0-2.8-2.45-5.25-6.475-6.825Z"/>
  <defs>
    <filter id="a" width="92" height="92" x="0" y="0" color-interpolation-filters="sRGB" filterUnits="userSpaceOnUse">
      <feFlood flood-opacity="0" result="BackgroundImageFix"/>
      <feColorMatrix in="SourceAlpha" result="hardAlpha" values="0 0 0 0 0 0 0 0 0 0 0 0 0 0 0 0 0 0 127 0"/>
      <feOffset dy="4"/>
      <feGaussianBlur stdDeviation="5.5"/>
      <feComposite in2="hardAlpha" operator="out"/>
      <feColorMatrix values="0 0 0 0 0.996078 0 0 0 0 0 0 0 0 0 0 0 0 0 0.3 0"/>
      <feBlend in2="BackgroundImageFix" result="effect1_dropShadow_18_2397"/>
      <feBlend in="SourceGraphic" in2="effect1_dropShadow_18_2397" result="shape"/>
    </filter>
  </defs>
</svg>
