<svg xmlns="http://www.w3.org/2000/svg" width="75" height="75" fill="none" viewBox="0 0 75 75">
  <path fill="#FE0000" d="M55.06 32.058V.292a.27.27 0 0 0-.27-.27H40.32v12.851c0 1.553-1.574 2.62-3.016 2.038l-9.775-3.925-9.775 3.925c-1.445.581-3.016-.49-3.016-2.038V.022H.27a.27.27 0 0 0-.27.27V54.81c0 .15.122.27.27.27h31.809c.33-12.534 10.453-22.669 22.98-23.022Zm-37.3 12.944H7.89a2.197 2.197 0 1 1 0-4.395h9.869a2.198 2.198 0 0 1 0 4.395Zm4.822-12.277H7.892a2.198 2.198 0 0 1 0-4.395h14.69a2.197 2.197 0 1 1 0 4.395Z"/>
  <path fill="#FE0000" d="m28.348 6.58 7.577 3.043V.022H19.132v9.6L26.71 6.58a2.18 2.18 0 0 1 1.638 0Z"/>
  <path fill="#FC0" d="M59.454 36.806c-13.414-2.65-25.301 9.236-22.62 22.668 1.754 8.829 9.562 15.504 18.899 15.504C66.356 74.978 75 66.335 75 55.711c0-9.352-6.697-17.168-15.546-18.905ZM64.59 53.31l-10.982 8.307a2.197 2.197 0 0 1-3.056-.397c-4.467-5.7-4.377-5.462-4.51-6.14-.44-2.248 2.461-3.598 3.886-1.78l2.751 3.51 9.26-7.005a2.198 2.198 0 0 1 2.65 3.505Z"/>
</svg>
